<svg viewBox="0 0 1161.431640625 399.9866638183594" xmlns="http://www.w3.org/2000/svg"><g><g><g><g><g><line x1="58" y1="377.987" x2="53" y2="377.987" style="visibility: inherit;" fill="rgb(0, 0, 0)" stroke="rgb(204, 204, 204)" stroke-width="1px"></line><line x1="58" y1="340.1883" x2="53" y2="340.1883" style="visibility: inherit;" fill="rgb(0, 0, 0)" stroke="rgb(204, 204, 204)" stroke-width="1px"></line><line x1="58" y1="302.38960000000003" x2="53" y2="302.38960000000003" style="visibility: inherit;" fill="rgb(0, 0, 0)" stroke="rgb(204, 204, 204)" stroke-width="1px"></line><line x1="58" y1="264.59090000000003" x2="53" y2="264.59090000000003" style="visibility: inherit;" fill="rgb(0, 0, 0)" stroke="rgb(204, 204, 204)" stroke-width="1px"></line><line x1="58" y1="226.7922" x2="53" y2="226.7922" style="visibility: inherit;" fill="rgb(0, 0, 0)" stroke="rgb(204, 204, 204)" stroke-width="1px"></line><line x1="58" y1="188.9935" x2="53" y2="188.9935" style="visibility: inherit;" fill="rgb(0, 0, 0)" stroke="rgb(204, 204, 204)" stroke-width="1px"></line><line x1="58" y1="151.19480000000001" x2="53" y2="151.19480000000001" style="visibility: inherit;" fill="rgb(0, 0, 0)" stroke="rgb(204, 204, 204)" stroke-width="1px"></line><line x1="58" y1="113.39610000000005" x2="53" y2="113.39610000000005" style="visibility: inherit;" fill="rgb(0, 0, 0)" stroke="rgb(204, 204, 204)" stroke-width="1px"></line><line x1="58" y1="75.5974" x2="53" y2="75.5974" style="visibility: inherit;" fill="rgb(0, 0, 0)" stroke="rgb(204, 204, 204)" stroke-width="1px"></line><line x1="58" y1="37.7987" x2="53" y2="37.7987" style="visibility: inherit;" fill="rgb(0, 0, 0)" stroke="rgb(204, 204, 204)" stroke-width="1px"></line><line x1="58" y1="0" x2="53" y2="0" style="visibility: inherit;" fill="rgb(0, 0, 0)" stroke="rgb(204, 204, 204)" stroke-width="1px"></line></g><g transform="translate(48, 0)"><text x="0" y="377.987" dx="0em" dy="0.3em" style="text-anchor: end; visibility: hidden; font-family: &quot;Helvetica Neue&quot;, sans-serif; font-size: 12px; font-weight: 200;" fill="rgb(50, 49, 63)" stroke="none" stroke-width="1px">-0.5</text><text x="0" y="340.1883" dx="0em" dy="0.3em" style="text-anchor: end; visibility: inherit; font-family: &quot;Helvetica Neue&quot;, sans-serif; font-size: 12px; font-weight: 200;" fill="rgb(50, 49, 63)" stroke="none" stroke-width="1px">0</text><text x="0" y="302.38960000000003" dx="0em" dy="0.3em" style="text-anchor: end; visibility: inherit; font-family: &quot;Helvetica Neue&quot;, sans-serif; font-size: 12px; font-weight: 200;" fill="rgb(50, 49, 63)" stroke="none" stroke-width="1px">0.5</text><text x="0" y="264.59090000000003" dx="0em" dy="0.3em" style="text-anchor: end; visibility: inherit; font-family: &quot;Helvetica Neue&quot;, sans-serif; font-size: 12px; font-weight: 200;" fill="rgb(50, 49, 63)" stroke="none" stroke-width="1px">1</text><text x="0" y="226.7922" dx="0em" dy="0.3em" style="text-anchor: end; visibility: inherit; font-family: &quot;Helvetica Neue&quot;, sans-serif; font-size: 12px; font-weight: 200;" fill="rgb(50, 49, 63)" stroke="none" stroke-width="1px">1.5</text><text x="0" y="188.9935" dx="0em" dy="0.3em" style="text-anchor: end; visibility: inherit; font-family: &quot;Helvetica Neue&quot;, sans-serif; font-size: 12px; font-weight: 200;" fill="rgb(50, 49, 63)" stroke="none" stroke-width="1px">2</text><text x="0" y="151.19480000000001" dx="0em" dy="0.3em" style="text-anchor: end; visibility: inherit; font-family: &quot;Helvetica Neue&quot;, sans-serif; font-size: 12px; font-weight: 200;" fill="rgb(50, 49, 63)" stroke="none" stroke-width="1px">2.5</text><text x="0" y="113.39610000000005" dx="0em" dy="0.3em" style="text-anchor: end; visibility: inherit; font-family: &quot;Helvetica Neue&quot;, sans-serif; font-size: 12px; font-weight: 200;" fill="rgb(50, 49, 63)" stroke="none" stroke-width="1px">3</text><text x="0" y="75.5974" dx="0em" dy="0.3em" style="text-anchor: end; visibility: inherit; font-family: &quot;Helvetica Neue&quot;, sans-serif; font-size: 12px; font-weight: 200;" fill="rgb(50, 49, 63)" stroke="none" stroke-width="1px">3.5</text><text x="0" y="37.7987" dx="0em" dy="0.3em" style="text-anchor: end; visibility: inherit; font-family: &quot;Helvetica Neue&quot;, sans-serif; font-size: 12px; font-weight: 200;" fill="rgb(50, 49, 63)" stroke="none" stroke-width="1px">4</text><text x="0" y="0" dx="0em" dy="0.3em" style="text-anchor: end; visibility: hidden; font-family: &quot;Helvetica Neue&quot;, sans-serif; font-size: 12px; font-weight: 200;" fill="rgb(50, 49, 63)" stroke="none" stroke-width="1px">4.5</text></g><line x1="58" y1="0" x2="58" y2="377.987" fill="rgb(0, 0, 0)" stroke="rgb(204, 204, 204)" stroke-width="1px"></line></g></g><g transform="translate(58, 0)" clip-path="url(#clip_0)"><clipPath id="clip_0"><rect width="1103" height="377"></rect></clipPath><g><g><g><line x1="0" y1="0" x2="0" y2="377.987" fill="rgb(0, 0, 0)" stroke="rgb(60, 60, 60)" stroke-width="1px" opacity="0.25"></line><line x1="100.3118181818182" y1="0" x2="100.3118181818182" y2="377.987" fill="rgb(0, 0, 0)" stroke="rgb(60, 60, 60)" stroke-width="1px" opacity="0.25"></line><line x1="200.6236363636364" y1="0" x2="200.6236363636364" y2="377.987" fill="rgb(0, 0, 0)" stroke="rgb(60, 60, 60)" stroke-width="1px" opacity="0.25"></line><line x1="300.93545454545455" y1="0" x2="300.93545454545455" y2="377.987" fill="rgb(0, 0, 0)" stroke="rgb(60, 60, 60)" stroke-width="1px" opacity="0.25"></line><line x1="401.2472727272728" y1="0" x2="401.2472727272728" y2="377.987" fill="rgb(0, 0, 0)" stroke="rgb(60, 60, 60)" stroke-width="1px" opacity="0.25"></line><line x1="501.5590909090909" y1="0" x2="501.5590909090909" y2="377.987" fill="rgb(0, 0, 0)" stroke="rgb(60, 60, 60)" stroke-width="1px" opacity="0.25"></line><line x1="601.8709090909091" y1="0" x2="601.8709090909091" y2="377.987" fill="rgb(0, 0, 0)" stroke="rgb(60, 60, 60)" stroke-width="1px" opacity="0.25"></line><line x1="702.1827272727273" y1="0" x2="702.1827272727273" y2="377.987" fill="rgb(0, 0, 0)" stroke="rgb(60, 60, 60)" stroke-width="1px" opacity="0.25"></line><line x1="802.4945454545456" y1="0" x2="802.4945454545456" y2="377.987" fill="rgb(0, 0, 0)" stroke="rgb(60, 60, 60)" stroke-width="1px" opacity="0.25"></line><line x1="902.8063636363637" y1="0" x2="902.8063636363637" y2="377.987" fill="rgb(0, 0, 0)" stroke="rgb(60, 60, 60)" stroke-width="1px" opacity="0.25"></line><line x1="1003.1181818181818" y1="0" x2="1003.1181818181818" y2="377.987" fill="rgb(0, 0, 0)" stroke="rgb(60, 60, 60)" stroke-width="1px" opacity="0.25"></line><line x1="1103.43" y1="0" x2="1103.43" y2="377.987" fill="rgb(0, 0, 0)" stroke="rgb(60, 60, 60)" stroke-width="1px" opacity="0.25"></line></g><g><line x1="0" y1="377.987" x2="1103.43" y2="377.987" fill="rgb(0, 0, 0)" stroke="rgb(60, 60, 60)" stroke-width="1px" opacity="0.25"></line><line x1="0" y1="340.1883" x2="1103.43" y2="340.1883" fill="rgb(0, 0, 0)" stroke="rgb(60, 60, 60)" stroke-width="1px" opacity="0.25"></line><line x1="0" y1="302.38960000000003" x2="1103.43" y2="302.38960000000003" fill="rgb(0, 0, 0)" stroke="rgb(60, 60, 60)" stroke-width="1px" opacity="0.25"></line><line x1="0" y1="264.59090000000003" x2="1103.43" y2="264.59090000000003" fill="rgb(0, 0, 0)" stroke="rgb(60, 60, 60)" stroke-width="1px" opacity="0.25"></line><line x1="0" y1="226.7922" x2="1103.43" y2="226.7922" fill="rgb(0, 0, 0)" stroke="rgb(60, 60, 60)" stroke-width="1px" opacity="0.25"></line><line x1="0" y1="188.9935" x2="1103.43" y2="188.9935" fill="rgb(0, 0, 0)" stroke="rgb(60, 60, 60)" stroke-width="1px" opacity="0.25"></line><line x1="0" y1="151.19480000000001" x2="1103.43" y2="151.19480000000001" fill="rgb(0, 0, 0)" stroke="rgb(60, 60, 60)" stroke-width="1px" opacity="0.25"></line><line x1="0" y1="113.39610000000005" x2="1103.43" y2="113.39610000000005" fill="rgb(0, 0, 0)" stroke="rgb(60, 60, 60)" stroke-width="1px" opacity="0.25"></line><line x1="0" y1="75.5974" x2="1103.43" y2="75.5974" fill="rgb(0, 0, 0)" stroke="rgb(60, 60, 60)" stroke-width="1px" opacity="0.25"></line><line x1="0" y1="37.7987" x2="1103.43" y2="37.7987" fill="rgb(0, 0, 0)" stroke="rgb(60, 60, 60)" stroke-width="1px" opacity="0.25"></line><line x1="0" y1="0" x2="1103.43" y2="0" fill="rgb(0, 0, 0)" stroke="rgb(60, 60, 60)" stroke-width="1px" opacity="0.25"></line></g></g></g><g><g><line x1="0" y1="340.1883" x2="1103.43" y2="340.1883" fill="rgb(0, 0, 0)" stroke="rgb(153, 153, 153)" stroke-width="1.5px"></line></g></g><g><g><line x1="0" y1="0" x2="0" y2="377.987" fill="rgb(0, 0, 0)" stroke="rgb(153, 153, 153)" stroke-width="1.5px"></line></g></g><g><g><g><g><g><path stroke="rgb(0, 119, 187)" stroke-width="2px" d="M25.07795454545455,46.1760115023136L50.1559090909091,64.93111908628345L75.23386363636364,56.43462260630088L100.3118181818182,86.86004394814933L125.38977272727273,74.75826549426529L150.46772727272727,98.13511349408003L175.54568181818183,96.35342105939645L200.6236363636364,95.9431713296546L225.70159090909092,109.6305365164215L250.77954545454546,113.79054654037742L275.8575,117.39432925827833L300.93545454545455,114.26195437221611L326.01340909090914,123.00947345748705L351.09136363636367,120.93426866292242L376.1693181818182,126.98861752039576L401.2472727272728,136.67168098049024L426.32522727272726,125.05145882578307L451.40318181818185,135.5589160736537L476.4811363636364,118.06539647539375L501.5590909090909,129.361524500605L526.6370454545455,145.55644057979197L551.715,123.0847044098305L576.7929545454546,135.79345179564092L601.8709090909091,152.4781957926498L626.9488636363637,174.82496846030057L652.0268181818183,165.96961154892483L677.1047727272728,171.2290636833748L702.1827272727273,176.85086087063576L727.2606818181819,169.36087289579464L752.3386363636364,154.94531211517037L777.416590909091,172.59819901466872L802.4945454545456,161.55328525878554L827.5725,169.38799191433503L852.6504545454545,151.78074162712662L877.728409090909,132.55203629912518L902.8063636363637,151.88733990834717L927.8843181818182,168.27937353620854L952.9622727272728,178.75038046159898L978.0402272727273,130.26085583830135L1003.1181818181818,156.23751367063778L1003.1181818181818,148.1876305761638" style="fill: none;" fill="none"></path></g><g><path stroke="rgb(204, 51, 17)" stroke-width="2px" d="M25.07795454545455,66.46611586318016L50.1559090909091,63.81126281053429L75.23386363636364,67.77753302608511L100.3118181818182,93.11723972265054L125.38977272727273,97.19845366628789L150.46772727272727,110.70092335851842L175.54568181818183,113.82383166060225L200.6236363636364,108.2628841463557L225.70159090909092,117.0129157409907L250.77954545454546,127.5847103615537L275.8575,121.98977159052208L300.93545454545455,132.07519004821205L326.01340909090914,113.74877055752916L351.09136363636367,121.97798437534658L376.1693181818182,133.58183542168376L401.2472727272728,124.3240157360515L426.32522727272726,121.76182750956252L451.40318181818185,184.8913964103853L476.4811363636364,178.86244467864094L501.5590909090909,168.76358907783953L526.6370454545455,152.85455692947863L551.715,130.42571106743617L576.7929545454546,140.16737743723306L601.8709090909091,115.75502058823281L626.9488636363637,112.34402431225465L652.0268181818183,113.50274473726938L677.1047727272728,128.0929601372183L702.1827272727273,162.36643408625088L727.2606818181819,170.5666072869969L752.3386363636364,174.106401216518L777.416590909091,180.816259636274L802.4945454545456,177.6128967641167L827.5725,158.70325059208167L852.6504545454545,152.89516840949415L877.728409090909,156.8449739908891L902.8063636363637,186.73604831204221L927.8843181818182,201.74432288376005L952.9622727272728,204.7964039593987L978.0402272727273,200.65396229515167L1003.1181818181818,182.71994550016666L1003.1181818181818,165.55120061186847" style="fill: none;" fill="none"></path></g><g><path stroke="rgb(51, 187, 238)" stroke-width="2px" d="M25.07795454545455,313.6780903778136L50.1559090909091,150.53295868000615L75.23386363636364,247.29583123522502L100.3118181818182,289.9853820938664L125.38977272727273,311.75706573877665L150.46772727272727,215.75823169084055L175.54568181818183,266.9612217381136L200.6236363636364,296.7524056655737L225.70159090909092,314.3034118289018L250.77954545454546,324.7201525624489L275.8575,228.93863227267352L300.93545454545455,273.5352726901944L326.01340909090914,300.23134923867224L351.09136363636367,199.94432013701078L376.1693181818182,256.0682970009898L401.2472727272728,152.61471482608147L426.32522727272726,227.65684812229017L451.40318181818185,272.6740003014241L476.4811363636364,299.6813652014169L501.5590909090909,235.06376856763526L526.6370454545455,277.11448976605766L551.715,302.3443420294092L576.7929545454546,317.48204150583695L601.8709090909091,326.5645858771983L626.9488636363637,332.0140861486767L652.0268181818183,335.28377623783683L677.1047727272728,337.24558768316336L702.1827272727273,338.4226707253101L727.2606818181819,339.12891104530615L752.3386363636364,227.65635490282028L777.416590909091,189.71985307503473L802.4945454545456,249.90723646762083L827.5725,191.54003893641107L852.6504545454545,250.99934450227676L877.728409090909,286.6749215341917L902.8063636363637,308.0800291948412L927.8843181818182,241.66773513210128L952.9622727272728,209.0107980257941L978.0402272727273,261.4817986852629L1003.1181818181818,292.96439774285454L1003.1181818181818,275.00676517490797" style="fill: none;" fill="none"></path></g><g><path stroke="rgb(238, 51, 119)" stroke-width="2px" d="M25.07795454545455,31.60463240642548L50.1559090909091,66.49580560840366L75.23386363636364,66.75919943732725L100.3118181818182,89.84709020410969L125.38977272727273,72.61555223916156L150.46772727272727,70.91597425630454L175.54568181818183,83.0207354461806L200.6236363636364,86.72652795478189L225.70159090909092,105.00185848343926L250.77954545454546,104.54523094461263L275.8575,122.28941370517364L300.93545454545455,105.03211767213469L326.01340909090914,101.94786442302404L351.09136363636367,109.67962223857944L376.1693181818182,131.8471946648374L401.2472727272728,119.64024573987706L426.32522727272726,111.92925353958816L451.40318181818185,113.80285999470965L476.4811363636364,121.90223727376673L501.5590909090909,140.14780548753828L526.6370454545455,140.04644933180765L551.715,139.08132661673915L576.7929545454546,126.62797070253424L601.8709090909091,142.39331734989923L626.9488636363637,141.31703900536075L652.0268181818183,144.2239344735662L677.1047727272728,144.2002107409782L702.1827272727273,122.15505996206986L727.2606818181819,121.56647613730462L752.3386363636364,166.4374804613434L777.416590909091,144.22016327808853L802.4945454545456,150.81676561923476L827.5725,163.86083994917874L852.6504545454545,153.6343973245598L877.728409090909,179.5510244954448L902.8063636363637,141.3570512207184L927.8843181818182,137.0668485362523L952.9622727272728,118.80029112593417L978.0402272727273,140.4031789799193L1003.1181818181818,164.74266008976454L1003.1181818181818,142.78565475689405" style="fill: none;" fill="none"></path></g><g><path stroke="rgb(255, 112, 67)" stroke-width="2px" d="M25.07795454545455,72.37899376773834L50.1559090909091,71.9468725707531L75.23386363636364,110.55323376501826L100.3118181818182,104.77974752271183L125.38977272727273,92.14543024869965L150.46772727272727,89.45990187716433L175.54568181818183,92.81309749530061L200.6236363636364,114.7102622551538L225.70159090909092,103.18725835136394L250.77954545454546,142.6699729197757L275.8575,129.65606954990733L300.93545454545455,124.15306345975972L326.01340909090914,116.57307682336L351.09136363636367,92.11914139254702L376.1693181818182,104.0302333279729L401.2472727272728,191.5494825446403L426.32522727272726,100.32853362136973L451.40318181818185,114.02849520289351L476.4811363636364,108.50157341915894L501.5590909090909,-0.0366423861248677L526.6370454545455,28.21617117888826L551.715,89.92511603583017L576.7929545454546,97.0053984989508L601.8709090909091,129.5719787772942L626.9488636363637,129.99127870406758L652.0268181818183,146.21688909367313L677.1047727272728,141.60083902856178L702.1827272727273,155.1922191527844L727.2606818181819,144.18263366798894L752.3386363636364,139.46650317173737L777.416590909091,143.32003178533841L802.4945454545456,169.45134859568827L827.5725,144.71449142819426L852.6504545454545,139.92754553847524L877.728409090909,154.78828413944962L902.8063636363637,177.79849304728552L927.8843181818182,192.03762621193115L952.9622727272728,167.32630946428873L978.0402272727273,143.5397824762983L1003.1181818181818,145.19731539177278L1003.1181818181818,139.1816199202794" style="fill: none;" fill="none"></path></g></g></g></g><g opacity="0.2"><g><g><g><path stroke="rgb(0, 119, 187)" stroke-width="2px" d="M25.07795454545455,46.1760115023136L50.1559090909091,76.18418363666535L75.23386363636364,48.27798598551749L100.3118181818182,122.64033944616321L125.38977272727273,58.9581835448742L150.46772727272727,130.4737099431038L175.54568181818183,93.80557237071991L200.6236363636364,95.34502328529356L225.70159090909092,129.8167415330887L250.77954545454546,119.96767660174373L275.8575,122.76731729111674L300.93545454545455,109.5804382889271L326.01340909090914,136.10218991785052L351.09136363636367,117.82552701330184L376.1693181818182,136.06302414679527L401.2472727272728,151.18944692406657L426.32522727272726,107.62604288229943L451.40318181818185,151.31743410320283L476.4811363636364,91.82778203964233L501.5590909090909,146.30468402757643L526.6370454545455,169.84792653088573L551.715,89.37783959693911L576.7929545454546,154.8563219623089L601.8709090909091,177.50511414146425L626.9488636363637,208.3449686304808L652.0268181818183,152.6866139459133L677.1047727272728,179.11822842755316L702.1827272727273,185.28354802074432L727.2606818181819,158.1258978328705L752.3386363636364,133.32197891149522L777.416590909091,199.07752351002696L802.4945454545456,144.98591682252888L827.5725,181.14005096235275L852.6504545454545,125.36986745748521L877.728409090909,103.70897913351058L902.8063636363637,180.89029482359885L927.8843181818182,192.86742372438908L952.9622727272728,194.45689075248242L978.0402272727273,57.526569173431426L1003.1181818181818,195.20250033233165L1003.1181818181818,136.11280595059395" style="fill: none;" fill="none"></path></g><g><path stroke="rgb(204, 51, 17)" stroke-width="2px" d="M25.07795454545455,66.46611586318016L50.1559090909091,62.21835097894672L75.23386363636364,71.58515243301395L100.3118181818182,122.91673479781153L125.38977272727273,102.52688659110066L150.46772727272727,129.3796998319626L175.54568181818183,118.28964049911502L200.6236363636364,100.15496928548811L225.70159090909092,129.91751273694038L250.77954545454546,143.2825932938576L275.8575,113.64810911684037L300.93545454545455,147.1484333328724L326.01340909090914,86.318980260849L351.09136363636367,134.30568321552275L376.1693181818182,150.97397209987642L401.2472727272728,110.44381553931237L426.32522727272726,117.91962940201762L451.40318181818185,279.5697211709142L476.4811363636364,169.81993553113938L501.5590909090909,153.61622875204085L526.6370454545455,128.99188119606973L551.715,96.7831803050995L576.7929545454546,154.77968465971946L601.8709090909091,79.13677450237276L626.9488636363637,107.22755414218904L652.0268181818183,115.24082043337825L677.1047727272728,149.97824590477947L702.1827272727273,213.77659239194395L727.2606818181819,182.86685953459744L752.3386363636364,179.41609015440943L777.416590909091,190.8810450408459L802.4945454545456,172.80785309324267L827.5725,130.33878359146118L852.6504545454545,144.18304555163385L877.728409090909,162.76968219323157L902.8063636363637,231.5726590229988L927.8843181818182,224.2567345091343L952.9622727272728,209.3745255445242L978.0402272727273,194.44029982185364L1003.1181818181818,155.81892036762235L1003.1181818181818,139.79808331384658" style="fill: none;" fill="none"></path></g><g><path stroke="rgb(51, 187, 238)" stroke-width="2px" d="M25.07795454545455,313.6780903778136L50.1559090909091,52.64587966132166L75.23386363636364,340.1881888882352L100.3118181818182,340.18829390362856L125.38977272727273,340.18217590557146L150.46772727272727,82.95728462228777L175.54568181818183,340.1823167535548L200.6236363636364,340.1882378271762L225.70159090909092,340.18773681237354L250.77954545454546,340.18779854313425L275.8575,86.13508317751882L300.93545454545455,340.18754036871127L326.01340909090914,340.18829673958214L351.09136363636367,49.710249214649195L376.1693181818182,340.1882906689679L401.2472727272728,-2.4926949548721495L426.32522727272726,340.1882927507455L451.40318181818185,340.18829872006336L476.4811363636364,340.18829825119263L501.5590909090909,138.14327992124558L526.6370454545455,340.18826540220294L551.715,340.1882902254008L576.7929545454546,340.18829185300905L601.8709090909091,340.1882948428434L626.9488636363637,340.1882978231788L652.0268181818183,340.18829742784226L677.1047727272728,340.18829983141535L702.1827272727273,340.1882934814305L727.2606818181819,340.1882708747531L752.3386363636364,60.4475822982788L777.416590909091,132.81511291351316L802.4945454545456,340.1882995812253L827.5725,103.98924960746763L852.6504545454545,340.18829859212707L877.728409090909,340.18828554884306L902.8063636363637,340.18769013386196L927.8843181818182,142.04929506549837L952.9622727272728,160.02539266948702L978.0402272727273,340.1882993822137L1003.1181818181818,340.18829622403103L1003.1181818181818,248.07031635899546" style="fill: none;" fill="none"></path></g><g><path stroke="rgb(238, 51, 119)" stroke-width="2px" d="M25.07795454545455,31.60463240642548L50.1559090909091,87.43050952959061L75.23386363636364,67.01205751309396L100.3118181818182,116.99844974584579L125.38977272727273,50.11805627212527L150.46772727272727,68.56484605793952L175.54568181818183,100.33073762388227L200.6236363636364,92.12960900793075L225.70159090909092,131.954421213007L250.77954545454546,103.86719226665497L275.8575,148.7447494143486L300.93545454545455,79.24008706550597L326.01340909090914,97.33155517134668L351.09136363636367,121.26211164345739L376.1693181818182,165.07249615497588L401.2472727272728,101.3384316385746L426.32522727272726,100.3660282726288L451.40318181818185,116.61279396891592L476.4811363636364,134.05006933374406L501.5590909090909,167.51449009099005L526.6370454545455,139.8944206568241L551.715,137.63367430191042L576.7929545454546,107.94818270101547L601.8709090909091,166.04115056538583L626.9488636363637,139.70262913827898L652.0268181818183,148.58426527929308L677.1047727272728,144.16462520279885L702.1827272727273,89.0873676382065L727.2606818181819,120.6836009423256L752.3386363636364,233.7439621478796L777.416590909091,110.89419487071041L802.4945454545456,160.71166781845093L827.5725,183.42694988689425L852.6504545454545,138.29473412013056L877.728409090909,218.4259641379595L902.8063636363637,84.0660922935009L927.8843181818182,130.63154457592964L952.9622727272728,91.40045518002512L978.0402272727273,172.8075106405735L1003.1181818181818,201.251881673193L1003.1181818181818,109.85014680161476" style="fill: none;" fill="none"></path></g><g><path stroke="rgb(255, 112, 67)" stroke-width="2px" d="M25.07795454545455,72.37899376773834L50.1559090909091,71.68759985256196L75.23386363636364,147.61534051151276L100.3118181818182,97.99012770175932L125.38977272727273,75.65006561574938L150.46772727272727,85.74484934911732L175.54568181818183,97.60822088036542L200.6236363636364,146.6365386878014L225.70159090909092,86.19306582155224L250.77954545454546,201.29720258038046L275.8575,110.25324964084626L300.93545454545455,115.92850144066807L326.01340909090914,105.22784684028625L351.09136363636367,55.486146051549895L376.1693181818182,121.88287018966673L401.2472727272728,322.7666310143769L426.32522727272726,-36.46428811511993L451.40318181818185,134.57495915641783L476.4811363636364,100.21203271446228L501.5590909090909,-162.83404527120587L526.6370454545455,70.59384207496646L551.715,182.48650276212695L576.7929545454546,107.6256824058056L601.8709090909091,178.42146341261866L626.9488636363637,130.6202256140232L652.0268181818183,170.55523548326494L677.1047727272728,134.67677574210168L702.1827272727273,175.57926847314835L727.2606818181819,127.66826558218006L752.3386363636364,132.3923100338936L777.416590909091,149.1003234278679L802.4945454545456,208.64831861195566L827.5725,107.6092086300373L852.6504545454545,132.74712704677583L877.728409090909,177.07939140224457L902.8063636363637,212.31380581569672L927.8843181818182,213.39632573859694L952.9622727272728,130.25933457221984L978.0402272727273,107.85999212679866L1003.1181818181818,147.6836147594452L1003.1181818181818,130.1580767251015" style="fill: none;" fill="none"></path></g></g></g></g></g></g><g transform="translate(58, 377)" clip-path="url(#clip_1)"><clipPath id="clip_1"><rect width="1103" height="21"></rect></clipPath><g><g><line x1="0" y1="0" x2="0" y2="5" style="visibility: inherit;" fill="rgb(0, 0, 0)" stroke="rgb(204, 204, 204)" stroke-width="1px"></line><line x1="100.3118181818182" y1="0" x2="100.3118181818182" y2="5" style="visibility: inherit;" fill="rgb(0, 0, 0)" stroke="rgb(204, 204, 204)" stroke-width="1px"></line><line x1="200.6236363636364" y1="0" x2="200.6236363636364" y2="5" style="visibility: inherit;" fill="rgb(0, 0, 0)" stroke="rgb(204, 204, 204)" stroke-width="1px"></line><line x1="300.93545454545455" y1="0" x2="300.93545454545455" y2="5" style="visibility: inherit;" fill="rgb(0, 0, 0)" stroke="rgb(204, 204, 204)" stroke-width="1px"></line><line x1="401.2472727272728" y1="0" x2="401.2472727272728" y2="5" style="visibility: inherit;" fill="rgb(0, 0, 0)" stroke="rgb(204, 204, 204)" stroke-width="1px"></line><line x1="501.5590909090909" y1="0" x2="501.5590909090909" y2="5" style="visibility: inherit;" fill="rgb(0, 0, 0)" stroke="rgb(204, 204, 204)" stroke-width="1px"></line><line x1="601.8709090909091" y1="0" x2="601.8709090909091" y2="5" style="visibility: inherit;" fill="rgb(0, 0, 0)" stroke="rgb(204, 204, 204)" stroke-width="1px"></line><line x1="702.1827272727273" y1="0" x2="702.1827272727273" y2="5" style="visibility: inherit;" fill="rgb(0, 0, 0)" stroke="rgb(204, 204, 204)" stroke-width="1px"></line><line x1="802.4945454545456" y1="0" x2="802.4945454545456" y2="5" style="visibility: inherit;" fill="rgb(0, 0, 0)" stroke="rgb(204, 204, 204)" stroke-width="1px"></line><line x1="902.8063636363637" y1="0" x2="902.8063636363637" y2="5" style="visibility: inherit;" fill="rgb(0, 0, 0)" stroke="rgb(204, 204, 204)" stroke-width="1px"></line><line x1="1003.1181818181818" y1="0" x2="1003.1181818181818" y2="5" style="visibility: inherit;" fill="rgb(0, 0, 0)" stroke="rgb(204, 204, 204)" stroke-width="1px"></line><line x1="1103.43" y1="0" x2="1103.43" y2="5" style="visibility: inherit;" fill="rgb(0, 0, 0)" stroke="rgb(204, 204, 204)" stroke-width="1px"></line></g><g transform="translate(0, 8)"><text x="0" y="0" dx="0em" dy="0.95em" style="text-anchor: middle; visibility: hidden; font-family: &quot;Helvetica Neue&quot;, sans-serif; font-size: 12px; font-weight: 200;" fill="rgb(50, 49, 63)" stroke="none" stroke-width="1px">0</text><text x="100.3118181818182" y="0" dx="0em" dy="0.95em" style="text-anchor: middle; visibility: inherit; font-family: &quot;Helvetica Neue&quot;, sans-serif; font-size: 12px; font-weight: 200;" fill="rgb(50, 49, 63)" stroke="none" stroke-width="1px">200</text><text x="200.6236363636364" y="0" dx="0em" dy="0.95em" style="text-anchor: middle; visibility: inherit; font-family: &quot;Helvetica Neue&quot;, sans-serif; font-size: 12px; font-weight: 200;" fill="rgb(50, 49, 63)" stroke="none" stroke-width="1px">400</text><text x="300.93545454545455" y="0" dx="0em" dy="0.95em" style="text-anchor: middle; visibility: inherit; font-family: &quot;Helvetica Neue&quot;, sans-serif; font-size: 12px; font-weight: 200;" fill="rgb(50, 49, 63)" stroke="none" stroke-width="1px">600</text><text x="401.2472727272728" y="0" dx="0em" dy="0.95em" style="text-anchor: middle; visibility: inherit; font-family: &quot;Helvetica Neue&quot;, sans-serif; font-size: 12px; font-weight: 200;" fill="rgb(50, 49, 63)" stroke="none" stroke-width="1px">800</text><text x="501.5590909090909" y="0" dx="0em" dy="0.95em" style="text-anchor: middle; visibility: inherit; font-family: &quot;Helvetica Neue&quot;, sans-serif; font-size: 12px; font-weight: 200;" fill="rgb(50, 49, 63)" stroke="none" stroke-width="1px">1k</text><text x="601.8709090909091" y="0" dx="0em" dy="0.95em" style="text-anchor: middle; visibility: inherit; font-family: &quot;Helvetica Neue&quot;, sans-serif; font-size: 12px; font-weight: 200;" fill="rgb(50, 49, 63)" stroke="none" stroke-width="1px">1.2k</text><text x="702.1827272727273" y="0" dx="0em" dy="0.95em" style="text-anchor: middle; visibility: inherit; font-family: &quot;Helvetica Neue&quot;, sans-serif; font-size: 12px; font-weight: 200;" fill="rgb(50, 49, 63)" stroke="none" stroke-width="1px">1.4k</text><text x="802.4945454545456" y="0" dx="0em" dy="0.95em" style="text-anchor: middle; visibility: inherit; font-family: &quot;Helvetica Neue&quot;, sans-serif; font-size: 12px; font-weight: 200;" fill="rgb(50, 49, 63)" stroke="none" stroke-width="1px">1.6k</text><text x="902.8063636363637" y="0" dx="0em" dy="0.95em" style="text-anchor: middle; visibility: inherit; font-family: &quot;Helvetica Neue&quot;, sans-serif; font-size: 12px; font-weight: 200;" fill="rgb(50, 49, 63)" stroke="none" stroke-width="1px">1.8k</text><text x="1003.1181818181818" y="0" dx="0em" dy="0.95em" style="text-anchor: middle; visibility: inherit; font-family: &quot;Helvetica Neue&quot;, sans-serif; font-size: 12px; font-weight: 200;" fill="rgb(50, 49, 63)" stroke="none" stroke-width="1px">2k</text><text x="1103.43" y="0" dx="0em" dy="0.95em" style="text-anchor: middle; visibility: hidden; font-family: &quot;Helvetica Neue&quot;, sans-serif; font-size: 12px; font-weight: 200;" fill="rgb(50, 49, 63)" stroke="none" stroke-width="1px">2.2k</text></g><line x1="0" y1="0" x2="1103.43" y2="0" fill="rgb(0, 0, 0)" stroke="rgb(204, 204, 204)" stroke-width="1px"></line></g></g></g></g></svg>