<svg viewBox="0 0 329.9946594238281 199.9866485595703" xmlns="http://www.w3.org/2000/svg"><g><g><g><g><g><line x1="58" y1="177.987" x2="53" y2="177.987" style="visibility: inherit;" fill="rgb(0, 0, 0)" stroke="rgb(204, 204, 204)" stroke-width="1px"></line><line x1="58" y1="165.27364285714285" x2="53" y2="165.27364285714285" style="visibility: inherit;" fill="rgb(0, 0, 0)" stroke="rgb(204, 204, 204)" stroke-width="1px"></line><line x1="58" y1="152.5602857142857" x2="53" y2="152.5602857142857" style="visibility: inherit;" fill="rgb(0, 0, 0)" stroke="rgb(204, 204, 204)" stroke-width="1px"></line><line x1="58" y1="139.84692857142855" x2="53" y2="139.84692857142855" style="visibility: inherit;" fill="rgb(0, 0, 0)" stroke="rgb(204, 204, 204)" stroke-width="1px"></line><line x1="58" y1="127.13357142857141" x2="53" y2="127.13357142857141" style="visibility: inherit;" fill="rgb(0, 0, 0)" stroke="rgb(204, 204, 204)" stroke-width="1px"></line><line x1="58" y1="114.42021428571428" x2="53" y2="114.42021428571428" style="visibility: inherit;" fill="rgb(0, 0, 0)" stroke="rgb(204, 204, 204)" stroke-width="1px"></line><line x1="58" y1="101.70685714285712" x2="53" y2="101.70685714285712" style="visibility: inherit;" fill="rgb(0, 0, 0)" stroke="rgb(204, 204, 204)" stroke-width="1px"></line><line x1="58" y1="88.9935" x2="53" y2="88.9935" style="visibility: inherit;" fill="rgb(0, 0, 0)" stroke="rgb(204, 204, 204)" stroke-width="1px"></line><line x1="58" y1="76.28014285714283" x2="53" y2="76.28014285714283" style="visibility: inherit;" fill="rgb(0, 0, 0)" stroke="rgb(204, 204, 204)" stroke-width="1px"></line><line x1="58" y1="63.56678571428573" x2="53" y2="63.56678571428573" style="visibility: inherit;" fill="rgb(0, 0, 0)" stroke="rgb(204, 204, 204)" stroke-width="1px"></line><line x1="58" y1="50.853428571428566" x2="53" y2="50.853428571428566" style="visibility: inherit;" fill="rgb(0, 0, 0)" stroke="rgb(204, 204, 204)" stroke-width="1px"></line><line x1="58" y1="38.14007142857142" x2="53" y2="38.14007142857142" style="visibility: inherit;" fill="rgb(0, 0, 0)" stroke="rgb(204, 204, 204)" stroke-width="1px"></line><line x1="58" y1="25.42671428571427" x2="53" y2="25.42671428571427" style="visibility: inherit;" fill="rgb(0, 0, 0)" stroke="rgb(204, 204, 204)" stroke-width="1px"></line><line x1="58" y1="12.71335714285712" x2="53" y2="12.71335714285712" style="visibility: inherit;" fill="rgb(0, 0, 0)" stroke="rgb(204, 204, 204)" stroke-width="1px"></line><line x1="58" y1="0" x2="53" y2="0" style="visibility: inherit;" fill="rgb(0, 0, 0)" stroke="rgb(204, 204, 204)" stroke-width="1px"></line></g><g transform="translate(48, 0)"><text x="0" y="177.987" dx="0em" dy="0.3em" style="text-anchor: end; visibility: hidden; font-family: &quot;Helvetica Neue&quot;, sans-serif; font-size: 12px; font-weight: 200;" fill="rgb(50, 49, 63)" stroke="none" stroke-width="1px">-0.2</text><text x="0" y="165.27364285714285" dx="0em" dy="0.3em" style="text-anchor: end; visibility: inherit; font-family: &quot;Helvetica Neue&quot;, sans-serif; font-size: 12px; font-weight: 200;" fill="rgb(50, 49, 63)" stroke="none" stroke-width="1px">-0.1</text><text x="0" y="152.5602857142857" dx="0em" dy="0.3em" style="text-anchor: end; visibility: hidden; font-family: &quot;Helvetica Neue&quot;, sans-serif; font-size: 12px; font-weight: 200;" fill="rgb(50, 49, 63)" stroke="none" stroke-width="1px">0</text><text x="0" y="139.84692857142855" dx="0em" dy="0.3em" style="text-anchor: end; visibility: inherit; font-family: &quot;Helvetica Neue&quot;, sans-serif; font-size: 12px; font-weight: 200;" fill="rgb(50, 49, 63)" stroke="none" stroke-width="1px">0.1</text><text x="0" y="127.13357142857141" dx="0em" dy="0.3em" style="text-anchor: end; visibility: hidden; font-family: &quot;Helvetica Neue&quot;, sans-serif; font-size: 12px; font-weight: 200;" fill="rgb(50, 49, 63)" stroke="none" stroke-width="1px">0.2</text><text x="0" y="114.42021428571428" dx="0em" dy="0.3em" style="text-anchor: end; visibility: inherit; font-family: &quot;Helvetica Neue&quot;, sans-serif; font-size: 12px; font-weight: 200;" fill="rgb(50, 49, 63)" stroke="none" stroke-width="1px">0.3</text><text x="0" y="101.70685714285712" dx="0em" dy="0.3em" style="text-anchor: end; visibility: hidden; font-family: &quot;Helvetica Neue&quot;, sans-serif; font-size: 12px; font-weight: 200;" fill="rgb(50, 49, 63)" stroke="none" stroke-width="1px">0.4</text><text x="0" y="88.9935" dx="0em" dy="0.3em" style="text-anchor: end; visibility: inherit; font-family: &quot;Helvetica Neue&quot;, sans-serif; font-size: 12px; font-weight: 200;" fill="rgb(50, 49, 63)" stroke="none" stroke-width="1px">0.5</text><text x="0" y="76.28014285714283" dx="0em" dy="0.3em" style="text-anchor: end; visibility: hidden; font-family: &quot;Helvetica Neue&quot;, sans-serif; font-size: 12px; font-weight: 200;" fill="rgb(50, 49, 63)" stroke="none" stroke-width="1px">0.6</text><text x="0" y="63.56678571428573" dx="0em" dy="0.3em" style="text-anchor: end; visibility: inherit; font-family: &quot;Helvetica Neue&quot;, sans-serif; font-size: 12px; font-weight: 200;" fill="rgb(50, 49, 63)" stroke="none" stroke-width="1px">0.7</text><text x="0" y="50.853428571428566" dx="0em" dy="0.3em" style="text-anchor: end; visibility: hidden; font-family: &quot;Helvetica Neue&quot;, sans-serif; font-size: 12px; font-weight: 200;" fill="rgb(50, 49, 63)" stroke="none" stroke-width="1px">0.8</text><text x="0" y="38.14007142857142" dx="0em" dy="0.3em" style="text-anchor: end; visibility: inherit; font-family: &quot;Helvetica Neue&quot;, sans-serif; font-size: 12px; font-weight: 200;" fill="rgb(50, 49, 63)" stroke="none" stroke-width="1px">0.9</text><text x="0" y="25.42671428571427" dx="0em" dy="0.3em" style="text-anchor: end; visibility: hidden; font-family: &quot;Helvetica Neue&quot;, sans-serif; font-size: 12px; font-weight: 200;" fill="rgb(50, 49, 63)" stroke="none" stroke-width="1px">1</text><text x="0" y="12.71335714285712" dx="0em" dy="0.3em" style="text-anchor: end; visibility: inherit; font-family: &quot;Helvetica Neue&quot;, sans-serif; font-size: 12px; font-weight: 200;" fill="rgb(50, 49, 63)" stroke="none" stroke-width="1px">1.1</text><text x="0" y="0" dx="0em" dy="0.3em" style="text-anchor: end; visibility: hidden; font-family: &quot;Helvetica Neue&quot;, sans-serif; font-size: 12px; font-weight: 200;" fill="rgb(50, 49, 63)" stroke="none" stroke-width="1px">1.2</text></g><line x1="58" y1="0" x2="58" y2="177.987" fill="rgb(0, 0, 0)" stroke="rgb(204, 204, 204)" stroke-width="1px"></line></g></g><g transform="translate(58, 0)" clip-path="url(#clip_0)"><clipPath id="clip_0"><rect width="271" height="177"></rect></clipPath><g><g><g><line x1="0" y1="0" x2="0" y2="177.987" fill="rgb(0, 0, 0)" stroke="rgb(60, 60, 60)" stroke-width="1px" opacity="0.25"></line><line x1="24.72681818181818" y1="0" x2="24.72681818181818" y2="177.987" fill="rgb(0, 0, 0)" stroke="rgb(60, 60, 60)" stroke-width="1px" opacity="0.25"></line><line x1="49.45363636363636" y1="0" x2="49.45363636363636" y2="177.987" fill="rgb(0, 0, 0)" stroke="rgb(60, 60, 60)" stroke-width="1px" opacity="0.25"></line><line x1="74.18045454545454" y1="0" x2="74.18045454545454" y2="177.987" fill="rgb(0, 0, 0)" stroke="rgb(60, 60, 60)" stroke-width="1px" opacity="0.25"></line><line x1="98.90727272727273" y1="0" x2="98.90727272727273" y2="177.987" fill="rgb(0, 0, 0)" stroke="rgb(60, 60, 60)" stroke-width="1px" opacity="0.25"></line><line x1="123.6340909090909" y1="0" x2="123.6340909090909" y2="177.987" fill="rgb(0, 0, 0)" stroke="rgb(60, 60, 60)" stroke-width="1px" opacity="0.25"></line><line x1="148.36090909090908" y1="0" x2="148.36090909090908" y2="177.987" fill="rgb(0, 0, 0)" stroke="rgb(60, 60, 60)" stroke-width="1px" opacity="0.25"></line><line x1="173.08772727272728" y1="0" x2="173.08772727272728" y2="177.987" fill="rgb(0, 0, 0)" stroke="rgb(60, 60, 60)" stroke-width="1px" opacity="0.25"></line><line x1="197.81454545454545" y1="0" x2="197.81454545454545" y2="177.987" fill="rgb(0, 0, 0)" stroke="rgb(60, 60, 60)" stroke-width="1px" opacity="0.25"></line><line x1="222.54136363636366" y1="0" x2="222.54136363636366" y2="177.987" fill="rgb(0, 0, 0)" stroke="rgb(60, 60, 60)" stroke-width="1px" opacity="0.25"></line><line x1="247.2681818181818" y1="0" x2="247.2681818181818" y2="177.987" fill="rgb(0, 0, 0)" stroke="rgb(60, 60, 60)" stroke-width="1px" opacity="0.25"></line><line x1="271.995" y1="0" x2="271.995" y2="177.987" fill="rgb(0, 0, 0)" stroke="rgb(60, 60, 60)" stroke-width="1px" opacity="0.25"></line></g><g><line x1="0" y1="177.987" x2="271.995" y2="177.987" fill="rgb(0, 0, 0)" stroke="rgb(60, 60, 60)" stroke-width="1px" opacity="0.25"></line><line x1="0" y1="165.27364285714285" x2="271.995" y2="165.27364285714285" fill="rgb(0, 0, 0)" stroke="rgb(60, 60, 60)" stroke-width="1px" opacity="0.25"></line><line x1="0" y1="152.5602857142857" x2="271.995" y2="152.5602857142857" fill="rgb(0, 0, 0)" stroke="rgb(60, 60, 60)" stroke-width="1px" opacity="0.25"></line><line x1="0" y1="139.84692857142855" x2="271.995" y2="139.84692857142855" fill="rgb(0, 0, 0)" stroke="rgb(60, 60, 60)" stroke-width="1px" opacity="0.25"></line><line x1="0" y1="127.13357142857141" x2="271.995" y2="127.13357142857141" fill="rgb(0, 0, 0)" stroke="rgb(60, 60, 60)" stroke-width="1px" opacity="0.25"></line><line x1="0" y1="114.42021428571428" x2="271.995" y2="114.42021428571428" fill="rgb(0, 0, 0)" stroke="rgb(60, 60, 60)" stroke-width="1px" opacity="0.25"></line><line x1="0" y1="101.70685714285712" x2="271.995" y2="101.70685714285712" fill="rgb(0, 0, 0)" stroke="rgb(60, 60, 60)" stroke-width="1px" opacity="0.25"></line><line x1="0" y1="88.9935" x2="271.995" y2="88.9935" fill="rgb(0, 0, 0)" stroke="rgb(60, 60, 60)" stroke-width="1px" opacity="0.25"></line><line x1="0" y1="76.28014285714283" x2="271.995" y2="76.28014285714283" fill="rgb(0, 0, 0)" stroke="rgb(60, 60, 60)" stroke-width="1px" opacity="0.25"></line><line x1="0" y1="63.56678571428573" x2="271.995" y2="63.56678571428573" fill="rgb(0, 0, 0)" stroke="rgb(60, 60, 60)" stroke-width="1px" opacity="0.25"></line><line x1="0" y1="50.853428571428566" x2="271.995" y2="50.853428571428566" fill="rgb(0, 0, 0)" stroke="rgb(60, 60, 60)" stroke-width="1px" opacity="0.25"></line><line x1="0" y1="38.14007142857142" x2="271.995" y2="38.14007142857142" fill="rgb(0, 0, 0)" stroke="rgb(60, 60, 60)" stroke-width="1px" opacity="0.25"></line><line x1="0" y1="25.42671428571427" x2="271.995" y2="25.42671428571427" fill="rgb(0, 0, 0)" stroke="rgb(60, 60, 60)" stroke-width="1px" opacity="0.25"></line><line x1="0" y1="12.71335714285712" x2="271.995" y2="12.71335714285712" fill="rgb(0, 0, 0)" stroke="rgb(60, 60, 60)" stroke-width="1px" opacity="0.25"></line><line x1="0" y1="0" x2="271.995" y2="0" fill="rgb(0, 0, 0)" stroke="rgb(60, 60, 60)" stroke-width="1px" opacity="0.25"></line></g></g></g><g><g><line x1="0" y1="152.5602857142857" x2="271.995" y2="152.5602857142857" fill="rgb(0, 0, 0)" stroke="rgb(153, 153, 153)" stroke-width="1.5px"></line></g></g><g><g><line x1="0" y1="0" x2="0" y2="177.987" fill="rgb(0, 0, 0)" stroke="rgb(153, 153, 153)" stroke-width="1.5px"></line></g></g><g><g><g><g><g><path stroke="rgb(0, 119, 187)" stroke-width="2px" d="M6.181704545454545,10.557771803242815L12.36340909090909,11.614190921287275L18.545113636363634,13.138889702759144L24.72681818181818,16.676579043033456L30.908522727272725,19.886382895022365L37.09022727272727,23.842107694274347L43.27193181818182,28.26604242268175L49.45363636363636,32.480480332645726L55.635340909090914,36.39469216167353L61.81704545454545,39.629758744923606L67.99875,42.642750595982506L74.18045454545454,45.34160635808877L80.3621590909091,48.07288781740948L86.54386363636364,50.65042460949027L92.72556818181818,52.75169345152028L98.90727272727273,54.86540986465211L105.08897727272728,56.60101340140223L111.27068181818183,58.32442506967767L117.45238636363636,59.84645077762866L123.6340909090909,61.31478440382571L129.81579545454545,62.86024178569859L135.9975,64.37660958141598L142.17920454545455,65.79973492390408L148.36090909090908,67.17759907217312L154.54261363636365,68.4874742102636L160.7243181818182,69.83671364558951L166.90602272727273,71.1077244836793L173.08772727272728,72.33121263158506L179.2694318181818,73.52544279145518L185.45113636363635,74.63806227989258L191.63284090909093,75.61780279850143L197.81454545454545,76.5876067862397L203.99625,77.4948795207453L210.17795454545455,78.35231396441608L216.35965909090908,79.2204385182086L222.54136363636366,80.0734543730081L228.7230681818182,80.8930781206755L234.90477272727273,81.71083814379408L241.08647727272728,82.51701287750039L247.2681818181818,83.29207539129744L247.2681818181818,83.88731514599327" style="fill: none;" fill="none"></path></g><g><path stroke="rgb(204, 51, 17)" stroke-width="2px" d="M6.181704545454545,7.910166098662785L12.36340909090909,11.581980951912414L18.545113636363634,16.558556841097214L24.72681818181818,22.93758857804795L30.908522727272725,28.510972946330668L37.09022727272727,33.94087010603812L43.27193181818182,38.72822462477532L49.45363636363636,43.113790542249546L55.635340909090914,46.79769714108727L61.81704545454545,50.2021633498759L67.99875,53.175251945640056L74.18045454545454,55.85521795856897L80.3621590909091,58.303964317087605L86.54386363636364,60.587885014879504L92.72556818181818,62.71301076107868L98.90727272727273,64.81585277909659L105.08897727272728,66.75396825715458L111.27068181818183,68.48058009053617L117.45238636363636,70.07939531673266L123.6340909090909,71.59785592121975L129.81579545454545,72.80880259989799L135.9975,73.90462034588894L142.17920454545455,75.03424843045501L148.36090909090908,76.13807588401453L154.54261363636365,77.19132404233562L160.7243181818182,78.20197888001954L166.90602272727273,79.1443480071794L173.08772727272728,79.94684772095373L179.2694318181818,80.69190373691313L185.45113636363635,81.44301120633189L191.63284090909093,82.21550739494636L197.81454545454545,82.95628326318015L203.99625,83.69764876533459L210.17795454545455,84.30917616440985L216.35965909090908,84.8610060471793L222.54136363636366,85.43392261198042L228.7230681818182,86.01279094816022L234.90477272727273,86.61239116916224L241.08647727272728,87.23062478544891L247.2681818181818,87.83604350899768L247.2681818181818,88.30099863981411" style="fill: none;" fill="none"></path></g><g><path stroke="rgb(51, 187, 238)" stroke-width="2px" d="M6.181704545454545,52.73865792897766L12.36340909090909,55.6484973085301L18.545113636363634,55.69143552060808L24.72681818181818,55.56877034065836L30.908522727272725,55.211902102778836L37.09022727272727,54.87525938543945L43.27193181818182,54.506943506839946L49.45363636363636,55.16603911692435L55.635340909090914,56.16038694480983L61.81704545454545,57.44632261801898L67.99875,58.541168172169364L74.18045454545454,60.144348654699L80.3621590909091,61.66288125450224L86.54386363636364,63.15458509261926L92.72556818181818,64.37229079486515L98.90727272727273,65.53868405925203L105.08897727272728,66.78090884504476L111.27068181818183,67.87865323116414L117.45238636363636,68.72081688891782L123.6340909090909,69.64229466078727L129.81579545454545,70.429605237375L135.9975,71.26521493149053L142.17920454545455,71.98922886701999L148.36090909090908,72.48606674168879L154.54261363636365,73.0002861313288L160.7243181818182,73.42556567045048L166.90602272727273,73.76767451589609L173.08772727272728,74.00505793020595L179.2694318181818,74.38608189011968L185.45113636363635,74.80321899161906L191.63284090909093,75.19276012955262L197.81454545454545,75.78146774909625L203.99625,76.3810038053169L210.17795454545455,76.937165369527L216.35965909090908,77.32193617460926L222.54136363636366,77.73990593607945L228.7230681818182,78.02569421178026L234.90477272727273,78.40178407748745L241.08647727272728,78.77818690996845L247.2681818181818,79.16456549634746L247.2681818181818,79.4613001350145" style="fill: none;" fill="none"></path></g><g><path stroke="rgb(238, 51, 119)" stroke-width="2px" d="M6.181704545454545,3.0610720678056964L12.36340909090909,5.287482281068776L18.545113636363634,10.730196054864592L24.72681818181818,17.182668236043014L30.908522727272725,22.665719405730044L37.09022727272727,27.376721778032078L43.27193181818182,31.581392049158893L49.45363636363636,35.41712516037239L55.635340909090914,38.934799672951726L61.81704545454545,42.169671311229365L67.99875,45.114316554121615L74.18045454545454,47.7386899951521L80.3621590909091,50.09432019208458L86.54386363636364,52.20706386097186L92.72556818181818,54.22301881462167L98.90727272727273,56.104236353257065L105.08897727272728,57.836489934536544L111.27068181818183,59.537956287694556L117.45238636363636,61.19368371829586L123.6340909090909,62.81111874552724L129.81579545454545,64.33264140773623L135.9975,65.79227271003445L142.17920454545455,67.12944716627169L148.36090909090908,68.49616698235708L154.54261363636365,69.77877972231711L160.7243181818182,70.98968657919816L166.90602272727273,72.14550546693637L173.08772727272728,73.22030539702857L179.2694318181818,74.19189168913555L185.45113636363635,75.13474579154253L191.63284090909093,75.98415293432777L197.81454545454545,76.8025705359912L203.99625,77.57336228723977L210.17795454545455,78.33395172517604L216.35965909090908,79.08997493095282L222.54136363636366,79.77282750995033L228.7230681818182,80.4395587426541L234.90477272727273,81.08088096482905L241.08647727272728,81.72065784373342L247.2681818181818,82.35502829275917L247.2681818181818,82.84221804035062" style="fill: none;" fill="none"></path></g><g><path stroke="rgb(255, 112, 67)" stroke-width="2px" d="M6.181704545454545,10.280016904745793L12.36340909090909,11.182849403797832L18.545113636363634,13.566945080283858L24.72681818181818,18.2602339816994L30.908522727272725,23.521810465561003L37.09022727272727,28.67631829652538L43.27193181818182,33.57762464078212L49.45363636363636,37.870972125376L55.635340909090914,41.1937368452011L61.81704545454545,44.288429018848404L67.99875,47.329483474548965L74.18045454545454,50.12270932880479L80.3621590909091,52.75401200250067L86.54386363636364,55.24119407626641L92.72556818181818,57.421055174873345L98.90727272727273,59.48787535551392L105.08897727272728,61.31888695118005L111.27068181818183,63.10511376290141L117.45238636363636,64.84507766173515L123.6340909090909,66.22172977246221L129.81579545454545,67.63597161384088L135.9975,68.9612403029549L142.17920454545455,70.20633122284003L148.36090909090908,71.46042863625037L154.54261363636365,72.61007114865735L160.7243181818182,73.73386729785335L166.90602272727273,74.82140619613153L173.08772727272728,75.88900610409262L179.2694318181818,76.87506824640882L185.45113636363635,77.7917776343603L191.63284090909093,78.68454497755164L197.81454545454545,79.54288922844017L203.99625,80.33967980409386L210.17795454545455,81.10353286199293L216.35965909090908,81.83600393984091L222.54136363636366,82.55410877160006L228.7230681818182,83.27829154064014L234.90477272727273,83.94007798655952L241.08647727272728,84.57049878751528L247.2681818181818,85.2068452740184L247.2681818181818,85.69555259734386" style="fill: none;" fill="none"></path></g></g></g></g><g opacity="0.2"><g><g><g><path stroke="rgb(0, 119, 187)" stroke-width="2px" d="M6.181704545454545,10.557771803242815L12.36340909090909,12.425520803945403L18.545113636363634,15.20916230101244L24.72681818181818,23.082658145274422L30.908522727272725,26.815390267431724L37.09022727272727,33.438231293320655L43.27193181818182,39.905758727252476L49.45363636363636,44.233147309950425L55.635340909090914,47.78386184434379L61.81704545454545,49.34352220783913L67.99875,51.90478701337746L74.18045454545454,53.785941056243004L80.3621590909091,56.733678759098055L86.54386363636364,58.9070460500632L92.72556818181818,59.534870328324175L98.90727272727273,61.72908401329177L105.08897727272728,62.26230006577286L111.27068181818183,63.965331485075595L117.45238636363636,64.84134985376257L123.6340909090909,66.14322269360507L129.81579545454545,67.95016781736273L135.9975,69.37666435613802L142.17920454545455,70.496610541233L148.36090909090908,71.72827551468781L154.54261363636365,72.8159253234693L160.7243181818182,74.29708018283334L166.90602272727273,75.31080902705874L173.08772727272728,76.37812772893054L179.2694318181818,77.47631818985938L185.45113636363635,78.31947185088056L191.63284090909093,78.8599019226602L197.81454545454545,79.79709547810894L203.99625,80.49762070295641L210.17795454545455,81.19024991088253L216.35965909090908,82.09386645003727L222.54136363636366,82.89695653959683L228.7230681818182,83.60611282324791L234.90477272727273,84.41775061634608L241.08647727272728,85.18561173981428L247.2681818181818,85.85771281929526L247.2681818181818,85.85771281929526" style="fill: none;" fill="none"></path></g><g><path stroke="rgb(204, 51, 17)" stroke-width="2px" d="M6.181704545454545,7.910166098662785L12.36340909090909,14.401934759208132L18.545113636363634,23.315871021253713L24.72681818181818,34.488795586926585L30.908522727272725,40.542244375322554L37.09022727272727,47.11316264886517L43.27193181818182,51.32412665960618L49.45363636363636,55.34367667089188L55.635340909090914,57.51674842955384L61.81704545454545,60.42457411597455L67.99875,62.31462443894148L74.18045454545454,64.24044932609796L80.3621590909091,66.06884706396717L86.54386363636364,67.90396626729625L92.72556818181818,69.57320091551541L98.90727272727273,71.64421551880666L105.08897727272728,73.07581946200132L111.27068181818183,74.13196098061118L117.45238636363636,75.32629795084681L123.6340909090909,76.59113074202197L129.81579545454545,76.79702582433393L135.9975,77.51795793360472L142.17920454545455,78.76246719562155L148.36090909090908,79.78369043594599L154.54261363636365,80.67175742930173L160.7243181818182,81.54303970338616L166.90602272727273,82.2606527575595L173.08772727272728,82.60126510362115L179.2694318181818,83.15677490061522L185.45113636363635,83.92825818923542L191.63284090909093,84.77180589332751L197.81454545454545,85.407821720813L203.99625,86.15129764039176L210.17795454545455,86.33320913963658L216.35965909090908,86.68752206016438L222.54136363636366,87.33028966411521L228.7230681818182,87.92890171086788L234.90477272727273,88.59716087040731L241.08647727272728,89.27710113367438L247.2681818181818,89.84012048227021L247.2681818181818,89.84012048227021" style="fill: none;" fill="none"></path></g><g><path stroke="rgb(51, 187, 238)" stroke-width="2px" d="M6.181704545454545,52.7386579289777L12.36340909090909,57.883253952026365L18.545113636363634,55.74973805548463L24.72681818181818,55.34664714942659L30.908522727272725,54.441530215501786L37.09022727272727,54.058603705823415L43.27193181818182,53.53787578759024L49.45363636363636,57.0040377722638L55.635340909090914,59.0536376502003L61.81704545454545,61.307533704910966L67.99875,61.9067595495241L74.18045454545454,65.16047169695581L80.3621590909091,66.47809110413277L86.54386363636364,67.93295874401501L92.72556818181818,68.30320767566135L98.90727272727273,69.32620410980496L105.08897727272728,70.83286568026033L111.27068181818183,71.47168527575049L117.45238636363636,71.48458260857207L123.6340909090909,72.67246333464554L129.81579545454545,73.02259333642039L135.9975,74.0205453023059L142.17920454545455,74.37876076478618L148.36090909090908,74.12697482021365L154.54261363636365,74.6995118245227L160.7243181818182,74.83147078677585L166.90602272727273,74.89898855142933L173.08772727272728,74.79024781935554L179.2694318181818,75.64662465650694L185.45113636363635,76.1834325631346L191.63284090909093,76.48180652309316L197.81454545454545,77.72974850647789L203.99625,78.36524904687064L210.17795454545455,78.77794854165825L216.35965909090908,78.59549902206659L222.54136363636366,79.12339549309016L228.7230681818182,78.97168133303097L234.90477272727273,79.64669984678712L241.08647727272728,80.02415521998066L247.2681818181818,80.4435686024768L247.2681818181818,80.4435686024768" style="fill: none;" fill="none"></path></g><g><path stroke="rgb(238, 51, 119)" stroke-width="2px" d="M6.181704545454545,3.0610720678056964L12.36340909090909,6.997365324854854L18.545113636363634,18.120443442055148L24.72681818181818,28.866861849955143L30.908522727272725,34.501988452051364L37.09022727272727,38.805060030622116L43.27193181818182,42.644206515184464L49.45363636363636,46.113710288209575L55.635340909090914,49.17016598988431L61.81704545454545,51.88284942317861L67.99875,54.16625324170077L74.18045454545454,55.949980135279034L80.3621590909091,57.56393508729765L86.54386363636364,58.97481388051169L92.72556818181818,60.73079104859488L98.90727272727273,62.212938593387605L105.08897727272728,63.48684953069687L111.27068181818183,65.1070333943367L117.45238636363636,66.62735765050138L123.6340909090909,68.12985903545788L129.81579545454545,69.34373902646134L135.9975,70.60524518478769L142.17920454545455,71.54265091727461L148.36090909090908,73.0100370024102L154.54261363636365,74.01714289194345L160.7243181818182,74.99274806905645L166.90602272727273,75.96766367079529L173.08772727272728,76.77540649969238L179.2694318181818,77.40619367873668L185.45113636363635,78.25443958867449L191.63284090909093,78.7949605934705L197.81454545454545,79.51105809737103L203.99625,80.12440129277536L210.17795454545455,80.85135013662916L216.35965909090908,81.59235570926326L222.54136363636366,82.03308530634641L228.7230681818182,82.64650427926439L234.90477272727273,83.20375695907218L241.08647727272728,83.83844668006897L247.2681818181818,84.45494222004073L247.2681818181818,84.45494222004073" style="fill: none;" fill="none"></path></g><g><path stroke="rgb(255, 112, 67)" stroke-width="2px" d="M6.181704545454545,10.280016904745793L12.36340909090909,11.876224763069843L18.545113636363634,16.804127408112805L24.72681818181818,26.758882975510176L30.908522727272725,34.87998184559174L37.09022727272727,41.18054868371996L43.27193181818182,46.47334279019492L49.45363636363636,49.843691686621725L55.635340909090914,50.86197475941691L61.81704545454545,53.58069766054834L67.99875,56.677785265037L74.18045454545454,58.86231458376133L80.3621590909091,61.097773969403335L86.54386363636364,63.20838232357161L92.72556818181818,64.4579383679969L98.90727272727273,66.19926774269342L105.08897727272728,67.29138084702832L111.27068181818183,68.9516207043784L117.45238636363636,70.55519413702828L123.6340909090909,70.74868444035735L129.81579545454545,72.29374247697422L135.9975,73.33116694971493L142.17920454545455,74.31562294042111L148.36090909090908,75.60234027753557L154.54261363636365,76.40903737674441L160.7243181818182,77.4489549296839L166.90602272727273,78.41777044157472L173.08772727272728,79.42029179153272L179.2694318181818,80.1372607368401L185.45113636363635,80.82496440637964L191.63284090909093,81.63883763613019L197.81454545454545,82.38351084042448L203.99625,82.97676541696276L210.17795454545455,83.63173320060969L216.35965909090908,84.26042892027753L222.54136363636366,84.93105233824252L228.7230681818182,85.67540727697951L234.90477272727273,86.13069373443297L241.08647727272728,86.65731714322737L247.2681818181818,87.31330034555707L247.2681818181818,87.31330034555707" style="fill: none;" fill="none"></path></g></g></g></g></g></g><g transform="translate(58, 177)" clip-path="url(#clip_1)"><clipPath id="clip_1"><rect width="271" height="21"></rect></clipPath><g><g><line x1="0" y1="0" x2="0" y2="5" style="visibility: inherit;" fill="rgb(0, 0, 0)" stroke="rgb(204, 204, 204)" stroke-width="1px"></line><line x1="24.72681818181818" y1="0" x2="24.72681818181818" y2="5" style="visibility: inherit;" fill="rgb(0, 0, 0)" stroke="rgb(204, 204, 204)" stroke-width="1px"></line><line x1="49.45363636363636" y1="0" x2="49.45363636363636" y2="5" style="visibility: inherit;" fill="rgb(0, 0, 0)" stroke="rgb(204, 204, 204)" stroke-width="1px"></line><line x1="74.18045454545454" y1="0" x2="74.18045454545454" y2="5" style="visibility: inherit;" fill="rgb(0, 0, 0)" stroke="rgb(204, 204, 204)" stroke-width="1px"></line><line x1="98.90727272727273" y1="0" x2="98.90727272727273" y2="5" style="visibility: inherit;" fill="rgb(0, 0, 0)" stroke="rgb(204, 204, 204)" stroke-width="1px"></line><line x1="123.6340909090909" y1="0" x2="123.6340909090909" y2="5" style="visibility: inherit;" fill="rgb(0, 0, 0)" stroke="rgb(204, 204, 204)" stroke-width="1px"></line><line x1="148.36090909090908" y1="0" x2="148.36090909090908" y2="5" style="visibility: inherit;" fill="rgb(0, 0, 0)" stroke="rgb(204, 204, 204)" stroke-width="1px"></line><line x1="173.08772727272728" y1="0" x2="173.08772727272728" y2="5" style="visibility: inherit;" fill="rgb(0, 0, 0)" stroke="rgb(204, 204, 204)" stroke-width="1px"></line><line x1="197.81454545454545" y1="0" x2="197.81454545454545" y2="5" style="visibility: inherit;" fill="rgb(0, 0, 0)" stroke="rgb(204, 204, 204)" stroke-width="1px"></line><line x1="222.54136363636366" y1="0" x2="222.54136363636366" y2="5" style="visibility: inherit;" fill="rgb(0, 0, 0)" stroke="rgb(204, 204, 204)" stroke-width="1px"></line><line x1="247.2681818181818" y1="0" x2="247.2681818181818" y2="5" style="visibility: inherit;" fill="rgb(0, 0, 0)" stroke="rgb(204, 204, 204)" stroke-width="1px"></line><line x1="271.995" y1="0" x2="271.995" y2="5" style="visibility: inherit;" fill="rgb(0, 0, 0)" stroke="rgb(204, 204, 204)" stroke-width="1px"></line></g><g transform="translate(0, 8)"><text x="0" y="0" dx="0em" dy="0.95em" style="text-anchor: middle; visibility: hidden; font-family: &quot;Helvetica Neue&quot;, sans-serif; font-size: 12px; font-weight: 200;" fill="rgb(50, 49, 63)" stroke="none" stroke-width="1px">0</text><text x="24.72681818181818" y="0" dx="0em" dy="0.95em" style="text-anchor: middle; visibility: inherit; font-family: &quot;Helvetica Neue&quot;, sans-serif; font-size: 12px; font-weight: 200;" fill="rgb(50, 49, 63)" stroke="none" stroke-width="1px">200</text><text x="49.45363636363636" y="0" dx="0em" dy="0.95em" style="text-anchor: middle; visibility: hidden; font-family: &quot;Helvetica Neue&quot;, sans-serif; font-size: 12px; font-weight: 200;" fill="rgb(50, 49, 63)" stroke="none" stroke-width="1px">400</text><text x="74.18045454545454" y="0" dx="0em" dy="0.95em" style="text-anchor: middle; visibility: inherit; font-family: &quot;Helvetica Neue&quot;, sans-serif; font-size: 12px; font-weight: 200;" fill="rgb(50, 49, 63)" stroke="none" stroke-width="1px">600</text><text x="98.90727272727273" y="0" dx="0em" dy="0.95em" style="text-anchor: middle; visibility: hidden; font-family: &quot;Helvetica Neue&quot;, sans-serif; font-size: 12px; font-weight: 200;" fill="rgb(50, 49, 63)" stroke="none" stroke-width="1px">800</text><text x="123.6340909090909" y="0" dx="0em" dy="0.95em" style="text-anchor: middle; visibility: inherit; font-family: &quot;Helvetica Neue&quot;, sans-serif; font-size: 12px; font-weight: 200;" fill="rgb(50, 49, 63)" stroke="none" stroke-width="1px">1k</text><text x="148.36090909090908" y="0" dx="0em" dy="0.95em" style="text-anchor: middle; visibility: hidden; font-family: &quot;Helvetica Neue&quot;, sans-serif; font-size: 12px; font-weight: 200;" fill="rgb(50, 49, 63)" stroke="none" stroke-width="1px">1.2k</text><text x="173.08772727272728" y="0" dx="0em" dy="0.95em" style="text-anchor: middle; visibility: inherit; font-family: &quot;Helvetica Neue&quot;, sans-serif; font-size: 12px; font-weight: 200;" fill="rgb(50, 49, 63)" stroke="none" stroke-width="1px">1.4k</text><text x="197.81454545454545" y="0" dx="0em" dy="0.95em" style="text-anchor: middle; visibility: hidden; font-family: &quot;Helvetica Neue&quot;, sans-serif; font-size: 12px; font-weight: 200;" fill="rgb(50, 49, 63)" stroke="none" stroke-width="1px">1.6k</text><text x="222.54136363636366" y="0" dx="0em" dy="0.95em" style="text-anchor: middle; visibility: inherit; font-family: &quot;Helvetica Neue&quot;, sans-serif; font-size: 12px; font-weight: 200;" fill="rgb(50, 49, 63)" stroke="none" stroke-width="1px">1.8k</text><text x="247.2681818181818" y="0" dx="0em" dy="0.95em" style="text-anchor: middle; visibility: hidden; font-family: &quot;Helvetica Neue&quot;, sans-serif; font-size: 12px; font-weight: 200;" fill="rgb(50, 49, 63)" stroke="none" stroke-width="1px">2k</text><text x="271.995" y="0" dx="0em" dy="0.95em" style="text-anchor: middle; visibility: hidden; font-family: &quot;Helvetica Neue&quot;, sans-serif; font-size: 12px; font-weight: 200;" fill="rgb(50, 49, 63)" stroke="none" stroke-width="1px">2.2k</text></g><line x1="0" y1="0" x2="271.995" y2="0" fill="rgb(0, 0, 0)" stroke="rgb(204, 204, 204)" stroke-width="1px"></line></g></g></g></g></svg>