<svg viewBox="0 0 1161.431640625 399.9866638183594" xmlns="http://www.w3.org/2000/svg"><g><g><g><g><g><line x1="58" y1="377.987" x2="53" y2="377.987" style="visibility: inherit;" fill="rgb(0, 0, 0)" stroke="rgb(204, 204, 204)" stroke-width="1px"></line><line x1="58" y1="350.9879285714286" x2="53" y2="350.9879285714286" style="visibility: inherit;" fill="rgb(0, 0, 0)" stroke="rgb(204, 204, 204)" stroke-width="1px"></line><line x1="58" y1="323.98885714285717" x2="53" y2="323.98885714285717" style="visibility: inherit;" fill="rgb(0, 0, 0)" stroke="rgb(204, 204, 204)" stroke-width="1px"></line><line x1="58" y1="296.98978571428574" x2="53" y2="296.98978571428574" style="visibility: inherit;" fill="rgb(0, 0, 0)" stroke="rgb(204, 204, 204)" stroke-width="1px"></line><line x1="58" y1="269.99071428571426" x2="53" y2="269.99071428571426" style="visibility: inherit;" fill="rgb(0, 0, 0)" stroke="rgb(204, 204, 204)" stroke-width="1px"></line><line x1="58" y1="242.99164285714286" x2="53" y2="242.99164285714286" style="visibility: inherit;" fill="rgb(0, 0, 0)" stroke="rgb(204, 204, 204)" stroke-width="1px"></line><line x1="58" y1="215.9925714285714" x2="53" y2="215.9925714285714" style="visibility: inherit;" fill="rgb(0, 0, 0)" stroke="rgb(204, 204, 204)" stroke-width="1px"></line><line x1="58" y1="188.9935" x2="53" y2="188.9935" style="visibility: inherit;" fill="rgb(0, 0, 0)" stroke="rgb(204, 204, 204)" stroke-width="1px"></line><line x1="58" y1="161.99442857142856" x2="53" y2="161.99442857142856" style="visibility: inherit;" fill="rgb(0, 0, 0)" stroke="rgb(204, 204, 204)" stroke-width="1px"></line><line x1="58" y1="134.9953571428572" x2="53" y2="134.9953571428572" style="visibility: inherit;" fill="rgb(0, 0, 0)" stroke="rgb(204, 204, 204)" stroke-width="1px"></line><line x1="58" y1="107.9962857142857" x2="53" y2="107.9962857142857" style="visibility: inherit;" fill="rgb(0, 0, 0)" stroke="rgb(204, 204, 204)" stroke-width="1px"></line><line x1="58" y1="80.99721428571428" x2="53" y2="80.99721428571428" style="visibility: inherit;" fill="rgb(0, 0, 0)" stroke="rgb(204, 204, 204)" stroke-width="1px"></line><line x1="58" y1="53.99814285714285" x2="53" y2="53.99814285714285" style="visibility: inherit;" fill="rgb(0, 0, 0)" stroke="rgb(204, 204, 204)" stroke-width="1px"></line><line x1="58" y1="26.99907142857137" x2="53" y2="26.99907142857137" style="visibility: inherit;" fill="rgb(0, 0, 0)" stroke="rgb(204, 204, 204)" stroke-width="1px"></line><line x1="58" y1="0" x2="53" y2="0" style="visibility: inherit;" fill="rgb(0, 0, 0)" stroke="rgb(204, 204, 204)" stroke-width="1px"></line></g><g transform="translate(48, 0)"><text x="0" y="377.987" dx="0em" dy="0.3em" style="text-anchor: end; visibility: hidden; font-family: &quot;Helvetica Neue&quot;, sans-serif; font-size: 12px; font-weight: 200;" fill="rgb(50, 49, 63)" stroke="none" stroke-width="1px">-0.2</text><text x="0" y="350.9879285714286" dx="0em" dy="0.3em" style="text-anchor: end; visibility: inherit; font-family: &quot;Helvetica Neue&quot;, sans-serif; font-size: 12px; font-weight: 200;" fill="rgb(50, 49, 63)" stroke="none" stroke-width="1px">-0.1</text><text x="0" y="323.98885714285717" dx="0em" dy="0.3em" style="text-anchor: end; visibility: inherit; font-family: &quot;Helvetica Neue&quot;, sans-serif; font-size: 12px; font-weight: 200;" fill="rgb(50, 49, 63)" stroke="none" stroke-width="1px">0</text><text x="0" y="296.98978571428574" dx="0em" dy="0.3em" style="text-anchor: end; visibility: inherit; font-family: &quot;Helvetica Neue&quot;, sans-serif; font-size: 12px; font-weight: 200;" fill="rgb(50, 49, 63)" stroke="none" stroke-width="1px">0.1</text><text x="0" y="269.99071428571426" dx="0em" dy="0.3em" style="text-anchor: end; visibility: inherit; font-family: &quot;Helvetica Neue&quot;, sans-serif; font-size: 12px; font-weight: 200;" fill="rgb(50, 49, 63)" stroke="none" stroke-width="1px">0.2</text><text x="0" y="242.99164285714286" dx="0em" dy="0.3em" style="text-anchor: end; visibility: inherit; font-family: &quot;Helvetica Neue&quot;, sans-serif; font-size: 12px; font-weight: 200;" fill="rgb(50, 49, 63)" stroke="none" stroke-width="1px">0.3</text><text x="0" y="215.9925714285714" dx="0em" dy="0.3em" style="text-anchor: end; visibility: inherit; font-family: &quot;Helvetica Neue&quot;, sans-serif; font-size: 12px; font-weight: 200;" fill="rgb(50, 49, 63)" stroke="none" stroke-width="1px">0.4</text><text x="0" y="188.9935" dx="0em" dy="0.3em" style="text-anchor: end; visibility: inherit; font-family: &quot;Helvetica Neue&quot;, sans-serif; font-size: 12px; font-weight: 200;" fill="rgb(50, 49, 63)" stroke="none" stroke-width="1px">0.5</text><text x="0" y="161.99442857142856" dx="0em" dy="0.3em" style="text-anchor: end; visibility: inherit; font-family: &quot;Helvetica Neue&quot;, sans-serif; font-size: 12px; font-weight: 200;" fill="rgb(50, 49, 63)" stroke="none" stroke-width="1px">0.6</text><text x="0" y="134.9953571428572" dx="0em" dy="0.3em" style="text-anchor: end; visibility: inherit; font-family: &quot;Helvetica Neue&quot;, sans-serif; font-size: 12px; font-weight: 200;" fill="rgb(50, 49, 63)" stroke="none" stroke-width="1px">0.7</text><text x="0" y="107.9962857142857" dx="0em" dy="0.3em" style="text-anchor: end; visibility: inherit; font-family: &quot;Helvetica Neue&quot;, sans-serif; font-size: 12px; font-weight: 200;" fill="rgb(50, 49, 63)" stroke="none" stroke-width="1px">0.8</text><text x="0" y="80.99721428571428" dx="0em" dy="0.3em" style="text-anchor: end; visibility: inherit; font-family: &quot;Helvetica Neue&quot;, sans-serif; font-size: 12px; font-weight: 200;" fill="rgb(50, 49, 63)" stroke="none" stroke-width="1px">0.9</text><text x="0" y="53.99814285714285" dx="0em" dy="0.3em" style="text-anchor: end; visibility: inherit; font-family: &quot;Helvetica Neue&quot;, sans-serif; font-size: 12px; font-weight: 200;" fill="rgb(50, 49, 63)" stroke="none" stroke-width="1px">1</text><text x="0" y="26.99907142857137" dx="0em" dy="0.3em" style="text-anchor: end; visibility: inherit; font-family: &quot;Helvetica Neue&quot;, sans-serif; font-size: 12px; font-weight: 200;" fill="rgb(50, 49, 63)" stroke="none" stroke-width="1px">1.1</text><text x="0" y="0" dx="0em" dy="0.3em" style="text-anchor: end; visibility: hidden; font-family: &quot;Helvetica Neue&quot;, sans-serif; font-size: 12px; font-weight: 200;" fill="rgb(50, 49, 63)" stroke="none" stroke-width="1px">1.2</text></g><line x1="58" y1="0" x2="58" y2="377.987" fill="rgb(0, 0, 0)" stroke="rgb(204, 204, 204)" stroke-width="1px"></line></g></g><g transform="translate(58, 0)" clip-path="url(#clip_0)"><clipPath id="clip_0"><rect width="1103" height="377"></rect></clipPath><g><g><g><line x1="0" y1="0" x2="0" y2="377.987" fill="rgb(0, 0, 0)" stroke="rgb(60, 60, 60)" stroke-width="1px" opacity="0.25"></line><line x1="100.3118181818182" y1="0" x2="100.3118181818182" y2="377.987" fill="rgb(0, 0, 0)" stroke="rgb(60, 60, 60)" stroke-width="1px" opacity="0.25"></line><line x1="200.6236363636364" y1="0" x2="200.6236363636364" y2="377.987" fill="rgb(0, 0, 0)" stroke="rgb(60, 60, 60)" stroke-width="1px" opacity="0.25"></line><line x1="300.93545454545455" y1="0" x2="300.93545454545455" y2="377.987" fill="rgb(0, 0, 0)" stroke="rgb(60, 60, 60)" stroke-width="1px" opacity="0.25"></line><line x1="401.2472727272728" y1="0" x2="401.2472727272728" y2="377.987" fill="rgb(0, 0, 0)" stroke="rgb(60, 60, 60)" stroke-width="1px" opacity="0.25"></line><line x1="501.5590909090909" y1="0" x2="501.5590909090909" y2="377.987" fill="rgb(0, 0, 0)" stroke="rgb(60, 60, 60)" stroke-width="1px" opacity="0.25"></line><line x1="601.8709090909091" y1="0" x2="601.8709090909091" y2="377.987" fill="rgb(0, 0, 0)" stroke="rgb(60, 60, 60)" stroke-width="1px" opacity="0.25"></line><line x1="702.1827272727273" y1="0" x2="702.1827272727273" y2="377.987" fill="rgb(0, 0, 0)" stroke="rgb(60, 60, 60)" stroke-width="1px" opacity="0.25"></line><line x1="802.4945454545456" y1="0" x2="802.4945454545456" y2="377.987" fill="rgb(0, 0, 0)" stroke="rgb(60, 60, 60)" stroke-width="1px" opacity="0.25"></line><line x1="902.8063636363637" y1="0" x2="902.8063636363637" y2="377.987" fill="rgb(0, 0, 0)" stroke="rgb(60, 60, 60)" stroke-width="1px" opacity="0.25"></line><line x1="1003.1181818181818" y1="0" x2="1003.1181818181818" y2="377.987" fill="rgb(0, 0, 0)" stroke="rgb(60, 60, 60)" stroke-width="1px" opacity="0.25"></line><line x1="1103.43" y1="0" x2="1103.43" y2="377.987" fill="rgb(0, 0, 0)" stroke="rgb(60, 60, 60)" stroke-width="1px" opacity="0.25"></line></g><g><line x1="0" y1="377.987" x2="1103.43" y2="377.987" fill="rgb(0, 0, 0)" stroke="rgb(60, 60, 60)" stroke-width="1px" opacity="0.25"></line><line x1="0" y1="350.9879285714286" x2="1103.43" y2="350.9879285714286" fill="rgb(0, 0, 0)" stroke="rgb(60, 60, 60)" stroke-width="1px" opacity="0.25"></line><line x1="0" y1="323.98885714285717" x2="1103.43" y2="323.98885714285717" fill="rgb(0, 0, 0)" stroke="rgb(60, 60, 60)" stroke-width="1px" opacity="0.25"></line><line x1="0" y1="296.98978571428574" x2="1103.43" y2="296.98978571428574" fill="rgb(0, 0, 0)" stroke="rgb(60, 60, 60)" stroke-width="1px" opacity="0.25"></line><line x1="0" y1="269.99071428571426" x2="1103.43" y2="269.99071428571426" fill="rgb(0, 0, 0)" stroke="rgb(60, 60, 60)" stroke-width="1px" opacity="0.25"></line><line x1="0" y1="242.99164285714286" x2="1103.43" y2="242.99164285714286" fill="rgb(0, 0, 0)" stroke="rgb(60, 60, 60)" stroke-width="1px" opacity="0.25"></line><line x1="0" y1="215.9925714285714" x2="1103.43" y2="215.9925714285714" fill="rgb(0, 0, 0)" stroke="rgb(60, 60, 60)" stroke-width="1px" opacity="0.25"></line><line x1="0" y1="188.9935" x2="1103.43" y2="188.9935" fill="rgb(0, 0, 0)" stroke="rgb(60, 60, 60)" stroke-width="1px" opacity="0.25"></line><line x1="0" y1="161.99442857142856" x2="1103.43" y2="161.99442857142856" fill="rgb(0, 0, 0)" stroke="rgb(60, 60, 60)" stroke-width="1px" opacity="0.25"></line><line x1="0" y1="134.9953571428572" x2="1103.43" y2="134.9953571428572" fill="rgb(0, 0, 0)" stroke="rgb(60, 60, 60)" stroke-width="1px" opacity="0.25"></line><line x1="0" y1="107.9962857142857" x2="1103.43" y2="107.9962857142857" fill="rgb(0, 0, 0)" stroke="rgb(60, 60, 60)" stroke-width="1px" opacity="0.25"></line><line x1="0" y1="80.99721428571428" x2="1103.43" y2="80.99721428571428" fill="rgb(0, 0, 0)" stroke="rgb(60, 60, 60)" stroke-width="1px" opacity="0.25"></line><line x1="0" y1="53.99814285714285" x2="1103.43" y2="53.99814285714285" fill="rgb(0, 0, 0)" stroke="rgb(60, 60, 60)" stroke-width="1px" opacity="0.25"></line><line x1="0" y1="26.99907142857137" x2="1103.43" y2="26.99907142857137" fill="rgb(0, 0, 0)" stroke="rgb(60, 60, 60)" stroke-width="1px" opacity="0.25"></line><line x1="0" y1="0" x2="1103.43" y2="0" fill="rgb(0, 0, 0)" stroke="rgb(60, 60, 60)" stroke-width="1px" opacity="0.25"></line></g></g></g><g><g><line x1="0" y1="323.98885714285717" x2="1103.43" y2="323.98885714285717" fill="rgb(0, 0, 0)" stroke="rgb(153, 153, 153)" stroke-width="1.5px"></line></g></g><g><g><line x1="0" y1="0" x2="0" y2="377.987" fill="rgb(0, 0, 0)" stroke="rgb(153, 153, 153)" stroke-width="1.5px"></line></g></g><g><g><g><g><g><path stroke="rgb(0, 119, 187)" stroke-width="2px" d="M25.07795454545455,22.421303188392073L50.1559090909091,24.900363602665948L75.23386363636364,28.675360166061694L100.3118181818182,38.02497562480244L125.38977272727273,46.23206587004432L150.46772727272727,56.62913386376249L175.54568181818183,68.20018151828452L200.6236363636364,78.67075143019605L225.70159090909092,87.88632892673166L250.77954545454546,94.68882200407427L275.8575,100.92753991035698L300.93545454545455,106.25772528268897L326.01340909090914,111.95569357378497L351.09136363636367,117.21736842249845L376.1693181818182,120.90530261104277L401.2472727272728,124.98139998109633L426.32522727272726,127.87935060615902L451.40318181818185,131.06462980358552L476.4811363636364,133.71978784474686L501.5590909090909,136.41872281274658L526.6370454545455,139.5730018447041L551.715,142.67730841037587L576.7929545454546,145.49123555083435L601.8709090909091,148.2258462824215L626.9488636363637,150.79053405724775L652.0268181818183,153.5875423440183L677.1047727272728,156.1268784280927L702.1827272727273,158.55713528767643L727.2606818181819,160.94816977265714L752.3386363636364,163.09902466600093L777.416590909091,164.84861704764285L802.4945454545456,166.69449116517714L827.5725,168.397091453533L852.6504545454545,170.00702003719246L877.728409090909,171.74057324220394L902.8063636363637,173.4629069177583L927.8843181818182,175.09871483329047L952.9622727272728,176.7696623697931L978.0402272727273,178.4245066676921L1003.1181818181818,179.98834364026794L1003.1181818181818,180.9266458224755" style="fill: none;" fill="none"></path></g><g><path stroke="rgb(204, 51, 17)" stroke-width="2px" d="M25.07795454545455,16.798642334188685L50.1559090909091,25.41515702589919L75.23386363636364,37.71119546089477L100.3118181818182,54.04018728575147L125.38977272727273,67.94479684983077L150.46772727272727,81.41668947685736L175.54568181818183,92.76608273618336L200.6236363636364,102.84173181398086L225.70159090909092,110.64246395620137L250.77954545454546,117.75742496022264L275.8575,123.61015664475462L300.93545454545455,128.74767783074392L326.01340909090914,133.37822600165998L351.09136363636367,137.712784424998L376.1693181818182,141.72997803654437L401.2472727272728,145.8988483691782L426.32522727272726,149.6157297028993L451.40318181818185,152.74270855747764L476.4811363636364,155.63330909076623L501.5590909090909,158.44203477299953L526.6370454545455,160.3021102026543L551.715,162.03054834660648L576.7929545454546,164.12477958489296L601.8709090909091,166.24881141013603L626.9488636363637,168.2776133912257L652.0268181818183,170.2350212006441L677.1047727272728,172.01905587265404L702.1827272727273,173.37881600496368L727.2606818181819,174.66656120255837L752.3386363636364,176.09456086520362L777.416590909091,177.66792989181846L802.4945454545456,179.1522282365155L827.5725,180.67436845216858L852.6504545454545,181.74218108788034L877.728409090909,182.68384721601302L902.8063636363637,183.79485934596073L927.8843181818182,184.9699702109391L952.9622727272728,186.24270352312735L978.0402272727273,187.58393306365096L1003.1181818181818,188.86693941196845L1003.1181818181818,189.63674321986133" style="fill: none;" fill="none"></path></g><g><path stroke="rgb(51, 187, 238)" stroke-width="2px" d="M25.07795454545455,111.99990501890863L50.1559090909091,118.82831951323999L75.23386363636364,118.60696687941265L100.3118181818182,118.11591281455526L125.38977272727273,117.03174552064155L150.46772727272727,116.09663657392525L175.54568181818183,115.10921488058113L200.6236363636364,117.52945833585238L225.70159090909092,120.71412341614666L250.77954545454546,124.5305240936525L275.8575,127.3164203288722L300.93545454545455,131.75143919645276L326.01340909090914,135.52700711335936L351.09136363636367,139.02602659793777L376.1693181818182,141.4383462886823L401.2472727272728,143.75426304555646L426.32522727272726,146.42347691713462L451.40318181818185,148.5674299101005L476.4811363636364,149.86461892216337L501.5590909090909,151.6519888954524L526.6370454545455,153.02180087266095L551.715,154.6914112683216L576.7929545454546,155.99745950171823L601.8709090909091,156.567195961758L626.9488636363637,157.39539109080263L652.0268181818183,158.00440216793078L677.1047727272728,158.4271625930386L702.1827272727273,158.58844641291014L727.2606818181819,159.41268422236638L752.3386363636364,160.36322957918694L777.416590909091,161.18701672713723L802.4945454545456,162.74137959083055L827.5725,164.21383655349234L852.6504545454545,165.44788696054914L877.728409090909,166.03333159838198L902.8063636363637,166.8330311375972L927.8843181818182,167.1839740714233L952.9622727272728,167.96794850378615L978.0402272727273,168.75897056624157L1003.1181818181818,169.58986332057754L1003.1181818181818,170.08839897246827" style="fill: none;" fill="none"></path></g><g><path stroke="rgb(238, 51, 119)" stroke-width="2px" d="M25.07795454545455,6.500730096544487L50.1559090909091,11.725366163196327L75.23386363636364,25.376699412492485L100.3118181818182,41.88736470249842L125.38977272727273,55.49932443578257L150.46772727272727,66.79015386554306L175.54568181818183,76.57296644154184L200.6236363636364,85.26198289504748L225.70159090909092,93.0038413215841L250.77954545454546,99.91708400352519L275.8575,105.98492722523429L300.93545454545455,111.13004331887379L326.01340909090914,115.582736677279L351.09136363636367,119.45006842793089L376.1693181818182,123.26088039417945L401.2472727272728,126.80561719625751L426.32522727272726,130.0141528006821L451.40318181818185,133.3153655899335L476.4811363636364,136.5874287887825L501.5590909090909,139.8269171597882L526.6370454545455,142.80171288428795L551.715,145.6581755924192L576.7929545454546,148.16833445549506L601.8709090909091,150.92092496004287L626.9488636363637,153.42798062365478L652.0268181818183,155.76095920731387L677.1047727272728,157.98890721734313L702.1827272727273,160.01182911719727L727.2606818181819,161.76141709341815L752.3386363636364,163.53172995164942L777.416590909091,165.0530744110388L802.4945454545456,166.574185089282L827.5725,168.0078687188263L852.6504545454545,169.48560085269156L877.728409090909,171.0017028828543L902.8063636363637,172.2857511123825L927.8843181818182,173.57726169084762L952.9622727272728,174.8255380417775L978.0402272727273,176.11365438082328L1003.1181818181818,177.41021928369403L1003.1181818181818,178.18815822430733" style="fill: none;" fill="none"></path></g><g><path stroke="rgb(255, 112, 67)" stroke-width="2px" d="M25.07795454545455,21.83144133995262L50.1559090909091,23.9500856080183L75.23386363636364,29.93807687582813L100.3118181818182,42.29522887486223L125.38977272727273,56.07845505499142L150.46772727272727,69.24295919432774L175.54568181818183,81.36281214307468L200.6236363636364,91.32579926703403L225.70159090909092,98.06921164498499L250.77954545454546,104.39502713890778L275.8575,110.80641316131579L300.93545454545455,116.49806831721185L326.01340909090914,121.80656316315424L351.09136363636367,126.78152604608348L376.1693181818182,130.82596848244827L401.2472727272728,134.73104282792863L426.32522727272726,138.0012577512542L451.40318181818185,141.37350131166596L476.4811363636364,144.75890042915796L501.5590909090909,146.95437828423792L526.6370454545455,149.58412445564335L551.715,152.04320887090637L576.7929545454546,154.35491225261325L601.8709090909091,156.83495687692573L626.9488636363637,159.00824389361492L652.0268181818183,161.1955934896745L677.1047727272728,163.3309824112284L702.1827272727273,165.46382773090446L727.2606818181819,167.3525786564405L752.3386363636364,169.070013239181L777.416590909091,170.7918355673105L802.4945454545456,172.45750718132237L827.5725,173.9608626644147L852.6504545454545,175.4192520812608L877.728409090909,176.82834451358482L902.8063636363637,178.24347512813694L927.8843181818182,179.72486144702836L952.9622727272728,181.00044588933588L978.0402272727273,182.2131478815355L1003.1181818181818,183.49800780161834L1003.1181818181818,184.26892375256884" style="fill: none;" fill="none"></path></g></g></g></g><g opacity="0.2"><g><g><g><path stroke="rgb(0, 119, 187)" stroke-width="2px" d="M25.07795454545455,22.421303188392073L50.1559090909091,26.38779985123017L75.23386363636364,32.29935686692164L100.3118181818182,49.02012340428149L125.38977272727273,56.94724289423226L150.46772727272727,71.01202184355259L175.54568181818183,84.74696480101346L200.6236363636364,93.93694287923404L225.70159090909092,101.47751570034876L250.77954545454546,104.78973143417494L275.8575,110.22903205754073L300.93545454545455,114.2239967077715L326.01340909090914,120.48404115533828L351.09136363636367,125.099572526787L376.1693181818182,126.43286886566025L401.2472727272728,131.09267125650817L426.32522727272726,132.22505022816998L451.40318181818185,135.84173985768214L476.4811363636364,137.70212041988546L501.5590909090909,140.4668785713996L526.6370454545455,144.3042474044817L551.715,147.33366611035382L576.7929545454546,149.71207070543937L601.8709090909091,152.327729985731L626.9488636363637,154.63754749078413L652.0268181818183,157.7830428462114L677.1047727272728,159.9358760567393L702.1827272727273,162.2025168460352L727.2606818181819,164.53471929764748L752.3386363636364,166.325305817272L777.416590909091,167.47300503992182L802.4945454545456,169.46330197421142L827.5725,170.95099168281047L852.6504545454545,172.42191279736588L877.728409090909,174.34090297521865L902.8063636363637,176.0464073866776L927.8843181818182,177.55242668128014L952.9622727272728,179.27608365903583L978.0402272727273,180.90677310532334L1003.1181818181818,182.3340990939055L1003.1181818181818,182.3340990939055" style="fill: none;" fill="none"></path></g><g><path stroke="rgb(204, 51, 17)" stroke-width="2px" d="M25.07795454545455,16.798642334188685L50.1559090909091,30.585065840925438L75.23386363636364,49.515392358490374L100.3118181818182,73.24308167178287L125.38977272727273,86.09865509669271L150.46772727272727,100.05316686138087L175.54568181818183,108.99589668731181L200.6236363636364,117.53212489564078L225.70159090909092,122.1470286517654L250.77954545454546,128.322312845179L275.8575,132.3361703259349L300.93545454545455,136.4260014463067L326.01340909090914,140.30892871483738L351.09136363636367,144.20613020881586L376.1693181818182,147.7510463935733L401.2472727272728,152.14921365777937L426.32522727272726,155.1894788438678L451.40318181818185,157.43238289975267L476.4811363636364,159.96876953680177L501.5590909090909,162.65486656769687L526.6370454545455,163.09212133617913L551.715,164.6231486875415L576.7929545454546,167.26608509538002L601.8709090909091,169.4348339868188L626.9488636363637,171.32080194300414L652.0268181818183,173.17112456732136L677.1047727272728,174.6951033158132L702.1827272727273,175.41845411587616L727.2606818181819,176.59817781275513L752.3386363636364,178.23655956993787L777.416590909091,180.02798290999448L802.4945454545456,181.37867545823542L827.5725,182.9575785939353L852.6504545454545,183.34389996496267L877.728409090909,184.09634636774237L902.8063636363637,185.4613775122336L927.8843181818182,186.73263649022581L952.9622727272728,188.15180347959486L978.0402272727273,189.59577736696602L1003.1181818181818,190.7914489301571L1003.1181818181818,190.7914489301571" style="fill: none;" fill="none"></path></g><g><path stroke="rgb(51, 187, 238)" stroke-width="2px" d="M25.07795454545455,111.99990501890863L50.1559090909091,122.92536820983887L75.23386363636364,118.39446835093838L100.3118181818182,117.53843323428288L125.38977272727273,115.61625670170787L150.46772727272727,114.80304426139594L175.54568181818183,113.69718606035201L200.6236363636364,121.05819652797493L225.70159090909092,125.41088582023553L250.77954545454546,130.19743432114808L275.8575,131.46999680789028L300.93545454545455,138.37983232099668L326.01340909090914,141.17803110439436L351.09136363636367,144.267700881379L376.1693181818182,145.05399023355756L401.2472727272728,147.22650481694083L426.32522727272726,150.42616820264718L451.40318181818185,151.7828150501166L476.4811363636364,151.81020482656785L501.5590909090909,154.33288048269068L526.6370454545455,155.07644371472938L551.715,157.19577192257134L576.7929545454546,157.95650606616908L601.8709090909091,157.42179390274626L626.9488636363637,158.63767789791314L652.0268181818183,158.91791618646894L677.1047727272728,159.06130214897223L702.1827272727273,158.8303718951089L727.2606818181819,160.64904017731124L752.3386363636364,161.78904708906583L777.416590909091,162.42269717588596L802.4945454545456,165.0729235771043L827.5725,166.42252182170324L852.6504545454545,167.2989624827419L877.728409090909,166.91149852997066L902.8063636363637,168.0325804257989L927.8843181818182,167.71038846673284L952.9622727272728,169.14391014505287L978.0402272727273,169.94550365551882L1003.1181818181818,170.83620244930472L1003.1181818181818,170.83620244930472" style="fill: none;" fill="none"></path></g><g><path stroke="rgb(238, 51, 119)" stroke-width="2px" d="M25.07795454545455,6.500730096544487L50.1559090909091,14.860147803187374L75.23386363636364,38.481979331816945L100.3118181818182,61.303907083545425L125.38977272727273,73.27109906355827L150.46772727272727,82.40943566549674L175.54568181818183,90.56254495022125L200.6236363636364,97.9306522988166L225.70159090909092,104.42157872214489L250.77954545454546,110.1824436892527L275.8575,115.03165716637028L300.93545454545455,118.81971796475989L326.01340909090914,122.24723789851157L351.09136363636367,125.24348954841071L376.1693181818182,128.97261887713844L401.2472727272728,132.1202223763466L426.32522727272726,134.82559846258164L451.40318181818185,138.266346596241L476.4811363636364,141.4950251211609L501.5590909090909,144.6858536142281L526.6370454545455,147.26374332617013L551.715,149.94277566149407L576.7929545454546,151.93352319140095L601.8709090909091,155.04977810980594L626.9488636363637,157.188546299994L652.0268181818183,159.2604171337145L677.1047727272728,161.33082353167873L702.1827272727273,163.04620886131698L727.2606818181819,164.3857974461317L752.3386363636364,166.1871982605713L777.416590909091,167.33509059562854L802.4945454545456,168.85585080399684L827.5725,170.15839399198975L852.6504545454545,171.70219894764253L877.728409090909,173.27585586294109L902.8063636363637,174.21182342356445L927.8843181818182,175.51452753856356L952.9622727272728,176.69795255658457L978.0402272727273,178.04582888221742L1003.1181818181818,179.3550666336673L1003.1181818181818,179.3550666336673" style="fill: none;" fill="none"></path></g><g><path stroke="rgb(255, 112, 67)" stroke-width="2px" d="M25.07795454545455,21.83144133995262L50.1559090909091,25.221272168857695L75.23386363636364,35.68654849292551L100.3118181818182,56.827239625726406L125.38977272727273,74.07383515576805L150.46772727272727,87.45420764052017L175.54568181818183,98.69439577742986L200.6236363636364,105.85193013844321L225.70159090909092,108.01443506204231L250.77954545454546,113.78812591154235L275.8575,120.3653413955825L300.93545454545455,125.00457731504099L326.01340909090914,129.75197227535077L351.09136363636367,134.2342239002841L376.1693181818182,136.88787804673402L401.2472727272728,140.5859001851678L426.32522727272726,142.9051962908847L451.40318181818185,146.43101044000898L476.4811363636364,149.83648337391443L501.5590909090909,150.24739439148564L526.6370454545455,153.52859949122157L551.715,155.73175457658087L576.7929545454546,157.82242168462278L601.8709090909091,160.5549944349017L626.9488636363637,162.26815897185466L652.0268181818183,164.47660855571715L677.1047727272728,166.53406032968422L702.1827272727273,168.66309243599858L727.2606818181819,170.1857033049379L752.3386363636364,171.64616416409189L777.416590909091,173.37456848852975L802.4945454545456,174.95601427092726L827.5725,176.21589570958275L852.6504545454545,177.60683610206843L877.728409090909,178.94198310151273L902.8063636363637,180.36617101347449L927.8843181818182,181.946940902446L952.9622727272728,182.9138225409559L978.0402272727273,184.03220086308036L1003.1181818181818,185.4252976774488L1003.1181818181818,185.4252976774488" style="fill: none;" fill="none"></path></g></g></g></g></g></g><g transform="translate(58, 377)" clip-path="url(#clip_1)"><clipPath id="clip_1"><rect width="1103" height="21"></rect></clipPath><g><g><line x1="0" y1="0" x2="0" y2="5" style="visibility: inherit;" fill="rgb(0, 0, 0)" stroke="rgb(204, 204, 204)" stroke-width="1px"></line><line x1="100.3118181818182" y1="0" x2="100.3118181818182" y2="5" style="visibility: inherit;" fill="rgb(0, 0, 0)" stroke="rgb(204, 204, 204)" stroke-width="1px"></line><line x1="200.6236363636364" y1="0" x2="200.6236363636364" y2="5" style="visibility: inherit;" fill="rgb(0, 0, 0)" stroke="rgb(204, 204, 204)" stroke-width="1px"></line><line x1="300.93545454545455" y1="0" x2="300.93545454545455" y2="5" style="visibility: inherit;" fill="rgb(0, 0, 0)" stroke="rgb(204, 204, 204)" stroke-width="1px"></line><line x1="401.2472727272728" y1="0" x2="401.2472727272728" y2="5" style="visibility: inherit;" fill="rgb(0, 0, 0)" stroke="rgb(204, 204, 204)" stroke-width="1px"></line><line x1="501.5590909090909" y1="0" x2="501.5590909090909" y2="5" style="visibility: inherit;" fill="rgb(0, 0, 0)" stroke="rgb(204, 204, 204)" stroke-width="1px"></line><line x1="601.8709090909091" y1="0" x2="601.8709090909091" y2="5" style="visibility: inherit;" fill="rgb(0, 0, 0)" stroke="rgb(204, 204, 204)" stroke-width="1px"></line><line x1="702.1827272727273" y1="0" x2="702.1827272727273" y2="5" style="visibility: inherit;" fill="rgb(0, 0, 0)" stroke="rgb(204, 204, 204)" stroke-width="1px"></line><line x1="802.4945454545456" y1="0" x2="802.4945454545456" y2="5" style="visibility: inherit;" fill="rgb(0, 0, 0)" stroke="rgb(204, 204, 204)" stroke-width="1px"></line><line x1="902.8063636363637" y1="0" x2="902.8063636363637" y2="5" style="visibility: inherit;" fill="rgb(0, 0, 0)" stroke="rgb(204, 204, 204)" stroke-width="1px"></line><line x1="1003.1181818181818" y1="0" x2="1003.1181818181818" y2="5" style="visibility: inherit;" fill="rgb(0, 0, 0)" stroke="rgb(204, 204, 204)" stroke-width="1px"></line><line x1="1103.43" y1="0" x2="1103.43" y2="5" style="visibility: inherit;" fill="rgb(0, 0, 0)" stroke="rgb(204, 204, 204)" stroke-width="1px"></line></g><g transform="translate(0, 8)"><text x="0" y="0" dx="0em" dy="0.95em" style="text-anchor: middle; visibility: hidden; font-family: &quot;Helvetica Neue&quot;, sans-serif; font-size: 12px; font-weight: 200;" fill="rgb(50, 49, 63)" stroke="none" stroke-width="1px">0</text><text x="100.3118181818182" y="0" dx="0em" dy="0.95em" style="text-anchor: middle; visibility: inherit; font-family: &quot;Helvetica Neue&quot;, sans-serif; font-size: 12px; font-weight: 200;" fill="rgb(50, 49, 63)" stroke="none" stroke-width="1px">200</text><text x="200.6236363636364" y="0" dx="0em" dy="0.95em" style="text-anchor: middle; visibility: inherit; font-family: &quot;Helvetica Neue&quot;, sans-serif; font-size: 12px; font-weight: 200;" fill="rgb(50, 49, 63)" stroke="none" stroke-width="1px">400</text><text x="300.93545454545455" y="0" dx="0em" dy="0.95em" style="text-anchor: middle; visibility: inherit; font-family: &quot;Helvetica Neue&quot;, sans-serif; font-size: 12px; font-weight: 200;" fill="rgb(50, 49, 63)" stroke="none" stroke-width="1px">600</text><text x="401.2472727272728" y="0" dx="0em" dy="0.95em" style="text-anchor: middle; visibility: inherit; font-family: &quot;Helvetica Neue&quot;, sans-serif; font-size: 12px; font-weight: 200;" fill="rgb(50, 49, 63)" stroke="none" stroke-width="1px">800</text><text x="501.5590909090909" y="0" dx="0em" dy="0.95em" style="text-anchor: middle; visibility: inherit; font-family: &quot;Helvetica Neue&quot;, sans-serif; font-size: 12px; font-weight: 200;" fill="rgb(50, 49, 63)" stroke="none" stroke-width="1px">1k</text><text x="601.8709090909091" y="0" dx="0em" dy="0.95em" style="text-anchor: middle; visibility: inherit; font-family: &quot;Helvetica Neue&quot;, sans-serif; font-size: 12px; font-weight: 200;" fill="rgb(50, 49, 63)" stroke="none" stroke-width="1px">1.2k</text><text x="702.1827272727273" y="0" dx="0em" dy="0.95em" style="text-anchor: middle; visibility: inherit; font-family: &quot;Helvetica Neue&quot;, sans-serif; font-size: 12px; font-weight: 200;" fill="rgb(50, 49, 63)" stroke="none" stroke-width="1px">1.4k</text><text x="802.4945454545456" y="0" dx="0em" dy="0.95em" style="text-anchor: middle; visibility: inherit; font-family: &quot;Helvetica Neue&quot;, sans-serif; font-size: 12px; font-weight: 200;" fill="rgb(50, 49, 63)" stroke="none" stroke-width="1px">1.6k</text><text x="902.8063636363637" y="0" dx="0em" dy="0.95em" style="text-anchor: middle; visibility: inherit; font-family: &quot;Helvetica Neue&quot;, sans-serif; font-size: 12px; font-weight: 200;" fill="rgb(50, 49, 63)" stroke="none" stroke-width="1px">1.8k</text><text x="1003.1181818181818" y="0" dx="0em" dy="0.95em" style="text-anchor: middle; visibility: inherit; font-family: &quot;Helvetica Neue&quot;, sans-serif; font-size: 12px; font-weight: 200;" fill="rgb(50, 49, 63)" stroke="none" stroke-width="1px">2k</text><text x="1103.43" y="0" dx="0em" dy="0.95em" style="text-anchor: middle; visibility: hidden; font-family: &quot;Helvetica Neue&quot;, sans-serif; font-size: 12px; font-weight: 200;" fill="rgb(50, 49, 63)" stroke="none" stroke-width="1px">2.2k</text></g><line x1="0" y1="0" x2="1103.43" y2="0" fill="rgb(0, 0, 0)" stroke="rgb(204, 204, 204)" stroke-width="1px"></line></g></g></g></g></svg>