<svg viewBox="0 0 329.9946594238281 199.9866485595703" xmlns="http://www.w3.org/2000/svg"><g><g><g><g><g><line x1="58" y1="177.987" x2="53" y2="177.987" style="visibility: inherit;" fill="rgb(0, 0, 0)" stroke="rgb(204, 204, 204)" stroke-width="1px"></line><line x1="58" y1="160.1883" x2="53" y2="160.1883" style="visibility: inherit;" fill="rgb(0, 0, 0)" stroke="rgb(204, 204, 204)" stroke-width="1px"></line><line x1="58" y1="142.3896" x2="53" y2="142.3896" style="visibility: inherit;" fill="rgb(0, 0, 0)" stroke="rgb(204, 204, 204)" stroke-width="1px"></line><line x1="58" y1="124.5909" x2="53" y2="124.5909" style="visibility: inherit;" fill="rgb(0, 0, 0)" stroke="rgb(204, 204, 204)" stroke-width="1px"></line><line x1="58" y1="106.7922" x2="53" y2="106.7922" style="visibility: inherit;" fill="rgb(0, 0, 0)" stroke="rgb(204, 204, 204)" stroke-width="1px"></line><line x1="58" y1="88.9935" x2="53" y2="88.9935" style="visibility: inherit;" fill="rgb(0, 0, 0)" stroke="rgb(204, 204, 204)" stroke-width="1px"></line><line x1="58" y1="71.1948" x2="53" y2="71.1948" style="visibility: inherit;" fill="rgb(0, 0, 0)" stroke="rgb(204, 204, 204)" stroke-width="1px"></line><line x1="58" y1="53.396100000000004" x2="53" y2="53.396100000000004" style="visibility: inherit;" fill="rgb(0, 0, 0)" stroke="rgb(204, 204, 204)" stroke-width="1px"></line><line x1="58" y1="35.59739999999999" x2="53" y2="35.59739999999999" style="visibility: inherit;" fill="rgb(0, 0, 0)" stroke="rgb(204, 204, 204)" stroke-width="1px"></line><line x1="58" y1="17.798699999999997" x2="53" y2="17.798699999999997" style="visibility: inherit;" fill="rgb(0, 0, 0)" stroke="rgb(204, 204, 204)" stroke-width="1px"></line><line x1="58" y1="0" x2="53" y2="0" style="visibility: inherit;" fill="rgb(0, 0, 0)" stroke="rgb(204, 204, 204)" stroke-width="1px"></line></g><g transform="translate(48, 0)"><text x="0" y="177.987" dx="0em" dy="0.3em" style="text-anchor: end; visibility: hidden; font-family: &quot;Helvetica Neue&quot;, sans-serif; font-size: 12px; font-weight: 200;" fill="rgb(50, 49, 63)" stroke="none" stroke-width="1px">-0.5</text><text x="0" y="160.1883" dx="0em" dy="0.3em" style="text-anchor: end; visibility: inherit; font-family: &quot;Helvetica Neue&quot;, sans-serif; font-size: 12px; font-weight: 200;" fill="rgb(50, 49, 63)" stroke="none" stroke-width="1px">0</text><text x="0" y="142.3896" dx="0em" dy="0.3em" style="text-anchor: end; visibility: hidden; font-family: &quot;Helvetica Neue&quot;, sans-serif; font-size: 12px; font-weight: 200;" fill="rgb(50, 49, 63)" stroke="none" stroke-width="1px">0.5</text><text x="0" y="124.5909" dx="0em" dy="0.3em" style="text-anchor: end; visibility: inherit; font-family: &quot;Helvetica Neue&quot;, sans-serif; font-size: 12px; font-weight: 200;" fill="rgb(50, 49, 63)" stroke="none" stroke-width="1px">1</text><text x="0" y="106.7922" dx="0em" dy="0.3em" style="text-anchor: end; visibility: hidden; font-family: &quot;Helvetica Neue&quot;, sans-serif; font-size: 12px; font-weight: 200;" fill="rgb(50, 49, 63)" stroke="none" stroke-width="1px">1.5</text><text x="0" y="88.9935" dx="0em" dy="0.3em" style="text-anchor: end; visibility: inherit; font-family: &quot;Helvetica Neue&quot;, sans-serif; font-size: 12px; font-weight: 200;" fill="rgb(50, 49, 63)" stroke="none" stroke-width="1px">2</text><text x="0" y="71.1948" dx="0em" dy="0.3em" style="text-anchor: end; visibility: hidden; font-family: &quot;Helvetica Neue&quot;, sans-serif; font-size: 12px; font-weight: 200;" fill="rgb(50, 49, 63)" stroke="none" stroke-width="1px">2.5</text><text x="0" y="53.396100000000004" dx="0em" dy="0.3em" style="text-anchor: end; visibility: inherit; font-family: &quot;Helvetica Neue&quot;, sans-serif; font-size: 12px; font-weight: 200;" fill="rgb(50, 49, 63)" stroke="none" stroke-width="1px">3</text><text x="0" y="35.59739999999999" dx="0em" dy="0.3em" style="text-anchor: end; visibility: hidden; font-family: &quot;Helvetica Neue&quot;, sans-serif; font-size: 12px; font-weight: 200;" fill="rgb(50, 49, 63)" stroke="none" stroke-width="1px">3.5</text><text x="0" y="17.798699999999997" dx="0em" dy="0.3em" style="text-anchor: end; visibility: inherit; font-family: &quot;Helvetica Neue&quot;, sans-serif; font-size: 12px; font-weight: 200;" fill="rgb(50, 49, 63)" stroke="none" stroke-width="1px">4</text><text x="0" y="0" dx="0em" dy="0.3em" style="text-anchor: end; visibility: hidden; font-family: &quot;Helvetica Neue&quot;, sans-serif; font-size: 12px; font-weight: 200;" fill="rgb(50, 49, 63)" stroke="none" stroke-width="1px">4.5</text></g><line x1="58" y1="0" x2="58" y2="177.987" fill="rgb(0, 0, 0)" stroke="rgb(204, 204, 204)" stroke-width="1px"></line></g></g><g transform="translate(58, 0)" clip-path="url(#clip_0)"><clipPath id="clip_0"><rect width="271" height="177"></rect></clipPath><g><g><g><line x1="0" y1="0" x2="0" y2="177.987" fill="rgb(0, 0, 0)" stroke="rgb(60, 60, 60)" stroke-width="1px" opacity="0.25"></line><line x1="24.72681818181818" y1="0" x2="24.72681818181818" y2="177.987" fill="rgb(0, 0, 0)" stroke="rgb(60, 60, 60)" stroke-width="1px" opacity="0.25"></line><line x1="49.45363636363636" y1="0" x2="49.45363636363636" y2="177.987" fill="rgb(0, 0, 0)" stroke="rgb(60, 60, 60)" stroke-width="1px" opacity="0.25"></line><line x1="74.18045454545454" y1="0" x2="74.18045454545454" y2="177.987" fill="rgb(0, 0, 0)" stroke="rgb(60, 60, 60)" stroke-width="1px" opacity="0.25"></line><line x1="98.90727272727273" y1="0" x2="98.90727272727273" y2="177.987" fill="rgb(0, 0, 0)" stroke="rgb(60, 60, 60)" stroke-width="1px" opacity="0.25"></line><line x1="123.6340909090909" y1="0" x2="123.6340909090909" y2="177.987" fill="rgb(0, 0, 0)" stroke="rgb(60, 60, 60)" stroke-width="1px" opacity="0.25"></line><line x1="148.36090909090908" y1="0" x2="148.36090909090908" y2="177.987" fill="rgb(0, 0, 0)" stroke="rgb(60, 60, 60)" stroke-width="1px" opacity="0.25"></line><line x1="173.08772727272728" y1="0" x2="173.08772727272728" y2="177.987" fill="rgb(0, 0, 0)" stroke="rgb(60, 60, 60)" stroke-width="1px" opacity="0.25"></line><line x1="197.81454545454545" y1="0" x2="197.81454545454545" y2="177.987" fill="rgb(0, 0, 0)" stroke="rgb(60, 60, 60)" stroke-width="1px" opacity="0.25"></line><line x1="222.54136363636366" y1="0" x2="222.54136363636366" y2="177.987" fill="rgb(0, 0, 0)" stroke="rgb(60, 60, 60)" stroke-width="1px" opacity="0.25"></line><line x1="247.2681818181818" y1="0" x2="247.2681818181818" y2="177.987" fill="rgb(0, 0, 0)" stroke="rgb(60, 60, 60)" stroke-width="1px" opacity="0.25"></line><line x1="271.995" y1="0" x2="271.995" y2="177.987" fill="rgb(0, 0, 0)" stroke="rgb(60, 60, 60)" stroke-width="1px" opacity="0.25"></line></g><g><line x1="0" y1="177.987" x2="271.995" y2="177.987" fill="rgb(0, 0, 0)" stroke="rgb(60, 60, 60)" stroke-width="1px" opacity="0.25"></line><line x1="0" y1="160.1883" x2="271.995" y2="160.1883" fill="rgb(0, 0, 0)" stroke="rgb(60, 60, 60)" stroke-width="1px" opacity="0.25"></line><line x1="0" y1="142.3896" x2="271.995" y2="142.3896" fill="rgb(0, 0, 0)" stroke="rgb(60, 60, 60)" stroke-width="1px" opacity="0.25"></line><line x1="0" y1="124.5909" x2="271.995" y2="124.5909" fill="rgb(0, 0, 0)" stroke="rgb(60, 60, 60)" stroke-width="1px" opacity="0.25"></line><line x1="0" y1="106.7922" x2="271.995" y2="106.7922" fill="rgb(0, 0, 0)" stroke="rgb(60, 60, 60)" stroke-width="1px" opacity="0.25"></line><line x1="0" y1="88.9935" x2="271.995" y2="88.9935" fill="rgb(0, 0, 0)" stroke="rgb(60, 60, 60)" stroke-width="1px" opacity="0.25"></line><line x1="0" y1="71.1948" x2="271.995" y2="71.1948" fill="rgb(0, 0, 0)" stroke="rgb(60, 60, 60)" stroke-width="1px" opacity="0.25"></line><line x1="0" y1="53.396100000000004" x2="271.995" y2="53.396100000000004" fill="rgb(0, 0, 0)" stroke="rgb(60, 60, 60)" stroke-width="1px" opacity="0.25"></line><line x1="0" y1="35.59739999999999" x2="271.995" y2="35.59739999999999" fill="rgb(0, 0, 0)" stroke="rgb(60, 60, 60)" stroke-width="1px" opacity="0.25"></line><line x1="0" y1="17.798699999999997" x2="271.995" y2="17.798699999999997" fill="rgb(0, 0, 0)" stroke="rgb(60, 60, 60)" stroke-width="1px" opacity="0.25"></line><line x1="0" y1="0" x2="271.995" y2="0" fill="rgb(0, 0, 0)" stroke="rgb(60, 60, 60)" stroke-width="1px" opacity="0.25"></line></g></g></g><g><g><line x1="0" y1="160.1883" x2="271.995" y2="160.1883" fill="rgb(0, 0, 0)" stroke="rgb(153, 153, 153)" stroke-width="1.5px"></line></g></g><g><g><line x1="0" y1="0" x2="0" y2="177.987" fill="rgb(0, 0, 0)" stroke="rgb(153, 153, 153)" stroke-width="1.5px"></line></g></g><g><g><g><g><g><path stroke="rgb(0, 119, 187)" stroke-width="2px" d="M6.181704545454545,21.743419110345855L12.36340909090909,29.735662501675193L18.545113636363634,26.76577884224821L24.72681818181818,37.78867732248855L30.908522727272725,34.614469893752954L37.09022727272727,42.44403111226055L43.27193181818182,42.91971805601807L49.45363636363636,43.4413969396299L55.635340909090914,47.96524533714771L61.81704545454545,50.09515754259368L67.99875,51.98853277232722L74.18045454545454,51.89427995962947L80.3621590909091,54.817752116073066L86.54386363636364,54.975742802063266L92.72556818181818,57.126523226324636L98.90727272727273,60.43828952959724L105.08897727272728,58.14839418698132L111.27068181818183,61.21505264168563L117.45238636363636,57.0169808435698L123.6340909090909,59.78612824321277L129.81579545454545,64.48909666848282L135.9975,59.27599058508568L142.17920454545455,62.44847866321791L148.36090909090908,67.36058953709771L154.54261363636365,74.50319035696812L160.7243181818182,73.8979833538349L166.90602272727273,76.3232722245902L173.08772727272728,78.85903733573856L179.2694318181818,77.83763447525907L185.45113636363635,74.3427188950897L191.63284090909093,78.84458150664179L197.81454545454545,76.39101968644673L203.99625,78.45718983117236L210.17795454545455,73.95051435131384L216.35965909090908,68.12305957954281L222.54136363636366,72.08006689279772L228.7230681818182,76.42743728668026L234.90477272727273,79.93976362387293L241.08647727272728,67.67778257103845L247.2681818181818,73.30147391452464L247.2681818181818,71.16505873017208" style="fill: none;" fill="none"></path></g><g><path stroke="rgb(204, 51, 17)" stroke-width="2px" d="M6.181704545454545,31.297649295187L12.36340909090909,30.166318447311966L18.545113636363634,31.668461655612305L24.72681818181818,40.99343839752487L30.908522727272725,43.29962442983924L37.09022727272727,48.44365764563233L43.27193181818182,50.44216040542493L49.45363636363636,49.57614070144487L55.635340909090914,52.54301606989999L61.81704545454545,56.27206671851896L67.99875,55.595267994515396L74.18045454545454,58.91196618530576L80.3621590909091,54.5326472523345L86.54386363636364,56.60468247832833L92.72556818181818,60.03081198107901L98.90727272727273,58.14136134437577L105.08897727272728,57.52772803143688L111.27068181818183,74.87259265583909L117.45238636363636,76.06192920168661L123.6340909090909,75.19285413708687L129.81579545454545,71.82658529371736L135.9975,65.71748115384186L142.17920454545455,67.38369415830859L148.36090909090908,60.38352077397569L154.54261363636365,58.085430778823934L160.7243181818182,57.19810367234483L166.90602272727273,60.31493846450191L173.08772727272728,69.68155710322142L179.2694318181818,73.49443239617115L185.45113636363635,76.04486494822102L191.63284090909093,79.25604925630007L197.81454545454545,79.7470509974681L203.99625,75.48382208930846L210.17795454545455,73.72255076899025L216.35965909090908,74.4006702028605L222.54136363636366,82.43834373535067L228.7230681818182,87.81176088785631L234.90477272727273,90.31254850397748L241.08647727272728,90.6015717046238L247.2681818181818,86.60425637611921L247.2681818181818,81.78413825608645" style="fill: none;" fill="none"></path></g><g><path stroke="rgb(51, 187, 238)" stroke-width="2px" d="M6.181704545454545,147.70513872719405L12.36340909090909,78.18297817431036L18.545113636363634,112.96304212532633L24.72681818181818,129.76434659910086L30.908522727272725,139.39522584892367L37.09022727272727,110.10870076989623L43.27193181818182,123.89986280248715L49.45363636363636,133.47800756425445L55.635340909090914,140.30974632090724L61.81704545454545,145.27603907599607L67.99875,119.57260440301678L74.18045454545454,129.40954824010504L80.3621590909091,136.78884033643462L86.54386363636364,109.81450171371777L92.72556818181818,121.72845638358649L98.90727272727273,92.79126830792413L105.08897727272728,108.60528169275901L111.27068181818183,120.67683721043227L117.45238636363636,129.90472656983937L123.6340909090909,114.78114853818487L129.81579545454545,125.35699440348469L135.9975,133.46221817297936L142.17920454545455,139.67701440319019L148.36090909090908,144.444083343676L154.54261363636365,148.10172139174637L160.7243181818182,150.90874254589122L166.90602272727273,153.06333013964746L173.08772727272728,154.71734255904227L179.2694318181818,155.9872029976762L185.45113636363635,126.39096865335779L191.63284090909093,111.5734388724313L197.81454545454545,122.85450713158139L203.99625,105.70968520168316L210.17795454545455,118.35032342506469L216.35965909090908,128.05767591520924L222.54136363636366,135.5124705456303L228.7230681818182,119.59076251601712L234.90477272727273,109.32714061615314L241.08647727272728,121.12732852903144L247.2681818181818,130.18970883526495L247.2681818181818,127.08594111990342" style="fill: none;" fill="none"></path></g><g><path stroke="rgb(238, 51, 119)" stroke-width="2px" d="M6.181704545454545,14.8820295621872L12.36340909090909,29.75044592241011L18.545113636363634,30.515675673337768L24.72681818181818,39.259316679258546L30.908522727272725,34.30168960419957L37.09022727272727,33.71329010224741L43.27193181818182,37.43961498172513L49.45363636363636,39.00810635777256L55.635340909090914,44.92333730311097L61.81704545454545,45.91912292574406L67.99875,51.8400357063213L74.18045454545454,48.3215410390693L80.3621590909091,47.724572257759746L86.54386363636364,49.95507857369063L92.72556818181818,56.524044996849724L98.90727272727273,54.45075876295779L105.08897727272728,52.76363521398264L111.27068181818183,53.266114327236224L117.45238636363636,55.56787560569168L123.6340909090909,61.003859175194606L129.81579545454545,62.13809268845475L135.9975,62.75963917940723L142.17920454545455,59.98574010654839L148.36090909090908,64.21562238545293L154.54261363636365,64.57983152918617L160.7243181818182,65.83062567939733L166.90602272727273,66.3074894585953L173.08772727272728,60.65296540562896L179.2694318181818,59.765071135506204L185.45113636363635,71.43905324218478L191.63284090909093,66.97852263620597L197.81454545454545,68.99679707868653L203.99625,73.02858180192712L210.17795454545455,71.19365153019396L216.35965909090908,78.5392638486584L222.54136363636366,69.50123446547367L228.7230681818182,67.64761376346851L234.90477272727273,61.938108952102155L241.08647727272728,66.44688253748342L247.2681818181818,73.01702863755132L247.2681818181818,68.07749895379253" style="fill: none;" fill="none"></path></g><g><path stroke="rgb(255, 112, 67)" stroke-width="2px" d="M6.181704545454545,34.08191277408599L12.36340909090909,33.8977699870934L18.545113636363634,49.001327152441405L24.72681818181818,47.98396482662787L30.908522727272725,44.07040515183863L37.09022727272727,42.99192062460216L43.27193181818182,43.80984933270355L49.45363636363636,50.4714392658025L55.635340909090914,47.94317707004558L61.81704545454545,59.646408529773964L67.99875,57.748972282774304L74.18045454545454,56.98352760981514L80.3621590909091,55.20127587423171L86.54386363636364,48.28435475028721L92.72556818181818,50.43849814650797L98.90727272727273,74.34745073077619L105.08897727272728,52.873748261910734L111.27068181818183,55.329826744147056L117.45238636363636,53.428298601937584L123.6340909090909,23.089612556763626L129.81579545454545,25.454061987531304L135.9975,39.52665635091543L142.17920454545455,42.119967507487814L148.36090909090908,51.856952771838465L154.54261363636365,54.09872741941878L160.7243181818182,60.18640214659139L166.90602272727273,60.93645022310804L173.08772727272728,65.98336807472421L179.2694318181818,64.62163182631022L185.45113636363635,64.09234652184352L191.63284090909093,65.51170231801397L197.81454545454545,73.10828929967938L203.99625,67.90201766484378L210.17795454545455,66.65047879034088L216.35965909090908,70.53288675406552L222.54136363636366,77.36387304071206L228.7230681818182,82.72812742647896L234.90477272727273,77.76509343114438L241.08647727272728,71.50648624076356L247.2681818181818,71.05058567404572L247.2681818181818,68.78585285045862" style="fill: none;" fill="none"></path></g></g></g></g><g opacity="0.2"><g><g><g><path stroke="rgb(0, 119, 187)" stroke-width="2px" d="M6.181704545454545,21.743419110345855L12.36340909090909,35.873705426216134L18.545113636363634,22.73319953227042L24.72681818181818,57.749039244747166L30.908522727272725,27.762304562330257L37.09022727272727,61.43762672166825L43.27193181818182,44.171287397575384L49.45363636363636,44.89618600502013L55.635340909090914,61.12827259998322L61.81704545454545,56.4905323604107L67.99875,57.80883073410989L74.18045454545454,51.599376353502265L80.3621590909091,64.08797254114151L86.54386363636364,55.481834233760836L92.72556818181818,64.0695301129818L98.90727272727273,71.19227933678627L105.08897727272728,50.67908815512658L111.27068181818183,71.25254610271453L117.45238636363636,43.239982967376704L123.6340909090909,68.8921359623909L129.81579545454545,79.97820797924996L135.9975,42.086350949478145L142.17920454545455,72.91894212527275L148.36090909090908,83.58383423423767L154.54261363636365,98.10574419658184L160.7243181818182,71.89726725096702L166.90602272727273,84.34341954388617L173.08772727272728,87.24655308666229L179.2694318181818,74.45852417564392L185.45113636363635,62.77882324132919L191.63284090909093,93.74187783436776L197.81454545454545,68.27115318117143L203.99625,85.29545791425704L210.17795454545455,59.03432287130356L216.35965909090908,48.83461618795394L222.54136363636366,85.17785242552756L228.7230681818182,90.81765813753604L234.90477272727273,91.5661083962202L241.08647727272728,27.088184163665773L247.2681818181818,91.91720198485851L247.2681818181818,64.09297143216132" style="fill: none;" fill="none"></path></g><g><path stroke="rgb(204, 51, 17)" stroke-width="2px" d="M6.181704545454545,31.297649295187L12.36340909090909,29.297456356143954L18.545113636363634,33.70810775527954L24.72681818181818,57.8791886399746L30.908522727272725,48.27799094595909L37.09022727272727,60.9224778470993L43.27193181818182,55.70037658309937L49.45363636363636,47.161099503993995L55.635340909090914,61.17572387280464L61.81704545454545,67.46909002847671L67.99875,53.51476637392044L74.18045454545454,69.28944170994758L80.3621590909091,40.64599136924744L86.54386363636364,63.242031176948544L92.72556818181818,71.0908162771225L98.90727272727273,52.00592453284263L105.08897727272728,55.52614528641702L111.27068181818183,131.64414639140367L117.45238636363636,79.96502754163741L123.6340909090909,72.33500545492171L129.81579545454545,60.739861313867564L135.9975,45.573387214279194L142.17920454545455,72.88285505461693L148.36090909090908,37.26402517375948L154.54261363636365,50.49144726963043L160.7243181818182,54.264744307279585L166.90602272727273,70.62194745812417L173.08772727272728,100.66339411160945L179.2694318181818,86.10857973418236L185.45113636363635,84.48367705321311L191.63284090909093,89.88230961298942L197.81454545454545,81.37198196897508L203.99625,61.374092429351805L210.17795454545455,67.89309613451958L216.35965909090908,76.6451952700138L222.54136363636366,109.04322863359451L228.7230681818182,105.59829678025245L234.90477272727273,98.59054326760769L241.08647727272728,91.55829603767394L247.2681818181818,73.37221168842315L247.2681818181818,65.82829953088759" style="fill: none;" fill="none"></path></g><g><path stroke="rgb(51, 187, 238)" stroke-width="2px" d="M6.181704545454545,147.70513872719405L12.36340909090909,24.789958869695653L18.545113636363634,160.18824767955064L24.72681818181818,160.18829712933285L30.908522727272725,160.18541627861526L37.09022727272727,39.063031845188135L43.27193181818182,160.18548260129305L49.45363636363636,160.18827072398153L55.635340909090914,160.1880348054931L61.81704545454545,160.18806387335235L67.99875,40.55939767642022L74.18045454545454,160.18794230385123L80.3621590909091,160.18829846473025L86.54386363636364,23.4076254658699L92.72556818181818,160.18829560619173L98.90727272727273,-1.1737633752822774L105.08897727272728,160.1882965864618L111.27068181818183,160.1882993973018L117.45238636363636,160.18829917651937L123.6340909090909,65.04908360166549L129.81579545454545,160.18828370854524L135.9975,160.18829539732428L142.17920454545455,160.1882961637345L148.36090909090908,160.1882975715915L154.54261363636365,160.18829897497562L160.7243181818182,160.18829878881908L166.90602272727273,160.18829992061663L173.08772727272728,160.18829693052766L179.2694318181818,160.18828628546663L185.45113636363635,28.463634544372553L191.63284090909093,62.540149534606925L197.81454545454545,160.18829980280682L203.99625,48.96659030570984L210.17795454545455,160.188299337059L216.35965909090908,160.1882931952208L222.54136363636366,160.18801282545613L228.7230681818182,66.88835298786164L234.90477272727273,75.35296072368622L241.08647727272728,160.188299709096L247.2681818181818,160.1882982219669L247.2681818181818,116.81166653294562" style="fill: none;" fill="none"></path></g><g><path stroke="rgb(238, 51, 119)" stroke-width="2px" d="M6.181704545454545,14.8820295621872L12.36340909090909,41.16938968706131L18.545113636363634,31.554722994661347L24.72681818181818,55.092379036617274L30.908522727272725,23.59965417251587L37.09022727272727,32.28590204243659L43.27193181818182,47.24386552305222L49.45363636363636,43.38210763463974L55.635340909090914,62.13486593041421L61.81704545454545,48.909115789604186L67.99875,70.04111705961226L74.18045454545454,37.31267312507629L80.3621590909091,45.831606669759765L86.54386363636364,57.100057581567754L92.72556818181818,77.72954724140166L98.90727272727273,47.718369764184956L105.08897727272728,47.26048322868348L111.27068181818183,54.91078095316887L117.45238636363636,63.121667386722564L123.6340909090909,78.8794364563465L129.81579545454545,65.8736629816532L135.9975,64.80911985855103L142.17920454545455,50.83077776327133L148.36090909090908,78.18566846394539L154.54261363636365,65.78335194711686L160.7243181818182,69.96554808568955L166.90602272727273,67.88442233719825L173.08772727272728,41.949573143577595L179.2694318181818,56.82764772577285L185.45113636363635,110.06565461461544L191.63284090909093,52.217999726057045L197.81454545454545,75.6761148399353L203.99625,86.37231579265595L210.17795454545455,65.12040054774285L216.35965909090908,102.85269620125294L222.54136363636366,39.58514861369133L228.7230681818182,61.511948094606396L234.90477272727273,43.03876275143625L241.08647727272728,81.37182071442604L247.2681818181818,94.76574237570762L247.2681818181818,51.72637704148292" style="fill: none;" fill="none"></path></g><g><path stroke="rgb(255, 112, 67)" stroke-width="2px" d="M6.181704545454545,34.08191277408599L12.36340909090909,33.75634832668305L18.545113636363634,69.50929955692291L24.72681818181818,46.141716141700755L30.908522727272725,35.622199252223965L37.09022727272727,40.37564387426377L43.27193181818182,45.96188337121009L49.45363636363636,69.0484001074791L55.635340909090914,40.586700617694845L61.81704545454545,94.78708314220906L67.99875,51.916190619850155L74.18045454545454,54.58856041588783L80.3621590909091,49.54982254829406L86.54386363636364,26.127387125158293L92.72556818181818,57.39236115646362L98.90727272727273,151.98476231816412L105.08897727272728,-17.17035043201446L111.27068181818183,63.36882817497252L117.45238636363636,47.18796960411072L123.6340909090909,-76.67550263814925L129.81579545454545,33.241318271255494L135.9975,85.92947685270309L142.17920454545455,50.67891841349602L148.36090909090908,84.01532594618799L154.54261363636365,61.50661820740699L160.7243181818182,80.31126651964188L166.90602272727273,63.41677169852257L173.08772727272728,82.67698957300186L179.2694318181818,60.116595507717136L185.45113636363635,62.34105957612992L191.63284090909093,70.20855020399092L197.81454545454545,98.24858602223395L203.99625,50.671161220979684L210.17795454545455,62.50813626308441L216.35965909090908,83.38336936855316L222.54136363636366,99.9745953054428L228.7230681818182,100.48433366553783L234.90477272727273,61.336681373977655L241.08647727272728,50.78925047335625L247.2681818181818,69.54144862174988L247.2681818181818,61.289000949954996" style="fill: none;" fill="none"></path></g></g></g></g></g></g><g transform="translate(58, 177)" clip-path="url(#clip_1)"><clipPath id="clip_1"><rect width="271" height="21"></rect></clipPath><g><g><line x1="0" y1="0" x2="0" y2="5" style="visibility: inherit;" fill="rgb(0, 0, 0)" stroke="rgb(204, 204, 204)" stroke-width="1px"></line><line x1="24.72681818181818" y1="0" x2="24.72681818181818" y2="5" style="visibility: inherit;" fill="rgb(0, 0, 0)" stroke="rgb(204, 204, 204)" stroke-width="1px"></line><line x1="49.45363636363636" y1="0" x2="49.45363636363636" y2="5" style="visibility: inherit;" fill="rgb(0, 0, 0)" stroke="rgb(204, 204, 204)" stroke-width="1px"></line><line x1="74.18045454545454" y1="0" x2="74.18045454545454" y2="5" style="visibility: inherit;" fill="rgb(0, 0, 0)" stroke="rgb(204, 204, 204)" stroke-width="1px"></line><line x1="98.90727272727273" y1="0" x2="98.90727272727273" y2="5" style="visibility: inherit;" fill="rgb(0, 0, 0)" stroke="rgb(204, 204, 204)" stroke-width="1px"></line><line x1="123.6340909090909" y1="0" x2="123.6340909090909" y2="5" style="visibility: inherit;" fill="rgb(0, 0, 0)" stroke="rgb(204, 204, 204)" stroke-width="1px"></line><line x1="148.36090909090908" y1="0" x2="148.36090909090908" y2="5" style="visibility: inherit;" fill="rgb(0, 0, 0)" stroke="rgb(204, 204, 204)" stroke-width="1px"></line><line x1="173.08772727272728" y1="0" x2="173.08772727272728" y2="5" style="visibility: inherit;" fill="rgb(0, 0, 0)" stroke="rgb(204, 204, 204)" stroke-width="1px"></line><line x1="197.81454545454545" y1="0" x2="197.81454545454545" y2="5" style="visibility: inherit;" fill="rgb(0, 0, 0)" stroke="rgb(204, 204, 204)" stroke-width="1px"></line><line x1="222.54136363636366" y1="0" x2="222.54136363636366" y2="5" style="visibility: inherit;" fill="rgb(0, 0, 0)" stroke="rgb(204, 204, 204)" stroke-width="1px"></line><line x1="247.2681818181818" y1="0" x2="247.2681818181818" y2="5" style="visibility: inherit;" fill="rgb(0, 0, 0)" stroke="rgb(204, 204, 204)" stroke-width="1px"></line><line x1="271.995" y1="0" x2="271.995" y2="5" style="visibility: inherit;" fill="rgb(0, 0, 0)" stroke="rgb(204, 204, 204)" stroke-width="1px"></line></g><g transform="translate(0, 8)"><text x="0" y="0" dx="0em" dy="0.95em" style="text-anchor: middle; visibility: hidden; font-family: &quot;Helvetica Neue&quot;, sans-serif; font-size: 12px; font-weight: 200;" fill="rgb(50, 49, 63)" stroke="none" stroke-width="1px">0</text><text x="24.72681818181818" y="0" dx="0em" dy="0.95em" style="text-anchor: middle; visibility: inherit; font-family: &quot;Helvetica Neue&quot;, sans-serif; font-size: 12px; font-weight: 200;" fill="rgb(50, 49, 63)" stroke="none" stroke-width="1px">200</text><text x="49.45363636363636" y="0" dx="0em" dy="0.95em" style="text-anchor: middle; visibility: hidden; font-family: &quot;Helvetica Neue&quot;, sans-serif; font-size: 12px; font-weight: 200;" fill="rgb(50, 49, 63)" stroke="none" stroke-width="1px">400</text><text x="74.18045454545454" y="0" dx="0em" dy="0.95em" style="text-anchor: middle; visibility: inherit; font-family: &quot;Helvetica Neue&quot;, sans-serif; font-size: 12px; font-weight: 200;" fill="rgb(50, 49, 63)" stroke="none" stroke-width="1px">600</text><text x="98.90727272727273" y="0" dx="0em" dy="0.95em" style="text-anchor: middle; visibility: hidden; font-family: &quot;Helvetica Neue&quot;, sans-serif; font-size: 12px; font-weight: 200;" fill="rgb(50, 49, 63)" stroke="none" stroke-width="1px">800</text><text x="123.6340909090909" y="0" dx="0em" dy="0.95em" style="text-anchor: middle; visibility: inherit; font-family: &quot;Helvetica Neue&quot;, sans-serif; font-size: 12px; font-weight: 200;" fill="rgb(50, 49, 63)" stroke="none" stroke-width="1px">1k</text><text x="148.36090909090908" y="0" dx="0em" dy="0.95em" style="text-anchor: middle; visibility: hidden; font-family: &quot;Helvetica Neue&quot;, sans-serif; font-size: 12px; font-weight: 200;" fill="rgb(50, 49, 63)" stroke="none" stroke-width="1px">1.2k</text><text x="173.08772727272728" y="0" dx="0em" dy="0.95em" style="text-anchor: middle; visibility: inherit; font-family: &quot;Helvetica Neue&quot;, sans-serif; font-size: 12px; font-weight: 200;" fill="rgb(50, 49, 63)" stroke="none" stroke-width="1px">1.4k</text><text x="197.81454545454545" y="0" dx="0em" dy="0.95em" style="text-anchor: middle; visibility: hidden; font-family: &quot;Helvetica Neue&quot;, sans-serif; font-size: 12px; font-weight: 200;" fill="rgb(50, 49, 63)" stroke="none" stroke-width="1px">1.6k</text><text x="222.54136363636366" y="0" dx="0em" dy="0.95em" style="text-anchor: middle; visibility: inherit; font-family: &quot;Helvetica Neue&quot;, sans-serif; font-size: 12px; font-weight: 200;" fill="rgb(50, 49, 63)" stroke="none" stroke-width="1px">1.8k</text><text x="247.2681818181818" y="0" dx="0em" dy="0.95em" style="text-anchor: middle; visibility: hidden; font-family: &quot;Helvetica Neue&quot;, sans-serif; font-size: 12px; font-weight: 200;" fill="rgb(50, 49, 63)" stroke="none" stroke-width="1px">2k</text><text x="271.995" y="0" dx="0em" dy="0.95em" style="text-anchor: middle; visibility: hidden; font-family: &quot;Helvetica Neue&quot;, sans-serif; font-size: 12px; font-weight: 200;" fill="rgb(50, 49, 63)" stroke="none" stroke-width="1px">2.2k</text></g><line x1="0" y1="0" x2="271.995" y2="0" fill="rgb(0, 0, 0)" stroke="rgb(204, 204, 204)" stroke-width="1px"></line></g></g></g></g></svg>