<svg viewBox="0 0 1161.431640625 399.9866638183594" xmlns="http://www.w3.org/2000/svg"><g><g><g><g><g><line x1="58" y1="377.987" x2="53" y2="377.987" style="visibility: inherit;" fill="rgb(0, 0, 0)" stroke="rgb(204, 204, 204)" stroke-width="1px"></line><line x1="58" y1="330.738625" x2="53" y2="330.738625" style="visibility: inherit;" fill="rgb(0, 0, 0)" stroke="rgb(204, 204, 204)" stroke-width="1px"></line><line x1="58" y1="283.49025" x2="53" y2="283.49025" style="visibility: inherit;" fill="rgb(0, 0, 0)" stroke="rgb(204, 204, 204)" stroke-width="1px"></line><line x1="58" y1="236.24187500000002" x2="53" y2="236.24187500000002" style="visibility: inherit;" fill="rgb(0, 0, 0)" stroke="rgb(204, 204, 204)" stroke-width="1px"></line><line x1="58" y1="188.9935" x2="53" y2="188.9935" style="visibility: inherit;" fill="rgb(0, 0, 0)" stroke="rgb(204, 204, 204)" stroke-width="1px"></line><line x1="58" y1="141.745125" x2="53" y2="141.745125" style="visibility: inherit;" fill="rgb(0, 0, 0)" stroke="rgb(204, 204, 204)" stroke-width="1px"></line><line x1="58" y1="94.49675000000002" x2="53" y2="94.49675000000002" style="visibility: inherit;" fill="rgb(0, 0, 0)" stroke="rgb(204, 204, 204)" stroke-width="1px"></line><line x1="58" y1="47.24837500000001" x2="53" y2="47.24837500000001" style="visibility: inherit;" fill="rgb(0, 0, 0)" stroke="rgb(204, 204, 204)" stroke-width="1px"></line><line x1="58" y1="0" x2="53" y2="0" style="visibility: inherit;" fill="rgb(0, 0, 0)" stroke="rgb(204, 204, 204)" stroke-width="1px"></line></g><g transform="translate(48, 0)"><text x="0" y="377.987" dx="0em" dy="0.3em" style="text-anchor: end; visibility: hidden; font-family: &quot;Helvetica Neue&quot;, sans-serif; font-size: 12px; font-weight: 200;" fill="rgb(50, 49, 63)" stroke="none" stroke-width="1px">-0.5</text><text x="0" y="330.738625" dx="0em" dy="0.3em" style="text-anchor: end; visibility: inherit; font-family: &quot;Helvetica Neue&quot;, sans-serif; font-size: 12px; font-weight: 200;" fill="rgb(50, 49, 63)" stroke="none" stroke-width="1px">0</text><text x="0" y="283.49025" dx="0em" dy="0.3em" style="text-anchor: end; visibility: inherit; font-family: &quot;Helvetica Neue&quot;, sans-serif; font-size: 12px; font-weight: 200;" fill="rgb(50, 49, 63)" stroke="none" stroke-width="1px">0.5</text><text x="0" y="236.24187500000002" dx="0em" dy="0.3em" style="text-anchor: end; visibility: inherit; font-family: &quot;Helvetica Neue&quot;, sans-serif; font-size: 12px; font-weight: 200;" fill="rgb(50, 49, 63)" stroke="none" stroke-width="1px">1</text><text x="0" y="188.9935" dx="0em" dy="0.3em" style="text-anchor: end; visibility: inherit; font-family: &quot;Helvetica Neue&quot;, sans-serif; font-size: 12px; font-weight: 200;" fill="rgb(50, 49, 63)" stroke="none" stroke-width="1px">1.5</text><text x="0" y="141.745125" dx="0em" dy="0.3em" style="text-anchor: end; visibility: inherit; font-family: &quot;Helvetica Neue&quot;, sans-serif; font-size: 12px; font-weight: 200;" fill="rgb(50, 49, 63)" stroke="none" stroke-width="1px">2</text><text x="0" y="94.49675000000002" dx="0em" dy="0.3em" style="text-anchor: end; visibility: inherit; font-family: &quot;Helvetica Neue&quot;, sans-serif; font-size: 12px; font-weight: 200;" fill="rgb(50, 49, 63)" stroke="none" stroke-width="1px">2.5</text><text x="0" y="47.24837500000001" dx="0em" dy="0.3em" style="text-anchor: end; visibility: inherit; font-family: &quot;Helvetica Neue&quot;, sans-serif; font-size: 12px; font-weight: 200;" fill="rgb(50, 49, 63)" stroke="none" stroke-width="1px">3</text><text x="0" y="0" dx="0em" dy="0.3em" style="text-anchor: end; visibility: hidden; font-family: &quot;Helvetica Neue&quot;, sans-serif; font-size: 12px; font-weight: 200;" fill="rgb(50, 49, 63)" stroke="none" stroke-width="1px">3.5</text></g><line x1="58" y1="0" x2="58" y2="377.987" fill="rgb(0, 0, 0)" stroke="rgb(204, 204, 204)" stroke-width="1px"></line></g></g><g transform="translate(58, 0)" clip-path="url(#clip_0)"><clipPath id="clip_0"><rect width="1103" height="377"></rect></clipPath><g><g><g><line x1="0" y1="0" x2="0" y2="377.987" fill="rgb(0, 0, 0)" stroke="rgb(60, 60, 60)" stroke-width="1px" opacity="0.25"></line><line x1="100.3118181818182" y1="0" x2="100.3118181818182" y2="377.987" fill="rgb(0, 0, 0)" stroke="rgb(60, 60, 60)" stroke-width="1px" opacity="0.25"></line><line x1="200.6236363636364" y1="0" x2="200.6236363636364" y2="377.987" fill="rgb(0, 0, 0)" stroke="rgb(60, 60, 60)" stroke-width="1px" opacity="0.25"></line><line x1="300.93545454545455" y1="0" x2="300.93545454545455" y2="377.987" fill="rgb(0, 0, 0)" stroke="rgb(60, 60, 60)" stroke-width="1px" opacity="0.25"></line><line x1="401.2472727272728" y1="0" x2="401.2472727272728" y2="377.987" fill="rgb(0, 0, 0)" stroke="rgb(60, 60, 60)" stroke-width="1px" opacity="0.25"></line><line x1="501.5590909090909" y1="0" x2="501.5590909090909" y2="377.987" fill="rgb(0, 0, 0)" stroke="rgb(60, 60, 60)" stroke-width="1px" opacity="0.25"></line><line x1="601.8709090909091" y1="0" x2="601.8709090909091" y2="377.987" fill="rgb(0, 0, 0)" stroke="rgb(60, 60, 60)" stroke-width="1px" opacity="0.25"></line><line x1="702.1827272727273" y1="0" x2="702.1827272727273" y2="377.987" fill="rgb(0, 0, 0)" stroke="rgb(60, 60, 60)" stroke-width="1px" opacity="0.25"></line><line x1="802.4945454545456" y1="0" x2="802.4945454545456" y2="377.987" fill="rgb(0, 0, 0)" stroke="rgb(60, 60, 60)" stroke-width="1px" opacity="0.25"></line><line x1="902.8063636363637" y1="0" x2="902.8063636363637" y2="377.987" fill="rgb(0, 0, 0)" stroke="rgb(60, 60, 60)" stroke-width="1px" opacity="0.25"></line><line x1="1003.1181818181818" y1="0" x2="1003.1181818181818" y2="377.987" fill="rgb(0, 0, 0)" stroke="rgb(60, 60, 60)" stroke-width="1px" opacity="0.25"></line><line x1="1103.43" y1="0" x2="1103.43" y2="377.987" fill="rgb(0, 0, 0)" stroke="rgb(60, 60, 60)" stroke-width="1px" opacity="0.25"></line></g><g><line x1="0" y1="377.987" x2="1103.43" y2="377.987" fill="rgb(0, 0, 0)" stroke="rgb(60, 60, 60)" stroke-width="1px" opacity="0.25"></line><line x1="0" y1="330.738625" x2="1103.43" y2="330.738625" fill="rgb(0, 0, 0)" stroke="rgb(60, 60, 60)" stroke-width="1px" opacity="0.25"></line><line x1="0" y1="283.49025" x2="1103.43" y2="283.49025" fill="rgb(0, 0, 0)" stroke="rgb(60, 60, 60)" stroke-width="1px" opacity="0.25"></line><line x1="0" y1="236.24187500000002" x2="1103.43" y2="236.24187500000002" fill="rgb(0, 0, 0)" stroke="rgb(60, 60, 60)" stroke-width="1px" opacity="0.25"></line><line x1="0" y1="188.9935" x2="1103.43" y2="188.9935" fill="rgb(0, 0, 0)" stroke="rgb(60, 60, 60)" stroke-width="1px" opacity="0.25"></line><line x1="0" y1="141.745125" x2="1103.43" y2="141.745125" fill="rgb(0, 0, 0)" stroke="rgb(60, 60, 60)" stroke-width="1px" opacity="0.25"></line><line x1="0" y1="94.49675000000002" x2="1103.43" y2="94.49675000000002" fill="rgb(0, 0, 0)" stroke="rgb(60, 60, 60)" stroke-width="1px" opacity="0.25"></line><line x1="0" y1="47.24837500000001" x2="1103.43" y2="47.24837500000001" fill="rgb(0, 0, 0)" stroke="rgb(60, 60, 60)" stroke-width="1px" opacity="0.25"></line><line x1="0" y1="0" x2="1103.43" y2="0" fill="rgb(0, 0, 0)" stroke="rgb(60, 60, 60)" stroke-width="1px" opacity="0.25"></line></g></g></g><g><g><line x1="0" y1="330.738625" x2="1103.43" y2="330.738625" fill="rgb(0, 0, 0)" stroke="rgb(153, 153, 153)" stroke-width="1.5px"></line></g></g><g><g><line x1="0" y1="0" x2="0" y2="377.987" fill="rgb(0, 0, 0)" stroke="rgb(153, 153, 153)" stroke-width="1.5px"></line></g></g><g><g><g><g><g><path stroke="rgb(0, 119, 187)" stroke-width="2px" d="M25.07795454545455,83.54290572226046L50.1559090909091,86.92648453697564L75.23386363636364,86.80528925914552L100.3118181818182,87.72835629733498L125.38977272727273,89.0812753446844L150.46772727272727,90.70245244221172L175.54568181818183,92.47851563883535L200.6236363636364,93.24591599180383L225.70159090909092,94.10448306484938L250.77954545454546,95.25547829766083L275.8575,96.07481578663442L300.93545454545455,96.63564437112228L326.01340909090914,97.10747264635722L351.09136363636367,97.40097964632253L376.1693181818182,97.89644193872613L401.2472727272728,98.23367549055621L426.32522727272726,99.09387260486221L451.40318181818185,100.10922635787972L476.4811363636364,101.11685859583224L501.5590909090909,102.28294241778377L526.6370454545455,103.27084480076871L551.715,104.22870380710316L576.7929545454546,105.14524468879262L601.8709090909091,106.24602934959802L626.9488636363637,107.59827119010123L652.0268181818183,108.73899078012965L677.1047727272728,109.69098524019398L702.1827272727273,110.66282412583718L727.2606818181819,111.64486655799004L752.3386363636364,112.6951323113314L777.416590909091,113.90263084384452L802.4945454545456,115.0334770208608L827.5725,116.26388321979908L852.6504545454545,117.21854798274649L877.728409090909,118.17381238954374L902.8063636363637,119.11073686870594L927.8843181818182,120.14973887092731L952.9622727272728,121.2401283557304L978.0402272727273,122.27452956717926L1003.1181818181818,123.45414316848675L1003.1181818181818,124.16191132826208" style="fill: none;" fill="none"></path></g><g><path stroke="rgb(204, 51, 17)" stroke-width="2px" d="M25.07795454545455,72.99256981980801L50.1559090909091,82.32743249327689L75.23386363636364,87.99186338878161L100.3118181818182,89.41414814449831L125.38977272727273,90.06107629929261L150.46772727272727,90.84939992203289L175.54568181818183,91.50982569879062L200.6236363636364,91.83140739853121L225.70159090909092,92.78872135848462L250.77954545454546,93.31771133030668L275.8575,93.84210151553043L300.93545454545455,94.74450936361131L326.01340909090914,95.60325885497741L351.09136363636367,96.15559773566355L376.1693181818182,97.06858126271572L401.2472727272728,97.7759228625336L426.32522727272726,98.6850779878236L451.40318181818185,99.88659740653401L476.4811363636364,101.16637480776211L501.5590909090909,102.56169571197893L526.6370454545455,104.13493771617306L551.715,105.62320552490809L576.7929545454546,107.0037019814248L601.8709090909091,108.31151900599758L626.9488636363637,109.3156189083756L652.0268181818183,110.41178647093614L677.1047727272728,111.46214424646445L702.1827272727273,112.51624279316735L727.2606818181819,113.73470132311354L752.3386363636364,114.98276264359248L777.416590909091,116.31863530737309L802.4945454545456,117.56256261641732L827.5725,118.82513031421865L852.6504545454545,119.78041028067281L877.728409090909,120.6648947603689L902.8063636363637,121.70073016638963L927.8843181818182,122.65582536453644L952.9622727272728,123.62626275600906L978.0402272727273,124.54608439007842L1003.1181818181818,125.47560353274284L1003.1181818181818,126.03331501754636" style="fill: none;" fill="none"></path></g><g><path stroke="rgb(51, 187, 238)" stroke-width="2px" d="M25.07795454545455,247.71382538339498L50.1559090909091,250.33573919236102L75.23386363636364,254.85338017464323L100.3118181818182,256.9457159833269L125.38977272727273,256.89742990342336L150.46772727272727,256.0089904456503L175.54568181818183,254.8615954508387L200.6236363636364,255.52891388233724L225.70159090909092,256.1117696385892L250.77954545454546,257.1442953707202L275.8575,257.5101638480746L300.93545454545455,258.61558041553667L326.01340909090914,259.48229773431206L351.09136363636367,260.07448094974495L376.1693181818182,260.40965369965517L401.2472727272728,260.74994106584745L426.32522727272726,261.3596071729095L451.40318181818185,261.9838782535828L476.4811363636364,262.3162715714926L501.5590909090909,262.7725817934379L526.6370454545455,263.0453726759566L551.715,263.40419890604994L576.7929545454546,263.79806858077177L601.8709090909091,264.00751249192854L626.9488636363637,264.1828835473262L652.0268181818183,264.3244464599951L677.1047727272728,264.51607844549045L702.1827272727273,264.60667126147877L727.2606818181819,265.00482924516064L752.3386363636364,265.4617942446346L777.416590909091,265.76153547242404L802.4945454545456,266.28371572518046L827.5725,266.81585336924724L852.6504545454545,267.2486207018697L877.728409090909,267.5091146954139L902.8063636363637,267.89118202504847L927.8843181818182,268.05377031618445L952.9622727272728,268.3807800972689L978.0402272727273,268.5711124512579L1003.1181818181818,268.8205491261792L1003.1181818181818,268.97021113091864" style="fill: none;" fill="none"></path></g><g><path stroke="rgb(238, 51, 119)" stroke-width="2px" d="M25.07795454545455,42.80671882164478L50.1559090909091,45.5548733292967L75.23386363636364,49.501059279737376L100.3118181818182,53.95488469575457L125.38977272727273,56.68797793091369L150.46772727272727,58.7677180176708L175.54568181818183,60.857920389514845L200.6236363636364,62.870082807970164L225.70159090909092,64.1656935799084L250.77954545454546,65.2372370358164L275.8575,66.61681866999766L300.93545454545455,67.89526616154905L326.01340909090914,69.07944035124655L351.09136363636367,70.54975933241843L376.1693181818182,71.81703212368546L401.2472727272728,73.03087414677418L426.32522727272726,74.0590715954009L451.40318181818185,74.95943123989679L476.4811363636364,75.85566184366621L501.5590909090909,76.57788189212204L526.6370454545455,77.35561283085423L551.715,78.0300759329674L576.7929545454546,78.63872534756229L601.8709090909091,79.60076469089574L626.9488636363637,80.61191920449471L652.0268181818183,81.58409781337161L677.1047727272728,82.5830427520537L702.1827272727273,83.62051443674073L727.2606818181819,84.55732364633326L752.3386363636364,85.47444232844481L777.416590909091,86.21017858863036L802.4945454545456,86.88759722584086L827.5725,87.53053898873623L852.6504545454545,88.23182911091868L877.728409090909,88.96970533653467L902.8063636363637,89.6480024549374L927.8843181818182,90.36764001036448L952.9622727272728,91.08471265096352L978.0402272727273,91.78598949802523L1003.1181818181818,92.4467518432665L1003.1181818181818,92.84320924984593" style="fill: none;" fill="none"></path></g><g><path stroke="rgb(255, 112, 67)" stroke-width="2px" d="M25.07795454545455,78.31320286881925L50.1559090909091,82.81828601275384L75.23386363636364,84.9033683789421L100.3118181818182,85.45838081648219L125.38977272727273,85.74925992035816L150.46772727272727,87.13669227167765L175.54568181818183,87.30334000853145L200.6236363636364,88.01302998731393L225.70159090909092,88.24770789894342L250.77954545454546,88.94759714818076L275.8575,90.49177623773198L300.93545454545455,91.58417692078007L326.01340909090914,93.20947650636538L351.09136363636367,94.3358166003402L376.1693181818182,95.42691647354428L401.2472727272728,96.53255668354154L426.32522727272726,97.33055514372398L451.40318181818185,98.10719579544826L476.4811363636364,98.82090930784534L501.5590909090909,99.88960960825392L526.6370454545455,100.88559352920583L551.715,101.75135892777979L576.7929545454546,102.33332700349371L601.8709090909091,102.87310775674678L626.9488636363637,103.53745460010867L652.0268181818183,104.25338048421838L677.1047727272728,104.94894913397917L702.1827272727273,105.94096184758956L727.2606818181819,106.67205976220794L752.3386363636364,107.27768207552066L777.416590909091,108.16854070121781L802.4945454545456,108.90245338944345L827.5725,109.73421537260629L852.6504545454545,110.6722428000295L877.728409090909,111.52357561799636L902.8063636363637,112.17588034852474L927.8843181818182,113.05011243710413L952.9622727272728,114.02719387883059L978.0402272727273,114.84271480404698L1003.1181818181818,115.58490161877756L1003.1181818181818,116.03021370698099" style="fill: none;" fill="none"></path></g></g></g></g><g opacity="0.2"><g><g><g><path stroke="rgb(0, 119, 187)" stroke-width="2px" d="M25.07795454545455,83.54290572226046L50.1559090909091,88.95663182580472L75.23386363636364,86.68894179242852L100.3118181818182,88.81388313424588L125.38977272727273,90.84764645290375L150.46772727272727,92.94512399184703L175.54568181818183,95.0183144270182L200.6236363636364,94.36479307347537L225.70159090909092,95.3707027295232L250.77954545454546,96.96457207679748L275.8575,97.29639068937303L300.93545454545455,97.4738352434635L326.01340909090914,97.81367445802687L351.09136363636367,97.84066513550283L376.1693181818182,98.63905298000577L401.2472727272728,98.73928797507284L426.32522727272726,100.38380426973106L451.40318181818185,101.63199918919804L476.4811363636364,102.62815345013144L501.5590909090909,104.03196156603099L526.6370454545455,104.75264419633152L551.715,105.66546079784632L576.7929545454546,106.52003791582587L601.8709090909091,107.89719330096244L626.9488636363637,109.62662433969973L652.0268181818183,110.45006530052422L677.1047727272728,111.11897449439766L702.1827272727273,112.12058096230032L727.2606818181819,113.11792930161954L752.3386363636364,114.2705303608775L777.416590909091,115.71387824219465L802.4945454545456,116.72974606138467L827.5725,118.10949237132075L852.6504545454545,118.65054505878686L877.728409090909,119.60670895868543L902.8063636363637,120.51612356328963L927.8843181818182,121.70824185818435L952.9622727272728,122.87571257281303L978.0402272727273,123.82613137859107L1003.1181818181818,125.22356356650593L1003.1181818181818,125.22356356650593" style="fill: none;" fill="none"></path></g><g><path stroke="rgb(204, 51, 17)" stroke-width="2px" d="M25.07795454545455,72.99256981980801L50.1559090909091,87.92835009735825L75.23386363636364,93.42971704846622L100.3118181818182,91.08675501722098L125.38977272727273,90.90570569819215L150.46772727272727,91.9399352887869L175.54568181818183,92.45424512636663L200.6236363636364,92.30027660393716L225.70159090909092,94.20057350075245L250.77954545454546,94.10319978785515L275.8575,94.62393061298133L300.93545454545455,96.09321027207375L326.01340909090914,96.8885791259408L351.09136363636367,96.98302396732572L376.1693181818182,98.43698337543009L401.2472727272728,98.83643639016151L426.32522727272726,100.04842595177888L451.40318181818185,101.6885714689493L476.4811363636364,103.08584594839812L501.5590909090909,104.65454953044656L526.6370454545455,106.4947144421339L551.715,107.85555826592446L576.7929545454546,109.07441941070556L601.8709090909091,110.2732290505171L626.9488636363637,110.8217616252303L652.0268181818183,112.0560331401229L677.1047727272728,113.03767822217941L702.1827272727273,114.0973889949322L727.2606818181819,115.56238799566029L752.3386363636364,116.85485393452643L777.416590909091,118.32244386005402L802.4945454545456,119.4284533324838L827.5725,120.71898171019552L852.6504545454545,121.21333016192915L877.728409090909,121.99162144190075L902.8063636363637,123.25448324871064L927.8843181818182,124.0884681469798L952.9622727272728,125.08191883420946L978.0402272727273,125.92581683605911L1003.1181818181818,126.86988224363327L1003.1181818181818,126.86988224363327" style="fill: none;" fill="none"></path></g><g><path stroke="rgb(51, 187, 238)" stroke-width="2px" d="M25.07795454545455,247.71382538339498L50.1559090909091,251.90888747774068L75.23386363636364,259.1903155176342L100.3118181818182,259.406302894339L125.38977272727273,256.8343875975013L150.46772727272727,254.77995883734525L175.54568181818183,253.22080224993826L200.6236363636364,256.501870561719L225.70159090909092,256.97136866515876L250.77954545454546,258.67747574825586L275.8575,258.0556481639445L300.93545454545455,260.2676896385849L326.01340909090914,260.77954373005036L351.09136363636367,260.9615956243277L376.1693181818182,260.91201884153486L401.2472727272728,261.2601321181208L426.32522727272726,262.2738483432382L451.40318181818185,262.920126372233L476.4811363636364,262.81481091158093L501.5590909090909,263.457005417794L526.6370454545455,263.4545440392345L551.715,263.94242644386L576.7929545454546,264.3888653165847L601.8709090909091,264.3216758776009L626.9488636363637,264.44593888396025L652.0268181818183,264.53679022529724L677.1047727272728,264.8035259333998L702.1827272727273,264.7425603463799L727.2606818181819,265.6020658539236L752.3386363636364,266.14724149128796L777.416590909091,266.21114721471076L802.4945454545456,267.0669860004187L827.5725,267.6140597718209L852.6504545454545,267.8977716698051L877.728409090909,267.89985567453505L902.8063636363637,268.46428300964834L927.8843181818182,268.2976527503729L952.9622727272728,268.87129476585983L978.0402272727273,268.8566109811813L1003.1181818181818,269.1947041377276L1003.1181818181818,269.1947041377276" style="fill: none;" fill="none"></path></g><g><path stroke="rgb(238, 51, 119)" stroke-width="2px" d="M25.07795454545455,42.80671882164478L50.1559090909091,47.20376603388786L75.23386363636364,53.289397792160514L100.3118181818182,59.19258338499071L125.38977272727273,60.25630445873736L150.46772727272727,61.64474726408719L175.54568181818183,63.84694322448968L200.6236363636364,65.80383493083718L225.70159090909092,66.07646780908107L250.77954545454546,66.82835418587922L275.8575,68.67367841738462L300.93545454545455,69.80598014408349L326.01340909090914,70.85183510160448L351.09136363636367,72.75235729622841L376.1693181818182,73.71645167899135L401.2472727272728,74.85078108596804L426.32522727272726,75.60093266963958L451.40318181818185,76.30974210542439L476.4811363636364,77.19987121760846L501.5590909090909,77.66114595103267L526.6370454545455,78.5221665863395L551.715,79.04174839264152L576.7929545454546,79.55168745273352L601.8709090909091,81.04381230962275L626.9488636363637,82.12864378803971L652.0268181818183,83.04236158078908L677.1047727272728,84.08145760405063L702.1827272727273,85.17672037100795L727.2606818181819,85.96253659778836L752.3386363636364,86.85011984473465L777.416590909091,87.3137827349305L802.4945454545456,87.90372504687309L827.5725,88.49495155632496L852.6504545454545,89.28376424396038L877.728409090909,90.07651964324714L902.8063636363637,90.66544811505082L927.8843181818182,91.44709633237125L952.9622727272728,92.16032160520552L978.0402272727273,92.83790476471188L1003.1181818181818,93.43789535892012L1003.1181818181818,93.43789535892012" style="fill: none;" fill="none"></path></g><g><path stroke="rgb(255, 112, 67)" stroke-width="2px" d="M25.07795454545455,78.31320286881925L50.1559090909091,85.5213358991146L75.23386363636364,86.90504745048287L100.3118181818182,86.11107544302939L125.38977272727273,86.12903167837857L150.46772727272727,89.05601068919896L175.54568181818183,87.54164893859627L200.6236363636364,89.04776478940249L225.70159090909092,88.59381223475935L250.77954545454546,89.98685111540556L275.8575,92.79403928136827L300.93545454545455,93.21683314907551L326.01340909090914,95.64211899960043L351.09136363636367,96.02312012380361L376.1693181818182,97.06228373640778L401.2472727272728,98.19023721539975L426.32522727272726,98.5272151477933L451.40318181818185,99.27195958405736L476.4811363636364,99.89137084937096L501.5590909090909,101.4925623754263L526.6370454545455,102.3795147885084L551.715,103.0499785372615L576.7929545454546,103.20626762712004L601.8709090909091,103.68277249240873L626.9488636363637,104.53397014325856L652.0268181818183,105.32726625728606L677.1047727272728,105.99230032885077L702.1827272727273,107.42897939503194L727.2606818181819,107.76870596069097L752.3386363636364,108.18611521077156L777.416590909091,109.50482834434507L802.4945454545456,110.0033222757578L827.5725,110.981858248055L852.6504545454545,112.07928387397527L877.728409090909,112.80057480835916L902.8063636363637,113.1543374274969L927.8843181818182,114.36146055644753L952.9622727272728,115.49281603235005L978.0402272727273,116.06599618732929L1003.1181818181818,116.69818183839323L1003.1181818181818,116.69818183839323" style="fill: none;" fill="none"></path></g></g></g></g></g></g><g transform="translate(58, 377)" clip-path="url(#clip_1)"><clipPath id="clip_1"><rect width="1103" height="21"></rect></clipPath><g><g><line x1="0" y1="0" x2="0" y2="5" style="visibility: inherit;" fill="rgb(0, 0, 0)" stroke="rgb(204, 204, 204)" stroke-width="1px"></line><line x1="100.3118181818182" y1="0" x2="100.3118181818182" y2="5" style="visibility: inherit;" fill="rgb(0, 0, 0)" stroke="rgb(204, 204, 204)" stroke-width="1px"></line><line x1="200.6236363636364" y1="0" x2="200.6236363636364" y2="5" style="visibility: inherit;" fill="rgb(0, 0, 0)" stroke="rgb(204, 204, 204)" stroke-width="1px"></line><line x1="300.93545454545455" y1="0" x2="300.93545454545455" y2="5" style="visibility: inherit;" fill="rgb(0, 0, 0)" stroke="rgb(204, 204, 204)" stroke-width="1px"></line><line x1="401.2472727272728" y1="0" x2="401.2472727272728" y2="5" style="visibility: inherit;" fill="rgb(0, 0, 0)" stroke="rgb(204, 204, 204)" stroke-width="1px"></line><line x1="501.5590909090909" y1="0" x2="501.5590909090909" y2="5" style="visibility: inherit;" fill="rgb(0, 0, 0)" stroke="rgb(204, 204, 204)" stroke-width="1px"></line><line x1="601.8709090909091" y1="0" x2="601.8709090909091" y2="5" style="visibility: inherit;" fill="rgb(0, 0, 0)" stroke="rgb(204, 204, 204)" stroke-width="1px"></line><line x1="702.1827272727273" y1="0" x2="702.1827272727273" y2="5" style="visibility: inherit;" fill="rgb(0, 0, 0)" stroke="rgb(204, 204, 204)" stroke-width="1px"></line><line x1="802.4945454545456" y1="0" x2="802.4945454545456" y2="5" style="visibility: inherit;" fill="rgb(0, 0, 0)" stroke="rgb(204, 204, 204)" stroke-width="1px"></line><line x1="902.8063636363637" y1="0" x2="902.8063636363637" y2="5" style="visibility: inherit;" fill="rgb(0, 0, 0)" stroke="rgb(204, 204, 204)" stroke-width="1px"></line><line x1="1003.1181818181818" y1="0" x2="1003.1181818181818" y2="5" style="visibility: inherit;" fill="rgb(0, 0, 0)" stroke="rgb(204, 204, 204)" stroke-width="1px"></line><line x1="1103.43" y1="0" x2="1103.43" y2="5" style="visibility: inherit;" fill="rgb(0, 0, 0)" stroke="rgb(204, 204, 204)" stroke-width="1px"></line></g><g transform="translate(0, 8)"><text x="0" y="0" dx="0em" dy="0.95em" style="text-anchor: middle; visibility: hidden; font-family: &quot;Helvetica Neue&quot;, sans-serif; font-size: 12px; font-weight: 200;" fill="rgb(50, 49, 63)" stroke="none" stroke-width="1px">0</text><text x="100.3118181818182" y="0" dx="0em" dy="0.95em" style="text-anchor: middle; visibility: inherit; font-family: &quot;Helvetica Neue&quot;, sans-serif; font-size: 12px; font-weight: 200;" fill="rgb(50, 49, 63)" stroke="none" stroke-width="1px">200</text><text x="200.6236363636364" y="0" dx="0em" dy="0.95em" style="text-anchor: middle; visibility: inherit; font-family: &quot;Helvetica Neue&quot;, sans-serif; font-size: 12px; font-weight: 200;" fill="rgb(50, 49, 63)" stroke="none" stroke-width="1px">400</text><text x="300.93545454545455" y="0" dx="0em" dy="0.95em" style="text-anchor: middle; visibility: inherit; font-family: &quot;Helvetica Neue&quot;, sans-serif; font-size: 12px; font-weight: 200;" fill="rgb(50, 49, 63)" stroke="none" stroke-width="1px">600</text><text x="401.2472727272728" y="0" dx="0em" dy="0.95em" style="text-anchor: middle; visibility: inherit; font-family: &quot;Helvetica Neue&quot;, sans-serif; font-size: 12px; font-weight: 200;" fill="rgb(50, 49, 63)" stroke="none" stroke-width="1px">800</text><text x="501.5590909090909" y="0" dx="0em" dy="0.95em" style="text-anchor: middle; visibility: inherit; font-family: &quot;Helvetica Neue&quot;, sans-serif; font-size: 12px; font-weight: 200;" fill="rgb(50, 49, 63)" stroke="none" stroke-width="1px">1k</text><text x="601.8709090909091" y="0" dx="0em" dy="0.95em" style="text-anchor: middle; visibility: inherit; font-family: &quot;Helvetica Neue&quot;, sans-serif; font-size: 12px; font-weight: 200;" fill="rgb(50, 49, 63)" stroke="none" stroke-width="1px">1.2k</text><text x="702.1827272727273" y="0" dx="0em" dy="0.95em" style="text-anchor: middle; visibility: inherit; font-family: &quot;Helvetica Neue&quot;, sans-serif; font-size: 12px; font-weight: 200;" fill="rgb(50, 49, 63)" stroke="none" stroke-width="1px">1.4k</text><text x="802.4945454545456" y="0" dx="0em" dy="0.95em" style="text-anchor: middle; visibility: inherit; font-family: &quot;Helvetica Neue&quot;, sans-serif; font-size: 12px; font-weight: 200;" fill="rgb(50, 49, 63)" stroke="none" stroke-width="1px">1.6k</text><text x="902.8063636363637" y="0" dx="0em" dy="0.95em" style="text-anchor: middle; visibility: inherit; font-family: &quot;Helvetica Neue&quot;, sans-serif; font-size: 12px; font-weight: 200;" fill="rgb(50, 49, 63)" stroke="none" stroke-width="1px">1.8k</text><text x="1003.1181818181818" y="0" dx="0em" dy="0.95em" style="text-anchor: middle; visibility: inherit; font-family: &quot;Helvetica Neue&quot;, sans-serif; font-size: 12px; font-weight: 200;" fill="rgb(50, 49, 63)" stroke="none" stroke-width="1px">2k</text><text x="1103.43" y="0" dx="0em" dy="0.95em" style="text-anchor: middle; visibility: hidden; font-family: &quot;Helvetica Neue&quot;, sans-serif; font-size: 12px; font-weight: 200;" fill="rgb(50, 49, 63)" stroke="none" stroke-width="1px">2.2k</text></g><line x1="0" y1="0" x2="1103.43" y2="0" fill="rgb(0, 0, 0)" stroke="rgb(204, 204, 204)" stroke-width="1px"></line></g></g></g></g></svg>