<svg viewBox="0 0 329.9946594238281 199.9866485595703" xmlns="http://www.w3.org/2000/svg"><g><g><g><g><g><line x1="58" y1="177.987" x2="53" y2="177.987" style="visibility: inherit;" fill="rgb(0, 0, 0)" stroke="rgb(204, 204, 204)" stroke-width="1px"></line><line x1="58" y1="155.73862499999998" x2="53" y2="155.73862499999998" style="visibility: inherit;" fill="rgb(0, 0, 0)" stroke="rgb(204, 204, 204)" stroke-width="1px"></line><line x1="58" y1="133.49025" x2="53" y2="133.49025" style="visibility: inherit;" fill="rgb(0, 0, 0)" stroke="rgb(204, 204, 204)" stroke-width="1px"></line><line x1="58" y1="111.241875" x2="53" y2="111.241875" style="visibility: inherit;" fill="rgb(0, 0, 0)" stroke="rgb(204, 204, 204)" stroke-width="1px"></line><line x1="58" y1="88.9935" x2="53" y2="88.9935" style="visibility: inherit;" fill="rgb(0, 0, 0)" stroke="rgb(204, 204, 204)" stroke-width="1px"></line><line x1="58" y1="66.745125" x2="53" y2="66.745125" style="visibility: inherit;" fill="rgb(0, 0, 0)" stroke="rgb(204, 204, 204)" stroke-width="1px"></line><line x1="58" y1="44.49674999999999" x2="53" y2="44.49674999999999" style="visibility: inherit;" fill="rgb(0, 0, 0)" stroke="rgb(204, 204, 204)" stroke-width="1px"></line><line x1="58" y1="22.24837500000001" x2="53" y2="22.24837500000001" style="visibility: inherit;" fill="rgb(0, 0, 0)" stroke="rgb(204, 204, 204)" stroke-width="1px"></line><line x1="58" y1="0" x2="53" y2="0" style="visibility: inherit;" fill="rgb(0, 0, 0)" stroke="rgb(204, 204, 204)" stroke-width="1px"></line></g><g transform="translate(48, 0)"><text x="0" y="177.987" dx="0em" dy="0.3em" style="text-anchor: end; visibility: hidden; font-family: &quot;Helvetica Neue&quot;, sans-serif; font-size: 12px; font-weight: 200;" fill="rgb(50, 49, 63)" stroke="none" stroke-width="1px">-0.5</text><text x="0" y="155.73862499999998" dx="0em" dy="0.3em" style="text-anchor: end; visibility: inherit; font-family: &quot;Helvetica Neue&quot;, sans-serif; font-size: 12px; font-weight: 200;" fill="rgb(50, 49, 63)" stroke="none" stroke-width="1px">0</text><text x="0" y="133.49025" dx="0em" dy="0.3em" style="text-anchor: end; visibility: hidden; font-family: &quot;Helvetica Neue&quot;, sans-serif; font-size: 12px; font-weight: 200;" fill="rgb(50, 49, 63)" stroke="none" stroke-width="1px">0.5</text><text x="0" y="111.241875" dx="0em" dy="0.3em" style="text-anchor: end; visibility: inherit; font-family: &quot;Helvetica Neue&quot;, sans-serif; font-size: 12px; font-weight: 200;" fill="rgb(50, 49, 63)" stroke="none" stroke-width="1px">1</text><text x="0" y="88.9935" dx="0em" dy="0.3em" style="text-anchor: end; visibility: hidden; font-family: &quot;Helvetica Neue&quot;, sans-serif; font-size: 12px; font-weight: 200;" fill="rgb(50, 49, 63)" stroke="none" stroke-width="1px">1.5</text><text x="0" y="66.745125" dx="0em" dy="0.3em" style="text-anchor: end; visibility: inherit; font-family: &quot;Helvetica Neue&quot;, sans-serif; font-size: 12px; font-weight: 200;" fill="rgb(50, 49, 63)" stroke="none" stroke-width="1px">2</text><text x="0" y="44.49674999999999" dx="0em" dy="0.3em" style="text-anchor: end; visibility: hidden; font-family: &quot;Helvetica Neue&quot;, sans-serif; font-size: 12px; font-weight: 200;" fill="rgb(50, 49, 63)" stroke="none" stroke-width="1px">2.5</text><text x="0" y="22.24837500000001" dx="0em" dy="0.3em" style="text-anchor: end; visibility: inherit; font-family: &quot;Helvetica Neue&quot;, sans-serif; font-size: 12px; font-weight: 200;" fill="rgb(50, 49, 63)" stroke="none" stroke-width="1px">3</text><text x="0" y="0" dx="0em" dy="0.3em" style="text-anchor: end; visibility: hidden; font-family: &quot;Helvetica Neue&quot;, sans-serif; font-size: 12px; font-weight: 200;" fill="rgb(50, 49, 63)" stroke="none" stroke-width="1px">3.5</text></g><line x1="58" y1="0" x2="58" y2="177.987" fill="rgb(0, 0, 0)" stroke="rgb(204, 204, 204)" stroke-width="1px"></line></g></g><g transform="translate(58, 0)" clip-path="url(#clip_0)"><clipPath id="clip_0"><rect width="271" height="177"></rect></clipPath><g><g><g><line x1="0" y1="0" x2="0" y2="177.987" fill="rgb(0, 0, 0)" stroke="rgb(60, 60, 60)" stroke-width="1px" opacity="0.25"></line><line x1="24.72681818181818" y1="0" x2="24.72681818181818" y2="177.987" fill="rgb(0, 0, 0)" stroke="rgb(60, 60, 60)" stroke-width="1px" opacity="0.25"></line><line x1="49.45363636363636" y1="0" x2="49.45363636363636" y2="177.987" fill="rgb(0, 0, 0)" stroke="rgb(60, 60, 60)" stroke-width="1px" opacity="0.25"></line><line x1="74.18045454545454" y1="0" x2="74.18045454545454" y2="177.987" fill="rgb(0, 0, 0)" stroke="rgb(60, 60, 60)" stroke-width="1px" opacity="0.25"></line><line x1="98.90727272727273" y1="0" x2="98.90727272727273" y2="177.987" fill="rgb(0, 0, 0)" stroke="rgb(60, 60, 60)" stroke-width="1px" opacity="0.25"></line><line x1="123.6340909090909" y1="0" x2="123.6340909090909" y2="177.987" fill="rgb(0, 0, 0)" stroke="rgb(60, 60, 60)" stroke-width="1px" opacity="0.25"></line><line x1="148.36090909090908" y1="0" x2="148.36090909090908" y2="177.987" fill="rgb(0, 0, 0)" stroke="rgb(60, 60, 60)" stroke-width="1px" opacity="0.25"></line><line x1="173.08772727272728" y1="0" x2="173.08772727272728" y2="177.987" fill="rgb(0, 0, 0)" stroke="rgb(60, 60, 60)" stroke-width="1px" opacity="0.25"></line><line x1="197.81454545454545" y1="0" x2="197.81454545454545" y2="177.987" fill="rgb(0, 0, 0)" stroke="rgb(60, 60, 60)" stroke-width="1px" opacity="0.25"></line><line x1="222.54136363636366" y1="0" x2="222.54136363636366" y2="177.987" fill="rgb(0, 0, 0)" stroke="rgb(60, 60, 60)" stroke-width="1px" opacity="0.25"></line><line x1="247.2681818181818" y1="0" x2="247.2681818181818" y2="177.987" fill="rgb(0, 0, 0)" stroke="rgb(60, 60, 60)" stroke-width="1px" opacity="0.25"></line><line x1="271.995" y1="0" x2="271.995" y2="177.987" fill="rgb(0, 0, 0)" stroke="rgb(60, 60, 60)" stroke-width="1px" opacity="0.25"></line></g><g><line x1="0" y1="177.987" x2="271.995" y2="177.987" fill="rgb(0, 0, 0)" stroke="rgb(60, 60, 60)" stroke-width="1px" opacity="0.25"></line><line x1="0" y1="155.73862499999998" x2="271.995" y2="155.73862499999998" fill="rgb(0, 0, 0)" stroke="rgb(60, 60, 60)" stroke-width="1px" opacity="0.25"></line><line x1="0" y1="133.49025" x2="271.995" y2="133.49025" fill="rgb(0, 0, 0)" stroke="rgb(60, 60, 60)" stroke-width="1px" opacity="0.25"></line><line x1="0" y1="111.241875" x2="271.995" y2="111.241875" fill="rgb(0, 0, 0)" stroke="rgb(60, 60, 60)" stroke-width="1px" opacity="0.25"></line><line x1="0" y1="88.9935" x2="271.995" y2="88.9935" fill="rgb(0, 0, 0)" stroke="rgb(60, 60, 60)" stroke-width="1px" opacity="0.25"></line><line x1="0" y1="66.745125" x2="271.995" y2="66.745125" fill="rgb(0, 0, 0)" stroke="rgb(60, 60, 60)" stroke-width="1px" opacity="0.25"></line><line x1="0" y1="44.49674999999999" x2="271.995" y2="44.49674999999999" fill="rgb(0, 0, 0)" stroke="rgb(60, 60, 60)" stroke-width="1px" opacity="0.25"></line><line x1="0" y1="22.24837500000001" x2="271.995" y2="22.24837500000001" fill="rgb(0, 0, 0)" stroke="rgb(60, 60, 60)" stroke-width="1px" opacity="0.25"></line><line x1="0" y1="0" x2="271.995" y2="0" fill="rgb(0, 0, 0)" stroke="rgb(60, 60, 60)" stroke-width="1px" opacity="0.25"></line></g></g></g><g><g><line x1="0" y1="155.73862499999998" x2="271.995" y2="155.73862499999998" fill="rgb(0, 0, 0)" stroke="rgb(153, 153, 153)" stroke-width="1.5px"></line></g></g><g><g><line x1="0" y1="0" x2="0" y2="177.987" fill="rgb(0, 0, 0)" stroke="rgb(153, 153, 153)" stroke-width="1.5px"></line></g></g><g><g><g><g><g><path stroke="rgb(0, 119, 187)" stroke-width="2px" d="M6.181704545454545,39.33878985464574L12.36340909090909,40.78065763918792L18.545113636363634,40.79742805431121L24.72681818181818,41.161510572501356L30.908522727272725,41.673412397882316L37.09022727272727,42.28426404439767L43.27193181818182,42.961220318911046L49.45363636363636,43.35011523990008L55.635340909090914,43.74865323637965L61.81704545454545,44.22587440872607L67.99875,44.615948313377174L74.18045454545454,44.92660457200938L80.3621590909091,45.19801028609126L86.54386363636364,45.40578201463765L92.72556818181818,45.65210839620997L98.90727272727273,45.85044423055888L105.08897727272728,46.183259274923614L111.27068181818183,46.57485886431701L117.45238636363636,46.98376155853097L123.6340909090909,47.45082399520541L129.81579545454545,47.8875877602556L135.9975,48.32233986764015L142.17920454545455,48.749266069623275L148.36090909090908,49.22745422388215L154.54261363636365,49.78354286501809L160.7243181818182,50.30035857875838L166.90602272727273,50.77018455527417L173.08772727272728,51.24034352958847L179.2694318181818,51.71031303444394L185.45113636363635,52.197119368601136L191.63284090909093,52.72863579303353L197.81454545454545,53.24778122832731L203.99625,53.79719370197799L210.17795454545455,54.27821982907206L216.35965909090908,54.75208868027792L222.54136363636366,55.21535698466917L228.7230681818182,55.70137263773783L234.90477272727273,56.202166548446L241.08647727272728,56.69059872348342L247.2681818181818,57.218373542452056L247.2681818181818,57.62369898160725" style="fill: none;" fill="none"></path></g><g><path stroke="rgb(204, 51, 17)" stroke-width="2px" d="M6.181704545454545,34.37083424699307L12.36340909090909,38.34876368178689L18.545113636363634,40.74314955745902L24.72681818181818,41.50730599431978L30.908522727272725,41.91838903628317L37.09022727272727,42.31957173664708L43.27193181818182,42.65429355894631L49.45363636363636,42.8676081880991L55.635340909090914,43.24862950921664L61.81704545454545,43.51415505399996L67.99875,43.770039557576524L74.18045454545454,44.128117728374576L80.3621590909091,44.48652417188538L86.54386363636364,44.767485777445444L92.72556818181818,45.14227201291948L98.90727272727273,45.471418940034226L105.08897727272728,45.85611325604313L111.27068181818183,46.330506245283175L117.45238636363636,46.846811769161775L123.6340909090909,47.414171951547246L129.81579545454545,48.050531661377335L135.9975,48.68734412358722L142.17920454545455,49.309091074836715L148.36090909090908,49.917198886214294L154.54261363636365,50.443788723881525L160.7243181818182,50.982893787695986L166.90602272727273,51.504020537808614L173.08772727272728,52.019913087829906L179.2694318181818,52.576106855989025L185.45113636363635,53.144401688914186L191.63284090909093,53.741138166869376L197.81454545454545,54.32021471693504L203.99625,54.905900840568705L210.17795454545455,55.40967985416464L216.35965909090908,55.88158825464076L222.54136363636366,56.38196604062662L228.7230681818182,56.857354308348164L234.90477272727273,57.33097507684343L241.08647727272728,57.78690156868454L247.2681818181818,58.2401833805438L247.2681818181818,58.58829898373219" style="fill: none;" fill="none"></path></g><g><path stroke="rgb(51, 187, 238)" stroke-width="2px" d="M6.181704545454545,116.64380160829424L12.36340909090909,117.76109582900318L18.545113636363634,119.57920017913496L24.72681818181818,120.49365942762435L30.908522727272725,120.63449077161364L37.09022727272727,120.44085329549577L43.27193181818182,120.10929349879618L49.45363636363636,120.28683190153501L55.635340909090914,120.47001067802105L61.81704545454545,120.8038818706726L67.99875,120.978080366027L74.18045454545454,121.36005065402513L80.3621590909091,121.7043723948882L86.54386363636364,121.98452284178379L92.72556818181818,122.19124783281819L98.90727272727273,122.38696610100374L105.08897727272728,122.6480912977382L111.27068181818183,122.91863761823424L117.45238636363636,123.11387003891309L123.6340909090909,123.33378999279513L129.81579545454545,123.50195707890987L135.9975,123.68429775896618L142.17920454545455,123.87299389304684L148.36090909090908,124.01038043140593L154.54261363636365,124.12938680510361L160.7243181818182,124.23065256329664L166.90602272727273,124.33754401415688L173.08772727272728,124.41293715408793L179.2694318181818,124.56476071165068L185.45113636363635,124.74091078487751L191.63284090909093,124.88315104684165L197.81454545454545,125.08589097176224L203.99625,125.30135201442607L210.17795454545455,125.49780940483546L216.35965909090908,125.6489061696511L222.54136363636366,125.82660762073549L228.7230681818182,125.94487241846045L234.90477272727273,126.09836697090458L241.08647727272728,126.2146438388069L247.2681818181818,126.34087862258787L247.2681818181818,126.4378255918894" style="fill: none;" fill="none"></path></g><g><path stroke="rgb(238, 51, 119)" stroke-width="2px" d="M6.181704545454545,20.15688228142261L12.36340909090909,21.32797232203137L18.545113636363634,22.92478666642657L24.72681818181818,24.685095775620226L30.908522727272725,25.85281294871612L37.09022727272727,26.779448392774327L43.27193181818182,27.684105843116754L49.45363636363636,28.555569904631653L55.635340909090914,29.20999441405101L61.81704545454545,29.774177575374154L67.99875,30.40327694178987L74.18045454545454,31.00079138429686L80.3621590909091,31.56709017061928L86.54386363636364,32.20721412920159L92.72556818181818,32.79955171237822L98.90727272727273,33.37552542441543L105.08897727272728,33.89725555526465L111.27068181818183,34.37362420535874L117.45238636363636,34.835667097008326L123.6340909090909,35.23990188990706L129.81579545454545,35.64393725086151L135.9975,36.01051840941474L142.17920454545455,36.347436654779955L148.36090909090908,36.769166156528826L154.54261363636365,37.211420726978616L160.7243181818182,37.65074808074732L166.90602272727273,38.10156962024385L173.08772727272728,38.56737719644272L179.2694318181818,39.01088626734739L185.45113636363635,39.448413868600824L191.63284090909093,39.835036518618836L197.81454545454545,40.196380156942126L203.99625,40.538459127367275L210.17795454545455,40.88733697184162L216.35965909090908,41.24186959458018L222.54136363636366,41.57847848672694L228.7230681818182,41.92237943851018L234.90477272727273,42.264406619661116L241.08647727272728,42.6011020242L247.2681818181818,42.925226772941244L247.2681818181818,43.17415112742515" style="fill: none;" fill="none"></path></g><g><path stroke="rgb(255, 112, 67)" stroke-width="2px" d="M6.181704545454545,36.876220713973055L12.36340909090909,38.79600287588798L18.545113636363634,39.69766328738808L24.72681818181818,40.00022018373599L30.908522727272725,40.17634572484752L37.09022727272727,40.689633035275165L43.27193181818182,40.836170827210765L49.45363636363636,41.12512572007202L55.635340909090914,41.27655470673591L61.81704545454545,41.55051549333399L67.99875,42.07688823209571L74.18045454545454,42.51700343472882L80.3621590909091,43.120959814154844L86.54386363636364,43.61926583859267L92.72556818181818,44.11252032765904L98.90727272727273,44.6124780115816L105.08897727272728,45.030639269900774L111.27068181818183,45.431909006650756L117.45238636363636,45.80677187700468L123.6340909090909,46.269458338212445L129.81579545454545,46.72110595638267L135.9975,47.140709374302986L142.17920454545455,47.47955950651533L148.36090909090908,47.79162296461979L154.54261363636365,48.12417587026653L160.7243181818182,48.46614450357521L166.90602272727273,48.8013392996599L173.08772727272728,49.215704503446545L179.2694318181818,49.57096293602336L185.45113636363635,49.88934860516554L191.63284090909093,50.27792363627273L197.81454545454545,50.6307741069389L203.99625,51.008649457059505L210.17795454545455,51.41873502098247L216.35965909090908,51.81246413921279L222.54136363636366,52.15348189378051L228.7230681818182,52.547252156746836L234.90477272727273,52.97325821375034L241.08647727272728,53.36304204325724L247.2681818181818,53.731455188843285L247.2681818181818,54.01439256034769" style="fill: none;" fill="none"></path></g></g></g></g><g opacity="0.2"><g><g><g><path stroke="rgb(0, 119, 187)" stroke-width="2px" d="M6.181704545454545,39.33878985464574L12.36340909090909,41.88801209771634L18.545113636363634,40.820199326455594L24.72681818181818,41.82079441201688L30.908522727272725,42.77845547389984L37.09022727272727,43.76611836898326L43.27193181818182,44.74234492170811L49.45363636363636,44.43461395436526L55.635340909090914,44.90827797442674L61.81704545454545,45.65880120277404L67.99875,45.8150483736992L74.18045454545454,45.8986036913395L80.3621590909091,46.05862761354447L86.54386363636364,46.0713370181322L92.72556818181818,46.447282903254035L98.90727272727273,46.49448168540002L105.08897727272728,47.26885361284016L111.27068181818183,47.856605226337905L117.45238636363636,48.32567561352252L123.6340909090909,48.98670256716014L129.81579545454545,49.3260585220456L135.9975,49.75588676601649L142.17920454545455,50.158291127800936L148.36090909090908,50.806767809629434L154.54261363636365,51.62112449991703L160.7243181818182,52.008867428362365L166.90602272727273,52.3238442415595L173.08772727272728,52.79548197090625L179.2694318181818,53.265114627242085L185.45113636363635,53.80785288208723L191.63284090909093,54.487498370826245L197.81454545454545,54.96585150343179L203.99625,55.615548203229906L210.17795454545455,55.87031978183984L216.35965909090908,56.320559456884865L222.54136363636366,56.748785764217374L228.7230681818182,57.31013194531202L234.90477272727273,57.85987204241752L241.08647727272728,58.30740646022558L247.2681818181818,58.96543110877275L247.2681818181818,58.96543110877275" style="fill: none;" fill="none"></path></g><g><path stroke="rgb(204, 51, 17)" stroke-width="2px" d="M6.181704545454545,34.37083424699307L12.36340909090909,41.40381348770856L18.545113636363634,43.99430416470767L24.72681818181818,42.89104721921683L30.908522727272725,42.80579448527098L37.09022727272727,43.292793832182895L43.27193181818182,43.534972703576074L49.45363636363636,43.46247180962561L55.635340909090914,44.35728603279591L61.81704545454545,44.31143457484245L67.99875,44.55663696902991L74.18045454545454,45.24849324631691L80.3621590909091,45.623017545282835L86.54386363636364,45.667489852488046L92.72556818181818,46.352132110476504L98.90727272727273,46.54022705483436L105.08897727272728,47.110930243313305L111.27068181818183,47.883244053483L117.45238636363636,48.54119444006682L123.6340909090909,49.27986758083105L129.81579545454545,50.1463667782545L135.9975,50.787162651300434L142.17920454545455,51.36110153961181L148.36090909090908,51.92559854972362L154.54261363636365,52.183892267167565L160.7243181818182,52.76508761018515L166.90602272727273,53.227325896739956L173.08772727272728,53.72632385516167L179.2694318181818,54.41616445058584L185.45113636363635,55.024762458086016L191.63284090909093,55.71582307147979L197.81454545454545,56.23662222057581L203.99625,56.84430786681175L210.17795454545455,57.07708729541302L216.35965909090908,57.443570084631446L222.54136363636366,58.038228060722346L228.7230681818182,58.4309359318614L234.90477272727273,58.89873325681687L241.08647727272728,59.29610902279616L247.2681818181818,59.74065174436569L247.2681818181818,59.74065174436569" style="fill: none;" fill="none"></path></g><g><path stroke="rgb(51, 187, 238)" stroke-width="2px" d="M6.181704545454545,116.64380160829424L12.36340909090909,118.61917779050768L18.545113636363634,122.04786590024828L24.72681818181818,122.149570311293L30.908522727272725,120.93850356048345L37.09022727272727,119.97111152918637L43.27193181818182,119.23693388941884L49.45363636363636,120.7819275151491L55.635340909090914,121.00300538009404L61.81704545454545,121.80637925644218L67.99875,121.51357229152322L74.18045454545454,122.55518119856714L80.3621590909091,122.7962037051022L86.54386363636364,122.88192853295803L92.72556818181818,122.85858375433088L98.90727272727273,123.02250377739966L105.08897727272728,123.49984376464784L111.27068181818183,123.80416398610174L117.45238636363636,123.75457290785013L123.6340909090909,124.05697027489543L129.81579545454545,124.0558112578243L135.9975,124.2855459459275L142.17920454545455,124.49576565094293L148.36090909090908,124.46412740233541L154.54261363636365,124.52264052504302L160.7243181818182,124.56542072036862L166.90602272727273,124.69102157033979L173.08772727272728,124.66231401707232L179.2694318181818,125.06703906521201L185.45113636363635,125.32375206372141L191.63284090909093,125.3538440721631L197.81454545454545,125.7568425296545L203.99625,126.0144493239373L210.17795454545455,126.14804394382239L216.35965909090908,126.14902526262402L222.54136363636366,126.4148035250902L228.7230681818182,126.33634045636654L234.90477272727273,126.60645773926376L241.08647727272728,126.59954342003167L247.2681818181818,126.75874515621364L247.2681818181818,126.75874515621364" style="fill: none;" fill="none"></path></g><g><path stroke="rgb(238, 51, 119)" stroke-width="2px" d="M6.181704545454545,20.15688228142261L12.36340909090909,22.227369473218914L18.545113636363634,25.09297950679064L24.72681818181818,27.872679057598106L30.908522727272725,28.373565391659724L37.09022727272727,29.02735710829495L43.27193181818182,30.064329947054375L49.45363636363636,30.985793606221677L55.635340909090914,31.114171323180187L61.81704545454545,31.46822053796052L67.99875,32.33714916247129L74.18045454545454,32.870328841745845L80.3621590909091,33.36280235624312L86.54386363636364,34.25772266793251L92.72556818181818,34.71169665884972L98.90727272727273,35.245831134796134L105.08897727272728,35.59906346797942L111.27068181818183,35.93282855790852L117.45238636363636,36.35197368800641L123.6340909090909,36.56917932200432L129.81579545454545,36.974617815434925L135.9975,37.219279158175L142.17920454545455,37.45939991229773L148.36090909090908,38.16201356542109L154.54261363636365,38.672840393722055L160.7243181818182,39.1030929917693L166.90602272727273,39.59238385069369L173.08772727272728,40.108122577428816L179.2694318181818,40.47814872318506L185.45113636363635,40.89609505301715L191.63284090909093,41.11442522531749L197.81454545454545,41.392218012571334L203.99625,41.670615504384045L210.17795454545455,42.042052627444264L216.35965909090908,42.41534629958869L222.54136363636366,42.692661688506604L228.7230681818182,43.060725196659575L234.90477272727273,43.396569621562946L241.08647727272728,43.7156308427453L247.2681818181818,43.99815517795085L247.2681818181818,43.99815517795085" style="fill: none;" fill="none"></path></g><g><path stroke="rgb(255, 112, 67)" stroke-width="2px" d="M6.181704545454545,36.876220713973055L12.36340909090909,40.27039557623863L18.545113636363634,40.92195943397283L24.72681818181818,40.54809288382529L30.908522727272725,40.55654813879727L37.09022727272727,41.93480774348973L43.27193181818182,41.22172315353154L49.45363636363636,41.93092490369082L55.635340909090914,41.717167146563526L61.81704545454545,42.37312306898832L67.99875,43.69497540807723L74.18045454545454,43.8940611230135L80.3621590909091,45.03608281338214L86.54386363636364,45.21548910802602L92.72556818181818,45.70481179350614L98.90727272727273,46.23594396436215L105.08897727272728,46.3946205623746L111.27068181818183,46.745306771099564L117.45238636363636,47.03697593665123L123.6340909090909,47.790947041869174L129.81579545454545,48.20859632384776L135.9975,48.52430514782668L142.17920454545455,48.59789875352382L148.36090909090908,48.822275971412665L154.54261363636365,49.22308900541066L160.7243181818182,49.59663729000093L166.90602272727273,49.909789380669594L173.08772727272728,50.58629464924336L179.2694318181818,50.74626552718878L185.45113636363635,50.94281572651863L191.63284090909093,51.56377304649352L197.81454545454545,51.79850450384616L203.99625,52.25927876883745L210.17795454545455,52.776035945355886L216.35965909090908,53.11567833924293L222.54136363636366,53.282258531928065L228.7230681818182,53.85067020839453L234.90477272727273,54.38340431588888L241.08647727272728,54.653304117321966L247.2681818181818,54.950988501906394L247.2681818181818,54.950988501906394" style="fill: none;" fill="none"></path></g></g></g></g></g></g><g transform="translate(58, 177)" clip-path="url(#clip_1)"><clipPath id="clip_1"><rect width="271" height="21"></rect></clipPath><g><g><line x1="0" y1="0" x2="0" y2="5" style="visibility: inherit;" fill="rgb(0, 0, 0)" stroke="rgb(204, 204, 204)" stroke-width="1px"></line><line x1="24.72681818181818" y1="0" x2="24.72681818181818" y2="5" style="visibility: inherit;" fill="rgb(0, 0, 0)" stroke="rgb(204, 204, 204)" stroke-width="1px"></line><line x1="49.45363636363636" y1="0" x2="49.45363636363636" y2="5" style="visibility: inherit;" fill="rgb(0, 0, 0)" stroke="rgb(204, 204, 204)" stroke-width="1px"></line><line x1="74.18045454545454" y1="0" x2="74.18045454545454" y2="5" style="visibility: inherit;" fill="rgb(0, 0, 0)" stroke="rgb(204, 204, 204)" stroke-width="1px"></line><line x1="98.90727272727273" y1="0" x2="98.90727272727273" y2="5" style="visibility: inherit;" fill="rgb(0, 0, 0)" stroke="rgb(204, 204, 204)" stroke-width="1px"></line><line x1="123.6340909090909" y1="0" x2="123.6340909090909" y2="5" style="visibility: inherit;" fill="rgb(0, 0, 0)" stroke="rgb(204, 204, 204)" stroke-width="1px"></line><line x1="148.36090909090908" y1="0" x2="148.36090909090908" y2="5" style="visibility: inherit;" fill="rgb(0, 0, 0)" stroke="rgb(204, 204, 204)" stroke-width="1px"></line><line x1="173.08772727272728" y1="0" x2="173.08772727272728" y2="5" style="visibility: inherit;" fill="rgb(0, 0, 0)" stroke="rgb(204, 204, 204)" stroke-width="1px"></line><line x1="197.81454545454545" y1="0" x2="197.81454545454545" y2="5" style="visibility: inherit;" fill="rgb(0, 0, 0)" stroke="rgb(204, 204, 204)" stroke-width="1px"></line><line x1="222.54136363636366" y1="0" x2="222.54136363636366" y2="5" style="visibility: inherit;" fill="rgb(0, 0, 0)" stroke="rgb(204, 204, 204)" stroke-width="1px"></line><line x1="247.2681818181818" y1="0" x2="247.2681818181818" y2="5" style="visibility: inherit;" fill="rgb(0, 0, 0)" stroke="rgb(204, 204, 204)" stroke-width="1px"></line><line x1="271.995" y1="0" x2="271.995" y2="5" style="visibility: inherit;" fill="rgb(0, 0, 0)" stroke="rgb(204, 204, 204)" stroke-width="1px"></line></g><g transform="translate(0, 8)"><text x="0" y="0" dx="0em" dy="0.95em" style="text-anchor: middle; visibility: hidden; font-family: &quot;Helvetica Neue&quot;, sans-serif; font-size: 12px; font-weight: 200;" fill="rgb(50, 49, 63)" stroke="none" stroke-width="1px">0</text><text x="24.72681818181818" y="0" dx="0em" dy="0.95em" style="text-anchor: middle; visibility: inherit; font-family: &quot;Helvetica Neue&quot;, sans-serif; font-size: 12px; font-weight: 200;" fill="rgb(50, 49, 63)" stroke="none" stroke-width="1px">200</text><text x="49.45363636363636" y="0" dx="0em" dy="0.95em" style="text-anchor: middle; visibility: hidden; font-family: &quot;Helvetica Neue&quot;, sans-serif; font-size: 12px; font-weight: 200;" fill="rgb(50, 49, 63)" stroke="none" stroke-width="1px">400</text><text x="74.18045454545454" y="0" dx="0em" dy="0.95em" style="text-anchor: middle; visibility: inherit; font-family: &quot;Helvetica Neue&quot;, sans-serif; font-size: 12px; font-weight: 200;" fill="rgb(50, 49, 63)" stroke="none" stroke-width="1px">600</text><text x="98.90727272727273" y="0" dx="0em" dy="0.95em" style="text-anchor: middle; visibility: hidden; font-family: &quot;Helvetica Neue&quot;, sans-serif; font-size: 12px; font-weight: 200;" fill="rgb(50, 49, 63)" stroke="none" stroke-width="1px">800</text><text x="123.6340909090909" y="0" dx="0em" dy="0.95em" style="text-anchor: middle; visibility: inherit; font-family: &quot;Helvetica Neue&quot;, sans-serif; font-size: 12px; font-weight: 200;" fill="rgb(50, 49, 63)" stroke="none" stroke-width="1px">1k</text><text x="148.36090909090908" y="0" dx="0em" dy="0.95em" style="text-anchor: middle; visibility: hidden; font-family: &quot;Helvetica Neue&quot;, sans-serif; font-size: 12px; font-weight: 200;" fill="rgb(50, 49, 63)" stroke="none" stroke-width="1px">1.2k</text><text x="173.08772727272728" y="0" dx="0em" dy="0.95em" style="text-anchor: middle; visibility: inherit; font-family: &quot;Helvetica Neue&quot;, sans-serif; font-size: 12px; font-weight: 200;" fill="rgb(50, 49, 63)" stroke="none" stroke-width="1px">1.4k</text><text x="197.81454545454545" y="0" dx="0em" dy="0.95em" style="text-anchor: middle; visibility: hidden; font-family: &quot;Helvetica Neue&quot;, sans-serif; font-size: 12px; font-weight: 200;" fill="rgb(50, 49, 63)" stroke="none" stroke-width="1px">1.6k</text><text x="222.54136363636366" y="0" dx="0em" dy="0.95em" style="text-anchor: middle; visibility: inherit; font-family: &quot;Helvetica Neue&quot;, sans-serif; font-size: 12px; font-weight: 200;" fill="rgb(50, 49, 63)" stroke="none" stroke-width="1px">1.8k</text><text x="247.2681818181818" y="0" dx="0em" dy="0.95em" style="text-anchor: middle; visibility: hidden; font-family: &quot;Helvetica Neue&quot;, sans-serif; font-size: 12px; font-weight: 200;" fill="rgb(50, 49, 63)" stroke="none" stroke-width="1px">2k</text><text x="271.995" y="0" dx="0em" dy="0.95em" style="text-anchor: middle; visibility: hidden; font-family: &quot;Helvetica Neue&quot;, sans-serif; font-size: 12px; font-weight: 200;" fill="rgb(50, 49, 63)" stroke="none" stroke-width="1px">2.2k</text></g><line x1="0" y1="0" x2="271.995" y2="0" fill="rgb(0, 0, 0)" stroke="rgb(204, 204, 204)" stroke-width="1px"></line></g></g></g></g></svg>